<?xml version="1.0" encoding="UTF-8"?>
<svg width="11px" height="14px" viewBox="0 0 11 14" version="1.1" xmlns="http://www.w3.org/2000/svg" xmlns:xlink="http://www.w3.org/1999/xlink">
    <!-- Generator: Sketch 52.2 (67145) - http://www.bohemiancoding.com/sketch -->
    <title>archive</title>
    <desc>Created with Sketch.</desc>
    <g id="Page-1" stroke="none" stroke-width="1" fill="none" fill-rule="evenodd">
        <g id="Desktop-HD-Copy-18" transform="translate(-424.000000, -1137.000000)" fill="#84969F">
            <g id="archive" transform="translate(424.000000, 1137.000000)">
                <path d="M1.68294634,2.29365684 C1.68549512,2.30706737 1.6880439,2.32047789 1.69045854,2.33374105 C1.67865366,2.32342526 1.66684878,2.31296211 1.6550439,2.30249895 C1.6643,2.29940421 1.67369024,2.29660421 1.68294634,2.29365684 M4.93908049,2.06803579 C5.43327561,2.06110947 5.92800732,2.06390947 6.42206829,2.05934105 C7.00064146,2.05477263 7.57908049,2.05300421 8.15711707,2.03694105 C8.46525122,2.02824632 8.77325122,2.01793053 9.08084878,2.00525684 C9.13759268,2.00275158 9.19433659,1.99995158 9.25108049,1.99700421 C9.26234878,2.34833053 9.22814146,2.70334105 9.18923902,3.05142526 C9.12659268,3.52948842 9.04087317,4.00195158 8.95099512,4.47485684 C8.92134878,4.63195158 8.89277561,4.78963579 8.86259268,4.94673053 C8.69544634,5.36732 8.52816585,5.78805684 8.36142195,6.20864632 C8.13820244,6.77174105 7.89137317,7.32437263 7.65460488,7.88098316 C7.51737317,8.20298316 7.37853171,8.52395158 7.23861707,8.84433053 C7.07093415,9.13685684 6.90539756,9.43056211 6.74133659,9.72529895 C6.01050732,8.68649895 5.27632439,7.65123579 4.53516585,6.62127789 C4.40692195,6.43515158 4.27840976,6.24917263 4.15070244,6.06245684 C4.1063,5.89136211 4.06162927,5.72012 4.01736098,5.54902526 C3.72076341,4.40294105 3.42470244,3.25612 3.12810488,2.11003579 C3.12770244,2.10797263 3.12703171,2.10605684 3.12649512,2.10399368 C3.73001951,2.07304632 4.33609268,2.07673053 4.93908049,2.06803579 M2.48312927,0.0831305263 C2.38453171,0.0928568421 2.28660488,0.111277895 2.18908049,0.128077895 C2.1115439,0.141341053 1.97484878,0.196014737 1.92038537,0.237425263 C1.8107878,0.320835789 1.72439756,0.393341053 1.65048293,0.518898947 C1.60339756,0.597298947 1.56892195,0.680562105 1.54598293,0.768246316 C1.51298293,0.774583158 1.47998293,0.781214737 1.44711707,0.788288421 C1.21450732,0.837214737 0.9933,0.932267368 0.777458537,1.03645684 C0.54484878,1.14860421 0.333031707,1.31395158 0.191104878,1.54988842 C0.0349585366,1.80896211 -0.0431146341,2.15026737 0.024495122,2.45708842 C0.137714634,2.96993053 0.534921951,3.30268842 0.901678049,3.60818316 C0.987934146,3.68407789 1.07311707,3.76144632 1.15776341,3.83999368 C1.17292195,3.87226737 1.18794634,3.90439368 1.20350732,3.93607789 C1.26950732,4.06900421 1.33550732,4.20252 1.40673902,4.33205684 C1.55148293,4.59628842 1.6955561,4.86228842 1.8547878,5.11605684 C2.1153,5.53237263 2.37621463,5.95016211 2.65148293,6.35542526 C2.69467805,6.51134105 2.73773902,6.66755158 2.7808,6.82346737 C2.82627561,6.98866737 2.87349512,7.15283579 2.92111707,7.31685684 C3.04694634,7.74805684 3.19101951,8.16599368 3.36192195,8.57818316 C3.42376341,8.69268842 3.50653171,8.78420421 3.6113,8.85155158 C3.77106829,8.95456211 3.96651951,8.98285684 4.14573902,8.92862526 C4.23910488,8.90047789 4.32187317,8.85258316 4.3923,8.79039368 C4.64395854,9.13715158 4.89427561,9.48523579 5.14553171,9.83243579 C5.43850732,10.2371095 5.72665366,10.6459095 6.01882439,11.05132 C5.94061707,11.19972 5.86321463,11.3485621 5.78648293,11.4984358 C5.65434878,11.7551516 5.52865366,12.0136358 5.41382439,12.2808147 C5.37358049,12.3745411 5.33682439,12.4701832 5.29698293,12.5644989 C5.24412927,12.6900568 5.1822878,12.80972 5.13775122,12.9398463 C5.09321463,13.0693832 5.07644634,13.1949411 5.06598293,13.3324358 C5.0560561,13.4700779 5.12406829,13.6075726 5.17075122,13.7285621 C5.21837317,13.8517621 5.35788537,13.9472568 5.46949512,13.9807095 C5.63865366,14.0318463 5.83262927,13.98012 5.95577561,13.8396779 C6.14908049,13.6186253 6.30522683,13.3739937 6.4420561,13.1074042 C6.52321463,12.9491305 6.60450732,12.7912989 6.68566585,12.6330253 C6.75327561,12.5018674 6.81189756,12.3636358 6.8748122,12.2295305 C6.88353171,12.2109621 6.89225122,12.1925411 6.90097073,12.1739726 C6.91250732,12.1845832 6.9240439,12.1951937 6.93558049,12.2059516 C7.06717805,12.3273832 7.18871463,12.4228779 7.35062927,12.4874253 C7.57599512,12.5777621 7.84375122,12.5518253 8.05221463,12.41772 C8.26926341,12.2778674 8.38194634,12.0308779 8.47410488,11.7868358 C8.5558,11.5703516 8.6087878,11.34532 8.66593415,11.1196989 C8.81362927,10.5375937 8.94308049,9.94988842 9.08245854,9.36498316 C9.2250561,8.76755158 9.37127561,8.17056211 9.50488537,7.57018316 C9.65633659,6.89258316 9.7988,6.21395158 9.93764146,5.53281474 C10.0010927,5.22260421 10.0519341,4.90885684 10.1085439,4.59746737 C10.1179341,4.54544632 10.1271902,4.49342526 10.1364463,4.44140421 C10.3043976,3.97660421 10.4664463,3.50988842 10.6073,3.03447789 C10.6786659,2.79559368 10.749361,2.55612 10.8095927,2.31443579 C10.8672756,2.08188842 10.8950439,1.83828842 10.9060439,1.59822526 C10.910739,1.49919368 10.8903488,1.39972 10.8761293,1.30230947 C10.8546659,1.23614105 10.8310561,1.17115158 10.804361,1.10719368 C10.767739,1.04854105 10.7268244,0.993867368 10.6817512,0.942583158 C10.5643732,0.800962105 10.3856902,0.754983158 10.2237756,0.713425263 C10.140739,0.692056842 10.0520683,0.664646316 9.9620561,0.642835789 C9.85809268,0.558688421 9.73883659,0.495172632 9.62642195,0.455530526 C9.36282439,0.361804211 9.07669024,0.365783158 8.80209268,0.362835789 C8.64339756,0.361214737 8.48510488,0.358856842 8.32627561,0.356498947 C7.76098293,0.349130526 7.19501951,0.319214737 6.62959268,0.297256842 C6.05370244,0.275446316 5.47834878,0.250688421 4.90299512,0.222393684 C4.33649512,0.195425263 3.77066585,0.14812 3.20470244,0.105530526 C3.0300439,0.0925621053 2.85471463,0.0739936842 2.67965366,0.0739936842 C2.6140561,0.0739936842 2.54859268,0.0766463158 2.48312927,0.0831305263" id="Fill-1"></path>
                <path d="M10.2412927,4.15869362 C10.2384518,4.16523962 10.2356108,4.17164635 10.2329119,4.17819236 C10.2344744,4.17471044 10.2358949,4.17122852 10.2374574,4.1677466 C10.2364631,4.17011431 10.2354688,4.17262129 10.2344744,4.17484972 C10.236179,4.17094997 10.2380256,4.16677167 10.2397302,4.16259337 C10.2429973,4.1552117 10.2461224,4.14769076 10.2492474,4.14003054 C10.2466906,4.14629799 10.2439917,4.15256545 10.2412927,4.15869362 Z M10.2202696,4.20827612 C10.2250992,4.19741254 10.2296448,4.1862704 10.2344744,4.17484972 C10.2296448,4.18613113 10.2248151,4.19713399 10.2202696,4.20827612 Z M9.95023574,4.83488195 C9.94554814,4.84574553 9.94100259,4.85646983 9.93645705,4.86719414 C9.94284922,4.85229153 9.9492414,4.83724965 9.95577562,4.82206849 C9.95392899,4.82638607 9.95194032,4.83056437 9.95023574,4.83488195 Z M9.82580141,5.12388107 C9.82537526,5.12499529 9.82480707,5.12597023 9.82438092,5.12694516 C9.82906852,5.11677796 9.83347202,5.10633221 9.83787552,5.09602574 C9.83389816,5.10535728 9.82992081,5.11454954 9.82580141,5.12388107 Z M9.64170679,5.55173906 C9.6488092,5.53586152 9.65534342,5.51970543 9.66230379,5.50354933 C9.65534342,5.51956615 9.64852511,5.53572224 9.64170679,5.55173906 Z M6.65997052,11.3281005 C6.67204462,11.3331144 6.68411873,11.3381284 6.69633489,11.3431423 C6.68411873,11.3392426 6.67232872,11.3345072 6.6611069,11.3290754 C6.66068076,11.3286576 6.66039666,11.328379 6.65997052,11.3281005 Z M6.19689299,10.4964794 C6.20768867,10.5218277 6.21848434,10.5470368 6.22913796,10.5722459 C6.21834229,10.5470368 6.20768867,10.5218277 6.19689299,10.4964794 Z M5.60980729,9.06025814 C5.61279031,9.06137235 5.61577332,9.06248656 5.61875633,9.06360078 C5.84745413,9.14465981 6.09433411,9.16039808 6.33467986,9.18156813 C6.55329223,9.20064904 6.77630809,9.1811503 6.99435226,9.16374072 C7.08682571,9.15635905 7.17901507,9.14688824 7.27120443,9.13644249 C7.22844789,9.29772489 7.17347519,9.45608249 7.13142889,9.61736489 C7.1264572,9.6364458 7.1214855,9.65552671 7.11651381,9.67446834 C7.02119939,9.88115494 6.92673726,10.0881201 6.83227513,10.2953638 C6.76906362,10.4346405 6.70911923,10.5760063 6.64761231,10.7163972 C6.59320781,10.8388215 6.54207041,10.9652847 6.48581928,11.0891017 C6.45357431,11.0336695 6.42360211,10.9769839 6.39448221,10.9182092 C6.32388419,10.7739185 6.25527485,10.6286529 6.19064287,10.481716 C5.99049679,10.0108215 5.80157252,9.53491309 5.60980729,9.06025814 Z M4.88862797,6.22639535 C5.13522386,6.20703589 5.3805413,6.17667357 5.62500646,6.14157584 C5.57202244,6.21330334 5.51903841,6.28503083 5.46562825,6.3563405 C5.25426035,6.63976856 5.04615956,6.92765347 4.88365628,7.24158313 C4.86561615,7.27626303 4.84928059,7.31136075 4.83436552,7.34673703 C4.63464558,6.96999359 4.41489683,6.60299951 4.17625565,6.24867962 C4.21929629,6.24951528 4.26233693,6.24993311 4.30537757,6.24993311 C4.50012582,6.24993311 4.69473202,6.24171578 4.88862797,6.22639535 Z M9.70605467,5.40187735 C9.70278756,5.40953756 9.69952045,5.41733706 9.69611129,5.42499728 C9.6993784,5.41733706 9.70264552,5.40953756 9.70605467,5.40187735 Z M7.58925062,5.80034795 C7.80388563,5.75786856 8.01866269,5.70675402 8.22846806,5.64742215 C8.46696719,5.58001223 8.70120486,5.49129298 8.92422073,5.38474631 C9.0152737,5.34115271 9.12280428,5.30034464 9.19496482,5.22750293 C9.21840279,5.20396517 9.23985209,5.18070596 9.25888657,5.15591471 C9.24439764,5.18711269 9.22990871,5.21803212 9.21556183,5.24923009 C8.86598091,6.00118494 8.50134288,6.7464545 8.14409136,7.4945096 C8.05431682,7.68267241 7.96468433,7.87069594 7.87519389,8.05899802 C7.7643962,8.02571089 7.64450742,8.02153259 7.52987442,8.03253545 C7.30288121,8.05384478 7.07375727,8.07014015 6.84619586,8.07835748 C6.72360816,8.08323216 6.6020148,8.08699263 6.47999529,8.08476421 C6.39107305,8.08351072 6.30172465,8.07459701 6.2130865,8.0638727 C6.13567017,8.05105925 6.06123685,8.03518171 5.98737172,8.01261888 C5.95484266,7.99548785 5.92344998,7.97710333 5.89219935,7.95732604 C5.879415,7.9461839 5.86691475,7.93476321 5.85469859,7.92306397 C5.85484064,7.90091898 5.85555088,7.87891326 5.85682932,7.85676827 C5.86350559,7.82835582 5.8711762,7.80050048 5.88012524,7.77250587 C5.98580919,7.55941254 6.12302787,7.358297 6.26138293,7.16539878 C6.34405505,7.05007768 6.42843175,6.93531369 6.5132346,6.82096753 C6.66096485,6.6222197 6.80912125,6.42347186 6.95727765,6.22472402 C7.05245002,6.10564246 7.14776444,5.98656089 7.24322091,5.86761859 C7.35856415,5.8454736 7.47390738,5.82318933 7.58925062,5.80034795 Z M10.5650209,2.43221978 C10.4779452,2.5844492 10.3813524,2.73361454 10.3080555,2.89294707 C10.2547873,3.00826817 10.200951,3.12358927 10.1476829,3.23891037 C10.0400103,3.4723381 9.9319115,3.70576583 9.82480707,3.93863645 C9.81315911,3.96398481 9.8013691,3.98933317 9.78972113,4.01468152 C9.78205053,4.02777353 9.77565835,4.04128337 9.77082871,4.05548959 C9.62636557,4.36746938 9.48090809,4.67917061 9.33573471,4.99101111 C9.34681448,4.94156789 9.35164412,4.891289 9.35647376,4.84017446 C9.36485461,4.74323788 9.30931372,4.6350199 9.24155667,4.56802781 C9.1760724,4.50396053 9.06072916,4.44351445 8.9641363,4.45549224 C8.73174525,4.48487963 8.50247927,4.51259569 8.27505991,4.56858492 C8.27037231,4.56983841 8.26554267,4.5710919 8.26099712,4.57220611 C8.27250304,4.55479652 8.2838669,4.53724766 8.29523077,4.51955952 C8.33713502,4.50089644 8.37903928,4.48223337 8.42094353,4.46357029 C8.58458319,4.39128569 8.74282502,4.30423776 8.90262938,4.22429294 C9.02081358,4.16551818 9.1422649,4.11217521 9.25547741,4.04532239 C9.39028126,3.96635251 9.48133423,3.86078078 9.57238721,3.73891368 C9.61954725,3.67526423 9.6405704,3.59155894 9.67054259,3.51857796 C9.69156575,3.46857763 9.70719106,3.41690597 9.72821421,3.36676637 C9.75321472,3.27428664 9.75321472,3.18124982 9.72821421,3.08877009 C9.69327033,2.96537095 9.60221735,2.83472941 9.48303881,2.77595465 C9.35476918,2.71397652 9.23274967,2.64113482 9.10234932,2.58291716 C9.01683623,2.54475535 8.93316977,2.5121646 8.84268499,2.4876519 C8.73004067,2.4565932 8.60745297,2.44962937 8.4913995,2.43765157 C8.32435067,2.41968488 8.15403474,2.43054846 7.98698591,2.44085494 C7.81553359,2.45060431 7.64408127,2.46146789 7.47262895,2.47191364 C7.31154616,2.48152373 7.15074746,2.49586923 6.98994876,2.51230388 C6.91835641,2.5121646 6.84662201,2.51286099 6.77460351,2.51425375 C6.70088043,2.51536797 6.62701531,2.51703929 6.55329223,2.51926771 C6.24078593,2.52845997 5.92842167,2.5366773 5.61605742,2.55352978 C5.42954797,2.56327915 5.24318058,2.57302852 5.05723933,2.58291716 C4.9075204,2.59099521 4.75709123,2.6024159 4.60779845,2.61606501 C4.48194364,2.6274857 4.35594678,2.6460095 4.2310863,2.66550824 C4.12724898,2.68180361 4.03193456,2.72052253 3.93363712,2.75645591 C3.82994185,2.78472908 3.74002526,2.83640073 3.66346122,2.91035666 C3.54968052,3.02247439 3.48419624,3.17637513 3.48419624,3.33473273 C3.48419624,3.49309032 3.54968052,3.64699106 3.66346122,3.7591088 C3.78335,3.87665832 3.93037001,3.92498734 4.09628245,3.93487598 C4.18619903,3.93975066 4.27540538,3.94629667 4.36589016,3.94573956 C4.51518294,3.94518246 4.66831103,3.91844133 4.81533104,3.89782838 C4.91860017,3.88306505 5.02115906,3.86899811 5.12442818,3.85423478 C5.31690366,3.82651872 5.50952118,3.79880266 5.70199665,3.7716437 C5.73850307,3.76635119 5.77500949,3.76119795 5.8115159,3.75590544 C5.84731208,3.75381628 5.88325031,3.75158786 5.91904648,3.74935943 C6.12984619,3.73571032 6.34178228,3.73027852 6.55329223,3.72094699 C6.85273008,3.70757642 7.15344638,3.6868242 7.45331038,3.69559863 C7.44492953,3.71175472 7.43654868,3.72777154 7.42802578,3.74378836 C7.36112102,3.77275791 7.29421626,3.80186674 7.22745355,3.83097557 C6.84917888,3.9754055 6.47488156,4.1319525 6.08936242,4.25688369 C5.81080566,4.34727426 5.5328171,4.43696844 5.25482854,4.52721974 C5.11775191,4.57192756 4.97911275,4.60841805 4.83976335,4.6475548 C4.70822661,4.68390601 4.57455914,4.73724899 4.46021024,4.81176201 C4.37029366,4.86997967 4.28378623,4.94184644 4.22824534,5.03321195 C4.19145482,5.09435442 4.16517588,5.15800386 4.14273225,5.22360318 C4.01716153,5.21705718 3.89187492,5.20716853 3.76701444,5.19351942 C3.61601708,5.1709566 3.46601406,5.14296198 3.31771561,5.10856064 C3.28149329,5.0639921 3.24527097,5.01956283 3.20904865,4.97499429 C2.98986809,4.70688667 2.77622742,4.43153665 2.53929082,4.17861019 C2.35619054,3.98209078 2.15689674,3.79601712 1.91285773,3.67470713 C1.77350833,3.60506878 1.60546517,3.54420487 1.44608695,3.56272867 C1.39850077,3.56927467 1.35077253,3.57526357 1.3030443,3.5816703 C1.2436681,3.6001941 1.18812721,3.6252639 1.13542728,3.65674043 C1.02278296,3.72052916 0.943377953,3.82442957 0.875762953,3.92944419 C0.82192664,4.01259237 0.78811914,4.14476595 0.785846367,4.24170253 C0.784141787,4.32819335 0.799198909,4.41189864 0.815818562,4.49630031 C0.833006409,4.58167692 0.883007417,4.66329306 0.920082028,4.74212367 C0.947355306,4.80089843 0.984003772,4.85702694 1.01781127,4.91245906 C1.19920698,5.20953624 1.46725215,5.43808929 1.75972964,5.62569499 C1.97720562,5.76552878 2.22294921,5.86455451 2.46428931,5.95703423 C2.57565519,5.99979217 2.68986204,6.0348899 2.80563142,6.06511294 C2.84000711,6.10703522 2.87424076,6.14937534 2.90819031,6.19185473 C3.25081085,6.63308328 3.56189667,7.09116431 3.8427262,7.57292237 C4.13222067,8.06846883 4.36887317,8.58769233 4.60197447,9.11081558 C4.78337017,9.54326969 4.96576021,9.97600237 5.14772411,10.4084565 C5.26818108,10.694113 5.3890642,10.9786553 5.5284136,11.2560944 C5.66378565,11.5258734 5.81080566,11.7946774 6.04490129,11.9964893 C6.12657908,12.0666847 6.19362588,12.1037323 6.29462224,12.1428691 C6.3650782,12.170028 6.43667056,12.1760169 6.51167207,12.181588 C6.52701329,12.1827022 6.54434318,12.1821451 6.56266742,12.1804738 C6.53922944,12.3125081 6.51678581,12.4446817 6.49547856,12.5769945 C6.48880229,12.6222595 6.48283626,12.6673851 6.47672818,12.7125108 C6.47715433,12.8044334 6.5005923,12.8903671 6.54775234,12.9698941 C6.61593554,13.084101 6.72857985,13.1689205 6.85841202,13.2042967 C6.99264768,13.2402301 7.13924154,13.2217063 7.25898828,13.1526251 C7.36495632,13.0917612 7.4771745,12.9719832 7.49819765,12.848027 C7.62632523,12.0840943 7.80118671,11.3285183 7.97647434,10.5739172 C8.01979908,10.3878435 8.07633431,10.203859 8.12633532,10.0188996 L8.18627971,9.79689255 C8.25332651,9.54772655 8.35276034,9.31220967 8.37051638,9.05218009 C8.38117,8.89772224 8.38031771,8.73643983 8.34366924,8.58448897 C8.54026412,8.10384511 8.74396141,7.62640462 8.94581207,7.14771064 C9.16499263,6.64046494 9.39028126,6.13530839 9.60903567,5.62764486 C9.60733109,5.63168388 9.60562651,5.63572291 9.60392193,5.63990121 C9.6105982,5.62402367 9.61727448,5.6082854 9.62409279,5.59254713 C9.62451894,5.59171147 9.62480304,5.59087581 9.62522918,5.59017943 C9.62238821,5.59672543 9.61954725,5.60327144 9.61670628,5.60995672 C9.63389413,5.57026286 9.65051378,5.53056901 9.66770163,5.49073587 C9.66599705,5.49519273 9.66415042,5.49937103 9.66230379,5.50354933 C9.68034393,5.46176632 9.69838407,5.42026187 9.71614011,5.37847886 C9.75250448,5.29477357 9.7884427,5.21078973 9.82438092,5.12694516 C9.82381273,5.12847721 9.82324454,5.12986997 9.8225343,5.13112346 C9.82367068,5.12875576 9.82466502,5.12624878 9.82580141,5.12388107 C9.83318792,5.10661077 9.84071648,5.08920118 9.84810299,5.07193087 L9.83787552,5.09602574 C9.84327335,5.08363011 9.84852914,5.07123449 9.85364288,5.05883886 C9.86202373,5.03920085 9.87083073,5.01970211 9.87921158,5.0000641 C9.88233664,4.99240388 9.8857458,4.98474366 9.88915496,4.97680489 C9.88262074,4.99198605 9.87622856,5.00730649 9.86969434,5.02234837 L9.92637162,4.89017479 L9.90137111,4.94894955 C9.91301908,4.9217906 9.92466704,4.89435309 9.93645705,4.86719414 C9.93517861,4.86970112 9.93404223,4.87234737 9.93304789,4.87499363 C9.93872982,4.86162307 9.94441175,4.84825251 9.95023574,4.83488195 C9.95279261,4.82889305 9.95534948,4.82290415 9.95790634,4.81677598 C9.9571961,4.8184473 9.95648586,4.82025789 9.95577562,4.82206849 C10.0108904,4.69337683 10.0665733,4.56468517 10.1222563,4.43585423 C10.153791,4.3613412 10.1860359,4.28682817 10.2181389,4.21287225 C10.218423,4.21245442 10.218565,4.21203659 10.2187071,4.21161876 C10.2191332,4.21050455 10.2197014,4.20939033 10.2201275,4.20827612 C10.2242469,4.1982482 10.2286504,4.18822028 10.2329119,4.17819236 C10.2319176,4.18056006 10.2309232,4.18278849 10.2297868,4.18501691 C10.2336221,4.17624248 10.2374574,4.16746805 10.2412927,4.15869362 C10.2454121,4.14894425 10.2496736,4.13919488 10.2536509,4.12958479 C10.2522305,4.13306671 10.25081,4.1366879 10.2492474,4.14003054 C10.3492495,3.90910979 10.4482571,3.67749266 10.5469807,3.44587553 C10.5779473,3.51426038 10.6562159,3.56328577 10.7303651,3.56328577 C10.8451401,3.56328577 10.9173007,3.47512363 10.9273861,3.37010901 C10.9459945,3.17470381 10.9643187,2.97929862 10.9825009,2.78389342 C10.9944329,2.71523001 11.0057968,2.64921286 10.9967057,2.57901741 C10.9867623,2.49907259 10.953381,2.44461541 10.8923002,2.39085461 C10.8494016,2.35297135 10.7941448,2.33333333 10.7398823,2.33333333 C10.6708469,2.33333333 10.603516,2.3652277 10.5650209,2.43221978 Z" id="Fill-4"></path>
            </g>
        </g>
    </g>
</svg>