<?xml version="1.0" encoding="UTF-8"?>
<svg width="13px" height="13px" viewBox="0 0 13 13" version="1.1" xmlns="http://www.w3.org/2000/svg" xmlns:xlink="http://www.w3.org/1999/xlink">
    <!-- Generator: Sketch 52.2 (67145) - http://www.bohemiancoding.com/sketch -->
    <title>tentative</title>
    <desc>Created with Sketch.</desc>
    <g id="Page-1" stroke="none" stroke-width="1" fill="none" fill-rule="evenodd">
        <g id="Desktop-HD-Copy-18" transform="translate(-422.000000, -1108.000000)" fill="#84969F">
            <g id="tentative" transform="translate(422.000000, 1108.000000)">
                <g id="Group-3">
                    <path d="M7.38272989,6.90084444 C7.97579885,6.98499259 8.56483333,7.10573333 9.15222414,7.22336296 C9.43359195,7.27936296 9.71495977,7.33506667 9.99647701,7.39136296 C10.2467644,7.52321481 10.4992931,7.64958519 10.7567529,7.76795556 C10.7760287,7.7766963 10.7953046,7.78573333 10.8142816,7.79477037 C10.4955575,7.88958519 10.171454,7.96854815 9.84974138,8.05151111 C9.57943103,8.12143704 9.30971839,8.18514074 9.03716667,8.2446963 C8.33501724,8.39802963 7.63227011,8.54395556 6.92832759,8.68751111 C5.70199425,8.93625185 4.47685632,9.19388148 3.27263793,9.53358519 C3.02982184,9.60188148 2.79268391,9.68780741 2.55883333,9.78232593 C2.5692931,9.72825185 2.57362644,9.67358519 2.57048851,9.61980741 C2.5669023,9.4924 2.56227011,9.36484444 2.55659195,9.23743704 C2.69600575,9.19047407 2.81868391,9.09536296 2.89683333,8.9646963 C2.98932759,8.81077037 3.06359195,8.65314074 3.12381034,8.48484444 C3.35272989,8.45106667 3.57118966,8.37921481 3.78576437,8.29447407 C4.04486782,8.1921037 4.29933908,8.07580741 4.54633908,7.9484 C4.82471839,7.80499259 5.09487931,7.64632593 5.36698276,7.49180741 C5.63251149,7.34025185 5.89579885,7.1806963 6.17507471,7.05402963 C6.35722414,6.98395556 6.53907471,6.92751111 6.73138506,6.89388148 C6.9490977,6.87506667 7.16486782,6.87936296 7.38272989,6.90084444 Z M4.22866092,6.46899259 C4.57906322,6.51817778 4.92931609,6.56721481 5.2821092,6.59195556 C5.25312069,6.60825185 5.22428161,6.62454815 5.1952931,6.64054815 C5.06394828,6.71462222 4.93215517,6.7881037 4.80081034,6.86217778 C4.40617816,7.08277037 4.01094828,7.29580741 3.59718966,7.47802963 C3.51321264,7.51225185 3.42848851,7.54425185 3.34271839,7.57388148 C3.35138506,7.53328889 3.36005172,7.49254815 3.36901724,7.45195556 C3.43028161,7.1684 3.49154598,6.88543704 3.55579885,6.60291852 C3.56879885,6.54617778 3.58179885,6.48943704 3.59479885,6.43284444 C3.80608621,6.42099259 4.01856897,6.44336296 4.22866092,6.46899259 Z M5.91268391,5.65358519 C5.90506322,5.67684444 5.89535057,5.69965926 5.88354598,5.72158519 C5.89340805,5.69877037 5.90297126,5.67625185 5.91268391,5.65358519 Z M5.92538506,5.62365926 C5.92628161,5.63091852 5.92717816,5.63802963 5.92792529,5.64514074 C5.92687931,5.63832593 5.92598276,5.63151111 5.92493678,5.62454815 L5.92538506,5.62365926 Z M5.92927011,5.57002963 C5.92927011,5.57017778 5.92941954,5.57047407 5.92956897,5.57062222 C5.92897126,5.57743704 5.92807471,5.5844 5.92702874,5.59121481 L5.92643103,5.59165926 C5.92732759,5.5844 5.92837356,5.57714074 5.92927011,5.57002963 Z M6.89440805,5.82573333 C6.91951149,5.72677037 6.9219023,5.61388148 6.9213046,5.5121037 C6.9213046,5.48988148 6.92040805,5.46780741 6.91891379,5.44573333 C7.28246552,5.68262222 7.64272989,5.92454815 8.00224713,6.16780741 C8.04797126,6.19862222 8.09354598,6.22943704 8.13912069,6.26025185 C7.89227011,6.20514074 7.64482184,6.15388148 7.39348851,6.11980741 C7.19266092,6.09225185 6.99198276,6.08128889 6.7907069,6.09165926 C6.83359195,6.00499259 6.87005172,5.9204 6.89440805,5.82573333 Z M4.30800575,4.11862222 C4.30202874,4.12632593 4.29605172,4.13402963 4.29007471,4.14173333 C4.2959023,4.13388148 4.30187931,4.12617778 4.30800575,4.11862222 Z M4.32743103,4.07565926 C4.31891379,4.08217778 4.31024713,4.08884444 4.30172989,4.09536296 C4.31024713,4.08854815 4.31876437,4.08188148 4.32743103,4.07565926 Z M4.50644253,4.04528889 C4.54708621,4.05506667 4.58668391,4.06632593 4.62643103,4.07965926 C4.70233908,4.11728889 4.77466092,4.15847407 4.84593678,4.2046963 C5.05348851,4.37847407 5.23414368,4.58277037 5.40224713,4.79417778 C5.47143103,4.88380741 5.54091379,4.97299259 5.6106954,5.06202963 C5.71813218,5.2046963 5.82093678,5.35373333 5.90177586,5.51343704 C5.90655747,5.52973333 5.91074138,5.54602963 5.91447701,5.56262222 C5.91522414,5.57432593 5.91582184,5.58602963 5.91597126,5.59758519 C5.89116667,5.61165926 5.86621264,5.62499259 5.84036207,5.63758519 C5.79284483,5.65314074 5.74592529,5.66514074 5.69736207,5.67506667 C5.18827011,5.70484444 4.67693678,5.63521481 4.17038506,5.59491852 C4.05054598,5.58543704 3.92771839,5.5764 3.80518966,5.57536296 C3.9195,5.1446963 4.04935057,4.71877037 4.21043103,4.3004 C4.25017816,4.22188148 4.29455747,4.14884444 4.34446552,4.07625185 C4.35148851,4.06854815 4.35881034,4.06099259 4.36613218,4.05358519 C4.37494828,4.05121481 4.38376437,4.04899259 4.39272989,4.04677037 C4.43083333,4.04484444 4.46833908,4.04425185 4.50644253,4.04528889 Z M4.44353448,4.01551111 C4.42560345,4.02321481 4.40767241,4.03062222 4.38974138,4.03817778 C4.40707471,4.02958519 4.42500575,4.02202963 4.44353448,4.01551111 Z M2.86933908,3.46054815 C2.87202874,3.29121481 2.87427011,3.12114074 2.87382184,2.95106667 C2.94345402,2.99565926 3.01323563,3.0401037 3.08301724,3.0844 C3.22467241,3.17491852 3.36677586,3.26425185 3.50932759,3.35284444 C3.45553448,3.41417778 3.40981034,3.4846963 3.36079885,3.54795556 C3.23064943,3.71580741 3.15653448,3.91654815 3.07718966,4.11106667 C3.01368391,4.26558519 2.95047701,4.4204 2.8930977,4.57728889 C2.88816667,4.40558519 2.88263793,4.23388148 2.87636207,4.06247407 C2.87277586,3.96217778 2.86933908,3.86188148 2.86575287,3.76173333 C2.86679885,3.66128889 2.8676954,3.56099259 2.86933908,3.46054815 Z M0.526350575,0.335066667 C0.440729885,0.419955556 0.367063218,0.531214815 0.32133908,0.651214815 C0.250063218,0.723066667 0.187902299,0.804844444 0.127683908,0.893437037 C0.0850977011,0.974474074 0.0523735632,1.05891852 0.0302586207,1.14632593 C-0.00366091954,1.26202963 -0.00306321839,1.39862222 0.00336206897,1.51906667 C0.0129252874,1.70973333 0.036683908,1.89802963 0.0623850575,2.08691852 C0.233775862,3.40099259 0.426982759,4.7124 0.60733908,6.02588148 C0.608833333,6.04188148 0.610477011,6.05773333 0.61212069,6.07358519 C0.691017241,7.25506667 0.773948276,8.43684444 0.826994253,9.61980741 C0.831477011,9.72262222 0.848810345,9.82114074 0.881385057,9.91358519 C0.858821839,10.1063259 0.839545977,10.2992148 0.827591954,10.4919556 C0.822362069,10.5845481 0.827591954,10.6781778 0.828787356,10.7707704 C0.830431034,10.8916593 0.836258621,11.025437 0.865545977,11.1411407 C0.929201149,11.3981778 1.08086782,11.6329926 1.32487931,11.7558074 C1.5676954,11.8772889 1.87476437,11.9125481 2.13102874,11.8078074 C2.19513218,11.7811407 2.25938506,11.7540296 2.32363793,11.727363 C2.37025862,11.6961037 2.41643103,11.6648444 2.46305172,11.6335852 C2.48695977,11.617437 2.51385632,11.6035111 2.53895977,11.5885481 C2.67732759,11.5075111 2.81733908,11.4328444 2.95974138,11.359363 C3.03086782,11.3223259 3.10453448,11.2898815 3.17864943,11.2584741 C3.74900575,11.0489926 4.32713218,10.8596593 4.9181092,10.7141778 C5.59112069,10.5479556 6.26472989,10.3928444 6.94117816,10.2430667 C7.4933046,10.1204 8.04961494,10.0138815 8.60174138,9.89165926 C8.99577586,9.8044 9.38921264,9.71699259 9.7830977,9.62958519 C10.0849368,9.56247407 10.3831897,9.47565926 10.6826379,9.39758519 C10.7993391,9.36736296 10.9160402,9.33728889 11.0316954,9.30380741 C11.2050287,9.25402963 11.3777644,9.20425185 11.5488563,9.1481037 C11.6936494,9.10084444 11.8342586,9.04114074 11.9744195,8.98128889 C12.1419253,8.91388148 12.3110747,8.85017778 12.4576609,8.74351111 C12.6006609,8.63877037 12.6841897,8.56706667 12.784454,8.4201037 C12.8505,8.32291852 12.8890517,8.21402963 12.9322356,8.10528889 C12.9415,8.03817778 12.9503161,7.97047407 12.9595805,7.90336296 C12.9766149,7.81180741 12.9706379,7.72099259 12.9409023,7.62958519 C12.8989138,7.51032593 12.8557299,7.3964 12.7816149,7.29225185 C12.7051092,7.18454815 12.6444425,7.11388148 12.5458218,7.03699259 C12.5078678,7.00751111 12.4699138,6.97847407 12.4319598,6.94899259 C12.1576149,6.7366963 11.8786379,6.54736296 11.5651437,6.3964 C10.9937414,6.12084444 10.4368333,5.82173333 9.8865,5.50751111 C9.36351149,5.20943704 8.86502874,4.86914074 8.35668391,4.54795556 C7.78348851,4.18514074 7.2061092,3.83032593 6.62604023,3.47906667 C6.24067241,3.24588148 5.84499425,3.02884444 5.45618966,2.80143704 C4.99162644,2.53002963 4.52467241,2.26262222 4.06877586,1.97743704 C3.58314368,1.67417778 3.1010977,1.36736296 2.6206954,1.0561037 C2.50563793,0.981437037 2.39013218,0.908548148 2.27402874,0.835659259 C2.16748851,0.7684 2.05855747,0.705140741 1.94708621,0.646918519 C1.90704023,0.532844444 1.84443103,0.428548148 1.75044253,0.335066667 C1.58876437,0.17477037 1.36686782,0.0838074074 1.1380977,0.0838074074 C0.909925287,0.0838074074 0.688028736,0.17477037 0.526350575,0.335066667 Z" id="Fill-1"></path>
                </g>
                <g id="Group-6" transform="translate(0.000000, 2.000000)">
                    <path d="M2.7378963,2.61605918 C2.71863704,2.61859068 2.69952593,2.62112219 2.68041481,2.62351306 C2.69937778,2.61999708 2.71848889,2.61746557 2.7378963,2.61605918 M2.71419259,2.59904183 C2.7013037,2.60424548 2.68856296,2.60944913 2.67597037,2.61451215 C2.68841481,2.60902721 2.70115556,2.60382356 2.71419259,2.59904183 M3.14797037,1.88065644 C3.88826667,2.24027105 4.5976,2.65867288 5.31315556,3.05991671 C5.87211852,3.37368292 6.44737778,3.6636811 7.02145185,3.95156968 C7.3096,4.09558429 7.59611852,4.24227105 7.88263704,4.38994228 C8.19108148,4.54928658 8.49315556,4.71580347 8.79522963,4.88555507 C9.26545185,5.14995689 9.71626667,5.44459616 10.1854519,5.71068566 C9.92456296,5.85455963 9.6453037,5.96693041 9.36871111,6.08591123 C9.17419259,6.17001352 8.98322963,6.26171032 8.78885926,6.34679708 C8.5733037,6.44186922 8.35478519,6.53215963 8.13567407,6.62034046 C7.48248889,6.87616329 6.81448889,7.09570119 6.15108148,7.32522447 C5.61922963,7.50932128 5.07819259,7.66922813 4.54115556,7.83841717 C3.98782222,8.01238795 3.43508148,8.18973406 2.88056296,8.36187653 C2.82219259,7.8818747 2.77034074,7.40074776 2.71597037,6.92032402 C2.65285926,6.36718977 2.59093333,5.81335233 2.54871111,5.25853041 C2.51685926,4.83436237 2.49774815,4.40695963 2.49419259,3.98180712 C2.49093333,3.62528658 2.52752593,3.26665644 2.5698963,2.9119642 C2.57700741,2.87131945 2.58515556,2.83123726 2.59463704,2.79157699 C2.63982222,2.84417607 2.68619259,2.89593132 2.7338963,2.94726466 C2.92071111,3.14894137 3.2773037,3.12812676 3.46767407,2.94726466 C3.56426667,2.85556785 3.61982222,2.72927379 3.61982222,2.59904183 C3.61982222,2.46163726 3.56085926,2.35123543 3.46767407,2.25067836 C3.42337778,2.20272037 3.37893333,2.15560621 3.33567407,2.1072263 C3.27656296,2.02832767 3.21626667,1.9499916 3.14797037,1.88065644 M1.57034074,1.38110575 C1.55848889,1.3955916 1.54663704,1.4099368 1.53478519,1.42442265 C1.5453037,1.40923361 1.55671111,1.3948884 1.56900741,1.38138703 C1.56945185,1.38124639 1.5698963,1.38124639 1.57034074,1.38110575 M1.59671111,1.37885553 C1.5896,1.39502904 1.58248889,1.41106192 1.57522963,1.42723543 C1.5818963,1.41092128 1.58915556,1.3948884 1.59671111,1.37885553 M1.7618963,1.38419982 C2.01863704,1.42976694 2.26352593,1.4991021 2.50708148,1.58967379 C2.55271111,1.60880073 2.5978963,1.62820895 2.64308148,1.64789845 C2.43552593,1.64072584 2.22248889,1.71554594 2.05211852,1.81779068 C1.8258963,1.95350758 1.70841481,2.17937425 1.61922963,2.40946009 C1.57997037,2.51001717 1.56485926,2.620419 1.54811852,2.72589845 C1.5333037,2.81984548 1.5218963,2.91393315 1.51167407,3.00816146 C1.47271111,2.62787288 1.45226667,2.24730301 1.48885926,1.86392037 C1.51715556,1.69993498 1.55508148,1.53735598 1.60693333,1.37885553 C1.65893333,1.37871489 1.71019259,1.3805432 1.7618963,1.38419982 M1.71700741,1.35635324 C1.68856296,1.36000986 1.66011852,1.36366648 1.63152593,1.36732311 C1.65967407,1.36211945 1.68811852,1.35846283 1.71700741,1.35635324 M1.69167407,1.32780347 C1.6658963,1.33807014 1.64026667,1.34819616 1.61463704,1.35846283 C1.63967407,1.34693041 1.6653037,1.33666374 1.69167407,1.32780347 M1.65626667,1.31022356 C1.64456296,1.31866192 1.63300741,1.32724091 1.6213037,1.33567927 C1.6216,1.33483543 1.6218963,1.3339916 1.62219259,1.33314776 C1.63300741,1.32499068 1.64441481,1.31739616 1.65626667,1.31022356 M1.2413037,0.0817395434 C1.11922963,0.0998820091 1.00293333,0.166966941 0.891822222,0.215909406 C0.780711111,0.26527379 0.686340741,0.354298447 0.594933333,0.430103014 C0.519081481,0.492124932 0.450340741,0.604214429 0.40797037,0.69267653 C0.355377778,0.803078356 0.314933333,0.907010776 0.279525926,1.02233498 C0.25122963,1.11628201 0.237896296,1.2179642 0.218192593,1.31402082 C0.178340741,1.50908749 0.154637037,1.70738886 0.136118519,1.90512767 C0.102488889,2.26221078 0.140118519,2.61985644 0.171377778,2.97539251 C0.185748148,3.14064365 0.2176,3.30659799 0.240859259,3.47086466 C0.266192593,3.64891397 0.292859259,3.82583817 0.322340741,4.00318429 C0.531822222,5.24151306 0.765155556,6.47815416 1.09611852,7.69285553 C1.17537778,7.98454137 1.25463704,8.27566466 1.3338963,8.5673505 C1.35522963,8.64582721 1.37774815,8.72388201 1.40056296,8.80179616 C1.39271111,8.80418703 1.38471111,8.80643726 1.37671111,8.80854685 C1.11863704,8.88055416 0.959525926,9.13595507 1.03182222,9.38544913 C1.10485926,9.63592767 1.37848889,9.77487927 1.63952593,9.71285735 C1.66634074,9.70652858 1.69300741,9.70005918 1.71967407,9.69358977 C1.73374815,9.72129571 1.74856296,9.74857973 1.76456296,9.77544183 C1.8056,9.84969936 1.86115556,9.91945644 1.90856296,9.99033863 C2.05034074,10.202282 2.31078519,10.3149341 2.57182222,10.2468647 C2.82871111,10.1792172 2.99478519,9.95785096 3.00234074,9.70906009 C3.00619259,9.59021991 3.00841481,9.47348932 3.00352593,9.35549297 C3.14900741,9.31484822 3.29419259,9.27378155 3.43922963,9.23271489 C4.02026667,9.06732311 4.6013037,8.90249388 5.18115556,8.73499251 C5.76856296,8.56467836 6.35300741,8.39267653 6.93522963,8.20759525 C7.28367407,8.09663087 7.63256296,7.98566648 7.9816,7.8747021 C8.64915556,7.6623368 9.29152593,7.3811989 9.93745185,7.11665644 C10.2632296,6.9886747 10.5916741,6.86561534 10.8999704,6.70289571 C11.0827852,6.60613589 11.2552296,6.47984183 11.4075259,6.34412493 C11.5509333,6.2161432 11.6493037,6.03429662 11.764563,5.88268749 C11.8235259,5.78592767 11.8536,5.68101078 11.8536,5.56892128 C11.8536,5.41956237 11.7900444,5.22716785 11.6620444,5.12942356 C11.5190815,5.02014685 11.3790815,4.90524457 11.2263407,4.80918795 C11.1453037,4.75799525 11.0642667,4.7069432 10.9832296,4.6564537 C10.8599704,4.57896146 10.7390815,4.49654685 10.6176,4.41694502 C10.3177481,4.21962813 10.0156741,4.02737425 9.71122963,3.83680804 C9.19508148,3.51207196 8.64767407,3.22362082 8.1013037,2.94838977 C7.45374815,2.62210667 6.81197037,2.28977607 6.17197037,1.95083543 C5.44456296,1.56506192 4.74026667,1.14314411 4.00471111,0.771293881 C3.60367407,0.568492055 3.18174815,0.393255525 2.75700741,0.241083836 C2.5578963,0.169639087 2.35197037,0.124634521 2.14234074,0.088349589 C2.0093037,0.0658473059 1.87448889,0.0522052968 1.74026667,0.0401103196 C1.71063704,0.0374381735 1.68100741,0.0363130594 1.65152593,0.0363130594 C1.5138963,0.0363130594 1.37671111,0.0613468493 1.2413037,0.0817395434" id="Fill-4"></path>
                </g>
            </g>
        </g>
    </g>
</svg>