<?xml version="1.0" encoding="UTF-8"?>
<svg width="14px" height="15px" viewBox="0 0 14 15" version="1.1" xmlns="http://www.w3.org/2000/svg" xmlns:xlink="http://www.w3.org/1999/xlink">
    <!-- Generator: Sketch 52.2 (67145) - http://www.bohemiancoding.com/sketch -->
    <title>touch</title>
    <desc>Created with Sketch.</desc>
    <g id="Page-1" stroke="none" stroke-width="1" fill="none" fill-rule="evenodd">
        <g id="Desktop-HD-Copy-18" transform="translate(-422.000000, -1055.000000)">
            <g id="touch" transform="translate(422.000000, 1055.000000)">
                <g id="Group-3" transform="translate(1.555556, 0.000000)"></g>
                <g id="Group-6" transform="translate(0.000000, 0.750000)"></g>
                <path d="M6.74408263,2.9761814 C6.88622973,3.05952733 7.02417027,3.14933547 7.15948169,3.24361744 C7.50336901,3.51155058 7.81745978,3.80748663 8.12541596,4.11270174 C8.45125008,4.436475 8.76937214,4.76637907 9.06558498,5.11467558 C9.47660219,5.6402686 9.82171643,6.21175988 10.1025052,6.8089343 C10.2958322,7.27553895 10.4316695,7.75341105 10.5170279,8.24735581 C10.5596194,8.62348953 10.5673315,8.99597791 10.5296476,9.37294012 C10.4661984,9.73035 10.367344,10.0758297 10.229754,10.4135215 C10.0819981,10.708132 9.90637371,10.9818645 9.70375712,11.244661 C9.3947493,11.5974314 9.05103725,11.9137483 8.67472426,12.2017308 C8.29665853,12.463036 7.89966322,12.6885506 7.47427355,12.8733035 C7.0266241,13.0365157 6.56775712,13.1498529 6.09416714,13.2225942 C5.48246135,13.2860564 4.8644457,13.2839023 4.25238936,13.2230913 C3.95179468,13.177193 3.65978842,13.1115767 3.37461784,13.0118267 C3.16937214,12.9158878 2.97814836,12.8042076 2.79376025,12.6782773 C2.59079311,12.5157279 2.40535337,12.3415797 2.23358498,12.1501988 C2.12351299,12.0042192 2.02641127,11.8539314 1.94210454,11.6920448 C1.83694022,11.4262657 1.76612958,11.1541901 1.71740344,10.8734983 C1.67831737,10.5142657 1.67148169,10.1568558 1.70758811,9.79729186 C1.81397934,9.19547791 2.01975086,8.62100407 2.2602266,8.05547791 C2.64898404,7.22317849 3.17743474,6.45417558 3.75636432,5.72924826 C4.52125947,4.8139343 5.40078373,3.96473372 6.36496526,3.23500116 C6.48923443,3.1466843 6.61560689,3.06002442 6.74408263,2.9761814 Z M9.1465615,2.5693936 C9.1586554,2.57834128 9.17092457,2.58728895 9.18319374,2.59623663 L9.1465615,2.5693936 Z M9.04139718,2.49267558 C9.05314053,2.50112616 9.06488388,2.50990814 9.07662723,2.51852442 C9.06488388,2.50990814 9.05314053,2.50129186 9.04139718,2.49267558 Z M7.87547543,0.933957558 C7.57488075,0.991620349 7.30373208,1.09584419 7.02311862,1.20967849 C7.02119061,1.21050698 7.0192626,1.21133547 7.01733459,1.21216395 C6.84188545,1.14406221 6.66170391,1.0875593 6.478718,1.04331802 C6.23017966,0.983832558 5.96726886,0.960469186 5.71329703,0.93594593 C5.47159437,0.912582558 5.22919061,0.933294767 4.98889014,0.961794767 C4.71230798,0.994768605 4.45290266,1.0453064 4.18718748,1.12566977 C3.96599186,1.19228023 3.74216714,1.26353023 3.54638623,1.38250116 C3.30608576,1.52814942 3.13221409,1.74571047 2.98568513,1.97288198 C2.85352864,2.17867849 2.78026416,2.41744884 2.73294022,2.65174535 C2.64530329,3.08670174 2.58571017,3.51850988 2.61042379,3.96059128 C2.62146604,4.16025698 2.67860532,4.34269012 2.80462723,4.49728605 C2.76957246,4.5363907 2.73469296,4.57566105 2.70016401,4.6149314 C1.92299969,5.4977686 1.22190423,6.4674314 0.742004383,7.52574244 C0.493466041,8.07387035 0.271569328,8.62796337 0.132577153,9.21105349 C-0.00501283179,9.78917267 -0.0290253514,10.3865128 0.0305677629,10.9749052 C0.0593126768,11.2532773 0.108038811,11.5308209 0.175694523,11.8027308 C0.242123318,12.0675157 0.356577153,12.316725 0.472257904,12.5646087 C0.589340846,12.813818 0.765315807,13.0338645 0.941290768,13.2481116 C1.13847387,13.4875448 1.35546291,13.7017919 1.59786667,13.9004634 C1.82169139,14.083725 2.06619844,14.2480971 2.31946917,14.3924198 C2.56800751,14.5340913 2.84862097,14.6331785 3.12187293,14.7231523 C3.37584476,14.806664 3.64366322,14.8525622 3.90920313,14.892661 C4.25975086,14.9451872 4.61310297,14.9761727 4.96698091,14.992411 C5.56203568,15.0195855 6.14464601,14.971036 6.73216401,14.8881872 C7.37629546,14.7975506 7.98291831,14.5937424 8.57253959,14.3380709 C9.01545665,14.1465244 9.4248964,13.8895273 9.81102473,13.6111552 C10.2157321,13.318036 10.5867869,13.0033762 10.9236632,12.6416581 C11.2542297,12.2855738 11.5479887,11.8933674 11.7800513,11.4733238 C12.0142172,11.0499663 12.1758197,10.5851843 12.2846648,10.1192424 C12.5112939,9.14444302 12.4222548,8.14710872 12.1663549,7.18589651 C11.9246523,6.27638198 11.4535161,5.42403314 10.9180545,4.64078023 C10.3867994,3.86415523 9.68991049,3.18197791 8.9963518,2.53459709 C8.91222035,2.45622209 8.8259856,2.37983547 8.7381734,2.30543721 C8.86612332,2.37121919 8.98180407,2.45075407 9.09836119,2.53459709 C9.38370704,2.7475186 9.64504038,2.97386163 9.87587606,3.23848081 C9.97946291,3.37584419 10.0756883,3.51387035 10.1568401,3.66548372 C10.3265052,3.98395465 10.79361,4.07194012 11.1036695,3.89978023 C11.2584363,3.81428023 11.3741171,3.67260872 11.4219668,3.50873372 C11.4740232,3.33143721 11.4377415,3.16573953 11.3522078,3.0045157 C11.1133095,2.55729767 10.7545239,2.15862907 10.3662923,1.82010872 C10.1486022,1.63038488 9.90900282,1.45308837 9.67203255,1.28606512 C9.55775399,1.20520465 9.45083693,1.14107965 9.32078373,1.08474244 C9.14217966,1.00719593 8.96813271,0.961794767 8.77515618,0.931472093 C8.62284319,0.906948837 8.46965383,0.893361628 8.31681502,0.893361628 C8.16923443,0.893361628 8.02200438,0.905954651 7.87547543,0.933957558 Z" id="Fill-4" fill="#84969F"></path>
                <path d="M9.71169778,5.33083333 C10.1598756,5.68583333 10.57712,6.07683333 10.9477867,6.50283333 C10.9884978,6.55466667 11.0276089,6.607 11.0654756,6.66 C11.0729422,6.79483333 11.0724089,6.92916667 11.0620978,7.0645 C11.0329422,7.19933333 10.9922311,7.32866667 10.9415644,7.457 C10.8258311,7.67883333 10.6896533,7.88666667 10.5358756,8.087 C10.34512,8.30183333 10.1372978,8.49533333 9.90743111,8.6745 C9.50120889,8.95366667 9.06458667,9.186 8.60858667,9.38566667 C8.58085333,9.38483333 8.55312,9.3835 8.52556444,9.38216667 C8.43525333,9.35483333 8.34565333,9.32516667 8.25640889,9.293 C7.90796444,9.14683333 7.57960889,8.97016667 7.26654222,8.7675 C7.21409778,8.68916667 7.16716444,8.60866667 7.12432,8.5245 C7.07827556,8.404 7.04254222,8.284 7.01694222,8.15883333 C7.00894222,8.0375 7.01072,7.91916667 7.02032,7.798 C7.04805333,7.64483333 7.08680889,7.49666667 7.14387556,7.35083333 C7.29498667,7.06983333 7.48947556,6.81116667 7.69196444,6.56016667 C7.89392,6.32566667 8.11098667,6.11466667 8.35916444,5.92483333 C8.60574222,5.75883333 8.86174222,5.61616667 9.13712,5.497 C9.32592,5.4295 9.51703111,5.3745 9.71169778,5.33083333 M4.35383111,5.09166667 C4.31916444,5.17133333 4.28823111,5.253 4.26014222,5.33683333 C4.11009778,5.7835 4.13996444,6.251 4.22814222,6.704 C4.32200889,7.1845 4.55454222,7.652 4.82547556,8.06533333 C5.01303111,8.35266667 5.23827556,8.62166667 5.48200889,8.87233333 C5.50458667,9.04066667 5.53125333,9.20816667 5.56218667,9.374 C5.59187556,9.53433333 5.64556444,9.69066667 5.70974222,9.84283333 C5.69445333,9.8415 5.67916444,9.84016667 5.66387556,9.83883333 C5.41480889,9.7995 5.17303111,9.743 4.93623111,9.66083333 C4.73587556,9.56866667 4.54778667,9.46183333 4.36538667,9.3405 C4.17907556,9.19483333 4.00734222,9.038 3.84929778,8.86466667 C3.74049778,8.71816667 3.64716444,8.566 3.56503111,8.40433333 C3.46032,8.14466667 3.38440889,7.87983333 3.33498667,7.6065 C3.31045333,7.34616667 3.31258667,7.08916667 3.33836444,6.8295 C3.37960889,6.599 3.43952,6.3755 3.52485333,6.1555 C3.64005333,5.92766667 3.77800889,5.7145 3.93587556,5.51016667 C4.06707556,5.36166667 4.20556444,5.22233333 4.35383111,5.09166667 M5.83703111,4.9945 C5.77640889,5.14216667 5.72183111,5.29166667 5.67400889,5.44433333 C5.59134222,5.70666667 5.54423111,5.97883333 5.50387556,6.24966667 C5.48805333,6.35483333 5.47365333,6.45983333 5.46085333,6.565 C5.42974222,6.46033333 5.40360889,6.3545 5.38263111,6.2465 C5.36840889,6.09666667 5.36752,5.95083333 5.38156444,5.80133333 C5.40840889,5.673 5.44414222,5.55016667 5.49089778,5.428 C5.53249778,5.35266667 5.57765333,5.28233333 5.62832,5.212 C5.69534222,5.13683333 5.76485333,5.0645 5.83703111,4.9945 M7.92769778,4.272 C8.02760889,4.2975 8.12627556,4.32716667 8.22494222,4.3605 C8.38263111,4.431 8.53036444,4.51383333 8.67560889,4.60416667 C8.09587556,4.82566667 7.56414222,5.163 7.12112,5.57466667 C7.16040889,5.45733333 7.20432,5.34083333 7.25249778,5.225 C7.36965333,4.98283333 7.50423111,4.75333333 7.66867556,4.53733333 C7.75152,4.445 7.83756444,4.3565 7.92769778,4.272 M5.80040889,0.1845 C5.59063111,0.2385 5.40805333,0.37 5.29765333,0.5465 C5.18369778,0.728833333 5.15312,0.950833333 5.21285333,1.1545 C5.26494222,1.331 5.41160889,1.551 5.59969778,1.62583333 C5.90103111,1.74633333 6.18867556,1.885 6.46636444,2.04716667 C6.61160889,2.1325 6.76289778,2.2125 6.90316444,2.305 C7.00129778,2.36983333 7.09960889,2.4345 7.19756444,2.49916667 C7.11596444,2.50516667 7.03418667,2.51233333 6.95240889,2.52116667 C5.89143111,2.63433333 4.85534222,2.96316667 3.94689778,3.49316667 C3.52609778,3.73783333 3.14547556,4.04583333 2.81712,4.39216667 C2.63792,4.581 2.47685333,4.78733333 2.32609778,4.997 C2.15312,5.23716667 2.03383111,5.501 1.91632,5.76716667 C1.71703111,6.21833333 1.65036444,6.73133333 1.62885333,7.21516667 C1.61712,7.473 1.64965333,7.7295 1.68787556,7.984 C1.72680889,8.2385 1.78654222,8.48533333 1.86920889,8.73066667 C1.94974222,8.96966667 2.06298667,9.20333333 2.18298667,9.42666667 C2.30245333,9.64733333 2.47063111,9.84016667 2.63383111,10.0328333 C2.78298667,10.2111667 2.96147556,10.3668333 3.14423111,10.514 C3.38440889,10.7073333 3.64627556,10.8805 3.92058667,11.0283333 C4.35738667,11.262 4.84769778,11.3973333 5.34209778,11.4658333 C5.89836444,11.5431667 6.44965333,11.5563333 7.01018667,11.51 C7.06547556,11.5055 7.12076444,11.5003333 7.17587556,11.4945 C7.25320889,11.5373333 7.33214222,11.5775 7.41214222,11.6155 C8.37125333,12.068 9.52823111,12.0933333 10.5406756,11.7886667 C11.0108978,11.6468333 11.4615644,11.43 11.8670756,11.167 C12.0816533,11.0276667 12.2844978,10.87 12.4775644,10.706 C12.7010311,10.5165 12.8837867,10.2958333 13.0670756,10.0731667 C13.36912,9.70666667 13.5781867,9.26983333 13.7442311,8.83616667 C13.9246756,8.36483333 13.9588089,7.84133333 13.9191644,7.34533333 C13.8809422,6.87066667 13.7705422,6.402 13.5788978,5.96116667 C13.4788089,5.73016667 13.3650311,5.50866667 13.2316978,5.29266667 C13.0768533,5.04133333 12.8852089,4.81283333 12.6948089,4.58483333 C12.38032,4.20866667 11.9989867,3.90266667 11.5934756,3.6155 C11.4480533,3.5125 11.2964089,3.41933333 11.14032,3.33383333 C11.12752,3.32366667 11.1145422,3.3135 11.1015644,3.3035 C10.9460089,3.15016667 10.7847644,3.00183333 10.6149867,2.86033333 C10.3074311,2.60383333 9.98032,2.36616667 9.65658667,2.12716667 C9.29214222,1.857 8.91845333,1.59016667 8.52965333,1.35116667 C8.26565333,1.18966667 8.00734222,1.012 7.73374222,0.8655 C7.57196444,0.778333333 7.40947556,0.691 7.24698667,0.6045 C6.92965333,0.433833333 6.58867556,0.308166667 6.24840889,0.1845 C6.17374222,0.165666667 6.09907556,0.156166667 6.02440889,0.156166667 C5.94974222,0.156166667 5.87507556,0.165666667 5.80040889,0.1845" id="Fill-1" fill="#84969F"></path>
            </g>
        </g>
    </g>
</svg>