<?xml version="1.0" encoding="UTF-8"?>
<svg width="14px" height="15px" viewBox="0 0 14 15" version="1.1" xmlns="http://www.w3.org/2000/svg" xmlns:xlink="http://www.w3.org/1999/xlink">
    <!-- Generator: Sketch 52.2 (67145) - http://www.bohemiancoding.com/sketch -->
    <title>values</title>
    <desc>Created with Sketch.</desc>
    <g id="Page-1" stroke="none" stroke-width="1" fill="none" fill-rule="evenodd">
        <g id="Desktop-HD-Copy-18" transform="translate(-420.000000, -1081.000000)" fill="#84969F">
            <g id="values" transform="translate(420.000000, 1081.000000)">
                <path d="M8.63918273,11.5039287 C8.89864422,11.4688749 9.13243855,11.4060489 9.37292866,11.3100318 C9.91789078,11.0917496 10.3298673,10.6890537 10.6683762,10.2536747 C10.766023,10.1281921 10.8402345,9.98814604 10.9068203,9.84555985 C10.9016125,9.99187157 10.8902669,10.138014 10.8731554,10.2833096 C10.8510222,10.4048974 10.8218211,10.5219129 10.7796005,10.6397751 C10.7197105,10.7542505 10.6525667,10.8619522 10.5742632,10.966775 C10.5233009,11.0192712 10.4712226,11.0675337 10.4143085,11.1144415 C10.2919245,11.1897988 10.1650767,11.2524555 10.0304171,11.3096932 C9.83065964,11.3798009 9.63015822,11.4348371 9.41868316,11.4754792 C9.12592876,11.5317009 8.8259206,11.5635372 8.53019031,11.5997765 L8.69144702,11.5799634 C7.93445185,11.6653119 7.17671271,11.6924067 6.41525369,11.7222109 C5.99025764,11.7394838 5.56953944,11.7552327 5.14454338,11.7506604 C5.07591163,11.7499831 5.00746588,11.7493057 4.93864814,11.7487977 C4.87764214,11.3166362 4.79543284,10.8854908 4.69332219,10.4621351 C4.65389148,10.2975344 4.61464677,10.1329337 4.57577404,9.96833299 C4.6654231,10.0577457 4.75842005,10.1442796 4.85457889,10.2272573 C5.24628204,10.5645871 5.70605896,10.8490822 6.1835053,11.0753234 C6.42622733,11.1903068 6.68401487,11.2842918 6.94124444,11.3689629 C7.24050862,11.4675202 7.55297837,11.5091784 7.86768004,11.53966 C7.93798573,11.546603 8.00866342,11.5498205 8.07952709,11.5498205 C8.26700894,11.5498205 8.45523477,11.5284834 8.63918273,11.5039287 M12.0255736,7.00111766 C12.0430571,6.93727562 12.0607265,6.87343358 12.0780239,6.80959155 C12.0698402,6.95488722 12.0614705,7.10018289 12.0531007,7.24530922 C12.0192498,7.83191086 11.9937687,8.42105263 11.923091,9.00579151 C11.9033756,8.84847253 11.8803124,8.69149224 11.8555752,8.53451196 C11.8403237,8.42664093 11.8267462,8.31910858 11.8200504,8.21039084 C11.8103787,8.06458714 11.8250722,7.91742871 11.8418117,7.7728104 C11.8870082,7.51236199 11.9561979,7.25716318 12.0255736,7.00111766 M6.49318514,4.45929012 C6.54879731,4.47063605 6.60180557,4.48435277 6.65555781,4.50077897 C6.75450656,4.54751744 6.84731752,4.59967486 6.93882652,4.65775926 C7.02680163,4.7260042 7.10938292,4.79678927 7.18768635,4.87451737 C7.28923902,5.00965251 7.37237829,5.15088397 7.44770582,5.3004132 C7.53233304,5.498713 7.60356871,5.6981982 7.64839324,5.90682788 C7.65192712,5.96829913 7.65211311,6.02824629 7.64876522,6.08937885 C7.63295574,6.15660774 7.61417036,6.22180451 7.5914791,6.28801734 C7.5700898,6.32696606 7.54721256,6.36472939 7.52173139,6.40249272 C7.51596558,6.40791167 7.51001378,6.41316128 7.50387598,6.41841089 C7.3721923,6.49783242 7.23418482,6.56556933 7.09599136,6.63601571 C6.89139807,6.74117727 6.68885072,6.84430671 6.4758877,6.9343968 C6.1742056,7.03921967 5.86508374,7.11796383 5.54722017,7.1667344 C5.3238415,7.18299126 5.10511268,7.1799431 4.88266397,7.16148479 C4.80473253,7.14946149 4.72754506,7.13574477 4.65091558,7.12033462 C4.62859631,6.84125855 4.63417613,6.56370656 4.66746903,6.28378378 C4.71898934,6.00098219 4.79487485,5.72766375 4.90684318,5.46044164 C4.98812251,5.3068482 5.08074747,5.16460069 5.18899592,5.02658674 C5.30728804,4.9002574 5.43320591,4.78476597 5.57195736,4.67858836 C5.65546862,4.62761634 5.73990985,4.58206327 5.82900093,4.5417598 C5.93445947,4.50958477 6.03936002,4.48435277 6.14853844,4.46420104 C6.26385466,4.45505656 6.37749693,4.45285511 6.49318514,4.45929012 M1.43842897,3.45813859 C1.42466542,3.48845086 1.41071588,3.51876312 1.39658034,3.54890605 C1.40755398,3.51791641 1.42131753,3.48777349 1.43842897,3.45813859 M1.50092292,3.42714895 C1.48529943,3.44594595 1.46967595,3.4645736 1.45405246,3.4830319 C1.46911796,3.46389623 1.48474145,3.44526858 1.50092292,3.42714895 M7.99936372,3.00396261 C8.04251431,3.00650274 8.0854789,3.00887354 8.12844349,3.01107498 C8.21511664,3.01463117 8.30123182,3.01767933 8.38753299,3.01937276 C8.51754272,3.04562081 8.64383258,3.07931992 8.76975045,3.12080878 C8.99722098,3.22326085 9.2008843,3.35568651 9.40268768,3.49522455 C9.55036684,3.60394229 9.69376813,3.71757095 9.83251958,3.83560252 C9.78769505,4.04304681 9.77114159,4.25845018 9.76463181,4.46301565 C9.75514612,4.78053241 9.79587878,5.0953397 9.81912802,5.41150173 C9.88701579,6.35981847 9.98057072,7.3081352 9.87343824,8.25746799 C9.81392019,8.59208833 9.71776134,8.92128971 9.58365974,9.23795976 C9.51521399,9.36733726 9.43895649,9.48841699 9.34967942,9.60678724 C9.23622314,9.72905236 9.11495512,9.84115695 8.9815975,9.94530245 C8.89827223,9.99644381 8.813831,10.0418275 8.72455393,10.0824697 C8.60533184,10.1183702 8.48592376,10.145465 8.3626098,10.1659554 C8.18498563,10.1784868 8.01015137,10.1788254 7.83289918,10.1661248 C7.58273739,10.1239585 7.34354924,10.0572377 7.10640702,9.97273589 C6.75822644,9.82506943 6.43050519,9.64980018 6.11915141,9.44540405 C5.85950393,9.25320057 5.62496562,9.04406286 5.41051466,8.80952381 C5.32644541,8.70520897 5.24739801,8.59869268 5.17337244,8.48946691 C5.26785734,8.49149902 5.36252823,8.49014428 5.45831509,8.48489467 C5.74679162,8.4689765 6.03452418,8.4141096 6.31351503,8.3472194 C6.88321434,8.21039084 7.39544153,7.9570548 7.8901853,7.67323715 C8.09719651,7.55418953 8.29918588,7.43243243 8.47643807,7.27697622 C8.56720309,7.19687733 8.63918273,7.08985301 8.70465258,6.99129581 C8.77365632,6.88664228 8.81643491,6.76369979 8.86218941,6.64922441 C8.94942055,6.43551446 8.96690398,6.18421053 8.96095217,5.95864662 C8.95444239,5.67279686 8.8564236,5.39033394 8.7466872,5.12649868 C8.65443423,4.90482964 8.54916168,4.68654745 8.42566174,4.47825645 C8.30643965,4.27572309 8.13792918,4.09249475 7.95993301,3.93178893 C7.777473,3.7670189 7.55948815,3.6268035 7.3387134,3.51114272 C7.22321118,3.4501795 7.09301546,3.40987604 6.96895753,3.36550837 C6.8995818,3.34078439 6.82611421,3.32588227 6.75134467,3.31521371 C6.77236198,3.30606923 6.79356528,3.29709409 6.81476859,3.28811895 C6.83838981,3.27982117 6.86201104,3.2715234 6.88544627,3.26339497 C7.22693106,3.15315315 7.57715757,3.06136964 7.93203393,3.00802682 C7.95453919,3.0063334 7.97704445,3.00497866 7.99936372,3.00396261 M2.35519289,2.90946962 C2.3490551,3.31216555 2.3427313,3.71486148 2.3365935,4.11772675 C2.22369521,4.19951907 2.11395881,4.28469823 2.00812828,4.37038542 C1.85282338,4.49603739 1.72913743,4.64234912 1.63186262,4.8017002 C1.55281522,4.49908555 1.47488377,4.1956242 1.41443576,3.89063876 C1.40123019,3.78361444 1.3917445,3.67709815 1.39304646,3.56939646 C1.40327612,3.55313961 1.41406377,3.53722143 1.4252234,3.5214726 C1.49776102,3.44730068 1.57271657,3.37871706 1.65418189,3.31368963 C1.88090845,3.16957935 2.11637673,3.03698435 2.35519289,2.90946962 M11.832326,3.03224277 C11.8998418,2.98448825 11.9630797,2.93233083 12.0218538,2.87610919 C12.0982972,2.80921899 12.1578153,2.72319312 12.2165894,2.64394093 C12.2197513,2.63869132 12.2229132,2.6337804 12.2258891,2.62853079 C12.2731315,2.69931586 12.3162821,2.77213304 12.3562708,2.84799837 C12.4561495,3.09439138 12.5279431,3.34654203 12.5798354,3.60394229 C12.3428792,3.72248188 12.1786466,3.95227935 12.1795766,4.21154237 C12.1808785,4.59594933 12.1700909,4.9803563 12.1537234,5.36459392 C12.0843477,5.0965251 11.9710774,4.83810879 11.8338139,4.59069972 C11.6805549,4.31399445 11.4856333,4.05693287 11.2713684,3.81409605 C11.2920137,3.74229493 11.3160069,3.67117117 11.343534,3.6003861 C11.3956123,3.50335298 11.4534564,3.41173881 11.5194842,3.3219874 C11.617317,3.2190273 11.7207296,3.12487299 11.832326,3.03224277 M3.62162535,3.34569532 C3.62571721,3.09676218 3.62962308,2.84765969 3.63334296,2.5985572 C3.63613287,2.59872655 3.63873678,2.59889589 3.6413407,2.59889589 C3.89559436,2.61007248 4.15133597,2.65190002 4.40354369,2.68085755 C4.49561067,2.69169545 4.58767765,2.70219468 4.67974463,2.71252455 C4.57242615,2.79448622 4.46789758,2.87898801 4.36634491,2.9646752 C4.29585323,3.02411434 4.22870943,3.08626295 4.16379756,3.15044368 C3.98208152,3.2354535 3.80148144,3.32215674 3.62088137,3.4085213 C3.62106736,3.38752286 3.62143935,3.36669376 3.62162535,3.34569532 M9.69637205,2.34454379 C9.78639309,2.35436564 9.87641414,2.36469552 9.96662118,2.37519474 C10.153917,2.39974937 10.3402829,2.42769085 10.5260908,2.46138996 C10.5618017,2.46782497 10.5973265,2.47409063 10.6328513,2.48052564 C10.5833769,2.52607871 10.5353905,2.5733252 10.488892,2.62209578 C10.4148665,2.69931586 10.3469787,2.7816162 10.2826248,2.866118 C10.0880752,2.70896837 9.88589983,2.55977782 9.67758666,2.41515952 C9.68521241,2.39179029 9.69135021,2.36825171 9.69637205,2.34454379 M5.8847991,0.0958477274 C5.34281288,0.169850301 4.8147762,0.294994242 4.30757084,0.485504301 C4.1044655,0.561538983 3.90526604,0.643669986 3.70885648,0.731050599 C3.64840847,0.735114814 3.58777446,0.74002574 3.52732644,0.746122062 C3.28237248,0.76982998 3.0498801,0.822834112 2.81013397,0.871096661 C2.60591267,0.91275486 2.41936079,1.05635711 2.3153902,1.2177403 C2.25791809,1.30698368 2.22760108,1.39554969 2.21551148,1.48597846 C1.864355,1.6724243 1.51505846,1.86191831 1.17115574,2.05971009 C0.71547069,2.32235995 0.287684724,2.64986791 0.0864393266,3.11877667 C-0.00804557352,3.33976834 -0.0138113844,3.56600962 0.0159476393,3.79885525 C0.0522164494,4.08521303 0.112478472,4.36039423 0.190967897,4.63963964 C0.411184672,5.41624331 0.61670793,6.19606449 0.831158894,6.9740229 C0.923411867,7.31067534 1.01194496,7.64749712 1.102152,7.98482693 C1.18640724,8.29895685 1.28070615,8.61325611 1.35417374,8.93009551 C1.5351458,9.71262616 1.71518789,10.4951568 1.89541598,11.2783648 C1.92722093,11.4173948 1.95084216,11.5587956 1.9739054,11.7001964 C1.87272472,11.6998578 1.77154404,11.7001964 1.67017737,11.7010431 C1.33669031,11.70443 1.05844344,11.9523471 1.05844344,12.2580099 C1.05844344,12.562318 1.33669031,12.8149766 1.67017737,12.815654 C1.82901616,12.8197182 1.98766895,12.8244598 2.14650774,12.8297094 C2.17291887,13.0424033 2.19598212,13.2552665 2.21513949,13.4686378 C2.2209053,13.5334959 2.22518316,13.5986927 2.22797307,13.6635508 C2.22908903,13.9157014 2.23039099,14.1676827 2.23113496,14.4198334 C2.23187894,14.7359954 2.52035548,15 2.86835006,15 C3.21634464,15 3.50482118,14.7359954 3.50537916,14.4198334 C3.50612313,14.2245817 3.51133096,14.0288221 3.51058699,13.8337398 C3.51040099,13.7665109 3.50816907,13.6991126 3.50463518,13.6318838 C3.50463518,13.5753234 3.50463518,13.5184244 3.50463518,13.4618641 C3.51207494,13.4689765 3.51970069,13.4760889 3.52732644,13.4832012 C3.74010346,13.6762514 4.02560409,13.7900494 4.30980277,13.863544 C4.58656169,13.9355145 4.89233566,13.9329743 5.17802228,13.9277247 C5.48100634,13.9216284 5.78175848,13.9084197 6.08325458,13.8886067 C7.16573907,13.8171442 8.25491934,13.7588905 9.33015006,13.6200298 C9.92588852,13.5426404 10.4831262,13.3812572 11.0280884,13.1497663 C11.16033,13.093206 11.2866199,13.0269932 11.4084459,12.954176 C11.7776438,12.8669647 12.1394019,12.7314909 12.4455479,12.531159 C12.6670666,12.3870487 12.8312992,12.2097473 12.9955318,12.014665 C13.1618104,11.8168733 13.2395558,11.559473 13.3042817,11.3220551 C13.3935587,10.9886202 13.4387553,10.6479035 13.4865557,10.3080336 C13.5215226,10.0631647 13.5557454,9.81846508 13.5905263,9.57308813 C13.6930089,8.84610174 13.7582928,8.11437377 13.8274825,7.38349252 C13.8870006,6.75235386 13.9442867,6.12070717 13.9785096,5.48770575 C14.0060367,4.97104247 14.0082686,4.44845221 13.9785096,3.9324663 C13.9457746,3.37211271 13.8259946,2.80786426 13.5862484,2.29069295 C13.3827711,1.85141909 13.0477961,1.46701212 12.6387955,1.17015512 C12.1527935,0.816907133 11.5948118,0.584738874 11.0106049,0.397446318 C10.2353824,0.148682517 9.4144053,0.0885660096 8.60142597,0.0396260923 C8.20525897,0.0159181738 7.80779001,0 7.41087903,0 C6.90051177,0 6.39088849,0.0262480526 5.8847991,0.0958477274" id="Fill-1"></path>
            </g>
        </g>
    </g>
</svg>