<svg width="269px" height="207px" viewBox="0 0 269 207" version="1.1" class="hero__shapes">
  <polygon fill="#F7DA5A" points="96 155.710182 86.1348167 206 0 167.034537 22.9028205 120"></polygon>
  <path d="M150,128 C167.673112,128 182,114.02469 182,96.7852711 C182,79.5458523 173.790591,64 156.117479,64 C138.444367,64 118,79.5458523 118,96.7852711 C118,114.02469 132.326888,128 150,128 Z" id="Oval" fill="#F6B3B3"></path>
  <polygon fill="#47B654" transform="translate(100.000000, 44.000000) rotate(-68.000000) translate(-100.000000, -44.000000) " points="117.17328 13 134 75 66 63.6646363"></polygon>
  <path d="M188,52 C205.673112,52 220,36.8638356 220,20.7745753 C220,14.5317808 156,20.7745753 156,20.7745753 C156,38.0199012 170.326888,52 188,52 Z" id="Oval" fill="#8EBFBE" transform="translate(188.000000, 35.000000) rotate(-25.000000) translate(-188.000000, -35.000000) "></path>
  <path d="M75,128 C92.673112,128 107,112.863836 107,96.7745753 C107,90.5317808 43,96.7745753 43,96.7745753 C43,114.019901 57.326888,128 75,128 Z" id="Oval" fill="#326D3A" transform="translate(75.000000, 111.000000) rotate(14.000000) translate(-75.000000, -111.000000) "></path>
  <polygon fill="#F66868" points="111.615141 135 257 153.031875 252.384859 191 107 172.968125"></polygon>
  <polygon fill="#21A795" transform="translate(228.000000, 85.000000) rotate(-26.000000) translate(-228.000000, -85.000000) " points="206.041353 62.9628542 259 58 258.694148 112 197 112"></polygon>
</svg>
