<?xml version="1.0" encoding="UTF-8"?>
<svg width="20px" height="20px" viewBox="0 0 20 20" version="1.1" xmlns="http://www.w3.org/2000/svg" xmlns:xlink="http://www.w3.org/1999/xlink">
    <!-- Generator: Sketch 53 (72520) - https://sketchapp.com -->
    <title>Group 1163</title>
    <desc>Created with Sketch.</desc>
    <g id="Page-1" stroke="none" stroke-width="1" fill="none" fill-rule="evenodd">
        <g id="Desktop-Copy-2" transform="translate(-215.000000, -106.000000)" fill="#0075FF">
            <g id="Group-1163" transform="translate(215.000000, 106.000000)">
                <path d="M15.2173913,10.8695652 L6.01217391,10.8695652 L8.44086957,13.2982609 C8.78086957,13.6382609 8.78086957,14.1878261 8.44086957,14.5278261 C8.10086957,14.8678261 7.55130435,14.8678261 7.21130435,14.5278261 L3.29826087,10.6147826 C2.95826087,10.2747826 2.95826087,9.72521739 3.29826087,9.38521739 L7.21130435,5.47217391 C7.55130435,5.13217391 8.10086957,5.13217391 8.44086957,5.47217391 C8.78086957,5.81217391 8.78086957,6.36173913 8.44086957,6.70173913 L6.01217391,9.13043478 L15.2173913,9.13043478 C15.6982609,9.13043478 16.0869565,9.52 16.0869565,10 C16.0869565,10.48 15.6982609,10.8695652 15.2173913,10.8695652 M10,0 C4.48608696,0 0,4.48608696 0,10 C0,15.513913 4.48608696,20 10,20 C15.513913,20 20,15.513913 20,10 C20,4.48608696 15.513913,0 10,0" id="Fill-3730"></path>
            </g>
        </g>
    </g>
</svg>