<svg width="23px" height="23px" viewBox="0 0 23 23" version="1.1" xmlns="http://www.w3.org/2000/svg" xmlns:xlink="http://www.w3.org/1999/xlink" class="back">
  <path d="M17.5,12.5 L6.914,12.5 L9.707,15.293 C10.098,15.684 10.098,16.316 9.707,16.707 C9.316,17.098 8.684,17.098 8.293,16.707 L3.793,12.207 C3.402,11.816 3.402,11.184 3.793,10.793 L8.293,6.293 C8.684,5.902 9.316,5.902 9.707,6.293 C10.098,6.684 10.098,7.316 9.707,7.707 L6.914,10.5 L17.5,10.5 C18.053,10.5 18.5,10.948 18.5,11.5 C18.5,12.052 18.053,12.5 17.5,12.5 M11.5,0 C5.159,0 0,5.159 0,11.5 C0,17.841 5.159,23 11.5,23 C17.841,23 23,17.841 23,11.5 C23,5.159 17.841,0 11.5,0" fill="#0075FF"></path>
</svg>
