<?xml version="1.0" encoding="UTF-8"?>
<svg width="1em" height="1em" viewBox="0 0 24 24" version="1.1" xmlns="http://www.w3.org/2000/svg" xmlns:xlink="http://www.w3.org/1999/xlink">
    <!-- Generator: Sketch 53.2 (72643) - https://sketchapp.com -->
    <title>Group</title>
    <desc>Created with Sketch.</desc>
    <g id="Primary" stroke="none" stroke-width="1" fill="none" fill-rule="evenodd">
        <g id="Desktop-Copy-4" transform="translate(-718.000000, -1118.000000)" fill="#7C3DBE">
            <g id="Group" transform="translate(718.000000, 1118.000000)">
                <path d="M13.626,9.5039 C14.139,10.4689 14.58,11.4669 14.96,12.4909 C16.501,12.1899 18.08,12.0319 19.692,12.0319 C20.74,12.0319 22.328,12.1619 23.484,12.3029 C23.566,9.4369 22.607,6.8009 20.895,4.7149 C18.714,6.7479 16.263,8.3679 13.626,9.5039" id="Fill-17"></path>
                <path d="M19.6924,13.0317 C18.1964,13.0317 16.7294,13.1767 15.2964,13.4467 C16.0824,15.8607 16.5004,18.4047 16.5004,20.9997 C16.5004,21.3607 16.4734,22.0077 16.4424,22.6087 C20.2054,21.0317 22.9464,17.5117 23.4214,13.3027 C22.2864,13.1617 20.6894,13.0317 19.6924,13.0317" id="Fill-19"></path>
                <path d="M0.6406,10.2925 C1.8146,10.4225 3.1426,10.5005 3.9996,10.5005 C6.8216,10.5005 9.5836,9.9835 12.1906,9.0045 C10.6366,6.3845 8.5556,4.0665 6.0606,2.1655 C3.1966,3.9005 1.1556,6.8435 0.6406,10.2925" id="Fill-21"></path>
                <path d="M15.4204,22.9829 C15.4594,22.2979 15.5004,21.4209 15.5004,20.9999 C15.5004,18.4749 15.0854,16.0019 14.3104,13.6569 C10.3094,14.5979 6.6124,16.6109 3.3854,19.6019 C5.4934,21.9869 8.5664,23.4999 12.0004,23.4999 C13.1914,23.4999 14.3394,23.3189 15.4204,22.9829" id="Fill-23"></path>
                <path d="M13.9766,12.7065 C13.6106,11.7385 13.1826,10.7945 12.6926,9.8825 C9.9316,10.9405 6.9976,11.5005 3.9996,11.5005 C3.0956,11.5005 1.7486,11.4185 0.5366,11.2835 C0.5216,11.5215 0.4996,11.7575 0.4996,12.0005 C0.4996,14.5575 1.3446,16.9115 2.7556,18.8205 C6.0726,15.7605 9.8686,13.6915 13.9766,12.7065" id="Fill-25"></path>
                <path d="M7.0244,1.6445 C9.5054,3.6065 11.5744,5.9735 13.1284,8.6305 C15.7044,7.5355 18.0984,5.9575 20.2254,3.9715 C18.1364,1.8315 15.2254,0.5005 12.0004,0.5005 C10.2144,0.5005 8.5314,0.9185 7.0244,1.6445" id="Fill-27"></path>
            </g>
        </g>
    </g>
</svg>
