<?xml version="1.0" encoding="UTF-8"?>
<svg width="1em" height="1em" viewBox="0 0 24 24" version="1.1" xmlns="http://www.w3.org/2000/svg" xmlns:xlink="http://www.w3.org/1999/xlink">
    <!-- Generator: Sketch 53.2 (72643) - https://sketchapp.com -->
    <title>Group 201</title>
    <desc>Created with Sketch.</desc>
    <g id="Primary" stroke="none" stroke-width="1" fill="none" fill-rule="evenodd">
        <g id="Desktop-Copy-4" transform="translate(-960.000000, -1171.000000)" fill="#7C3DBE">
            <g id="Group-201" transform="translate(960.000000, 1171.000000)">
                <path d="M12,9 C10.346,9 9,10.346 9,12 C9,13.654 10.332,15 11.969,15 C13.64,15 15,13.668 15,12.031 C15,10.36 13.654,9 12,9" id="Fill-205"></path>
                <path d="M16.9028,16 C16.2568,16 15.7658,15.834 15.4408,15.507 C15.1708,15.233 15.0668,14.908 15.0258,14.612 C14.2858,15.46 13.1908,16 11.9688,16 C9.7808,16 7.9998,14.206 7.9998,12 C7.9998,9.794 9.7948,8 11.9998,8 C13.1948,8 14.2658,8.534 14.9998,9.374 L14.9998,9 C14.9998,8.724 15.2238,8.5 15.4998,8.5 C15.7758,8.5 15.9998,8.724 15.9998,9 L15.9998,12.023 L15.9998,12.031 L15.9998,12.04 L15.9998,14.093 C15.9968,14.337 15.9938,14.643 16.1508,14.802 C16.2798,14.932 16.5398,15 16.9028,15 C18.3288,15 19.0738,13.322 19.0738,11.664 C19.0738,10.137 18.4768,8.639 17.4338,7.554 C16.1428,6.21 14.1968,5.5 11.8058,5.5 C8.2288,5.5 5.3188,8.416 5.3188,12 C5.3188,15.584 8.2468,18.5 11.8448,18.5 C13.0048,18.5 14.1768,18.191 15.1468,17.631 C15.3858,17.493 15.6908,17.575 15.8298,17.813 C15.9678,18.053 15.8858,18.358 15.6468,18.497 C14.5278,19.144 13.1768,19.5 11.8448,19.5 C7.6948,19.5 4.3188,16.136 4.3188,12 C4.3188,7.865 7.6768,4.5 11.8058,4.5 C14.4758,4.5 16.6718,5.316 18.1558,6.861 C19.3748,8.131 20.0738,9.881 20.0738,11.664 C20.0738,14.177 18.7408,16 16.9028,16 M22.9998,5 L23.4998,5 C23.7758,5 23.9998,4.776 23.9998,4.5 L23.9998,1.5 C23.9998,0.673 23.3268,0 22.4998,0 L19.4998,0 C19.2238,0 18.9998,0.224 18.9998,0.5 L18.9998,1 C18.9998,1.552 18.5508,2 17.9998,2 C17.4488,2 16.9998,1.552 16.9998,1 L16.9998,0.5 C16.9998,0.224 16.7758,0 16.4998,0 L13.4998,0 C13.2238,0 12.9998,0.224 12.9998,0.5 L12.9998,1 C12.9998,1.552 12.5508,2 11.9998,2 C11.4488,2 10.9998,1.552 10.9998,1 L10.9998,0.5 C10.9998,0.224 10.7758,0 10.4998,0 L7.4998,0 C7.2238,0 6.9998,0.224 6.9998,0.5 L6.9998,1 C6.9998,1.552 6.5508,2 5.9998,2 C5.4488,2 4.9998,1.552 4.9998,1 L4.9998,0.5 C4.9998,0.224 4.7758,0 4.4998,0 L1.4998,0 C0.6728,0 -0.0002,0.673 -0.0002,1.5 L-0.0002,4.5 C-0.0002,4.776 0.2238,5 0.4998,5 L0.9998,5 C1.5508,5 1.9998,5.449 1.9998,6 C1.9998,6.552 1.5508,7 0.9998,7 L0.4998,7 C0.2238,7 -0.0002,7.224 -0.0002,7.5 L-0.0002,10.5 C-0.0002,10.776 0.2238,11 0.4998,11 L0.9998,11 C1.5508,11 1.9998,11.449 1.9998,12 C1.9998,12.552 1.5508,13 0.9998,13 L0.4998,13 C0.2238,13 -0.0002,13.224 -0.0002,13.5 L-0.0002,16.5 C-0.0002,16.776 0.2238,17 0.4998,17 L0.9998,17 C1.5508,17 1.9998,17.449 1.9998,18 C1.9998,18.552 1.5508,19 0.9998,19 L0.4998,19 C0.2238,19 -0.0002,19.224 -0.0002,19.5 L-0.0002,22.5 C-0.0002,23.327 0.6728,24 1.4998,24 L4.4998,24 C4.7758,24 4.9998,23.776 4.9998,23.5 L4.9998,23 C4.9998,22.449 5.4488,22 5.9998,22 C6.5508,22 6.9998,22.449 6.9998,23 L6.9998,23.5 C6.9998,23.776 7.2238,24 7.4998,24 L10.4998,24 C10.7758,24 10.9998,23.776 10.9998,23.5 L10.9998,23 C10.9998,22.449 11.4488,22 11.9998,22 C12.5508,22 12.9998,22.449 12.9998,23 L12.9998,23.5 C12.9998,23.776 13.2238,24 13.4998,24 L16.4998,24 C16.7758,24 16.9998,23.776 16.9998,23.5 L16.9998,23 C16.9998,22.449 17.4488,22 17.9998,22 C18.5508,22 18.9998,22.449 18.9998,23 L18.9998,23.5 C18.9998,23.776 19.2238,24 19.4998,24 L22.4998,24 C23.3268,24 23.9998,23.327 23.9998,22.5 L23.9998,19.5 C23.9998,19.224 23.7758,19 23.4998,19 L22.9998,19 C22.4488,19 21.9998,18.552 21.9998,18 C21.9998,17.449 22.4488,17 22.9998,17 L23.4998,17 C23.7758,17 23.9998,16.776 23.9998,16.5 L23.9998,13.5 C23.9998,13.224 23.7758,13 23.4998,13 L22.9998,13 C22.4488,13 21.9998,12.552 21.9998,12 C21.9998,11.449 22.4488,11 22.9998,11 L23.4998,11 C23.7758,11 23.9998,10.776 23.9998,10.5 L23.9998,7.5 C23.9998,7.224 23.7758,7 23.4998,7 L22.9998,7 C22.4488,7 21.9998,6.552 21.9998,6 C21.9998,5.449 22.4488,5 22.9998,5" id="Fill-206"></path>
            </g>
        </g>
    </g>
</svg>
