<svg width="227px" height="285px" viewBox="0 0 227 285" version="1.1" class="hero__shapes">
  <polygon fill="#F7DA5A" points="216 113.769172 204.07957 174 100 127.332061 127.674241 71"></polygon>
  <path d="M38,193 C58.9868205,193 76,176.185955 76,155.444779 C76,134.703604 66.2513262,116 45.2645057,116 C24.2776852,116 0,134.703604 0,155.444779 C0,176.185955 17.0131795,193 38,193 Z" id="Oval" fill="#F68061"></path>
  <path d="M198,232 C209.045695,232 218,223.047067 218,212.003064 C218,200.959062 212.869119,191 201.823424,191 C190.777729,191 178,200.959062 178,212.003064 C178,223.047067 186.954305,232 198,232 Z" id="Oval" fill="#F65A59" transform="translate(198.000000, 211.500000) rotate(-58.000000) translate(-198.000000, -211.500000) "></path>
  <polygon id="Rectangle" fill="#F6B3B3" transform="translate(68.000000, 52.500000) rotate(27.000000) translate(-68.000000, -52.500000) " points="88.7089555 15 109 90 27 76.2878664"></polygon>
  <path d="M129,203 C149.98682,203 167,184.747566 167,165.345811 C167,157.817736 91,165.345811 91,165.345811 C91,186.141646 108.01318,203 129,203 Z" id="Oval" fill="#326D3A" transform="translate(129.000000, 182.500000) rotate(14.000000) translate(-129.000000, -182.500000) "></path>
  <polygon fill="#21A795" transform="translate(57.500000, 238.000000) rotate(-26.000000) translate(-57.500000, -238.000000) " points="30.9371206 211.881901 95 206 94.6300179 270 20 270"></polygon>
</svg>
