<?xml version="1.0" encoding="UTF-8"?>
<svg width="326px" height="153px" viewBox="0 0 326 153" version="1.1" xmlns="http://www.w3.org/2000/svg" xmlns:xlink="http://www.w3.org/1999/xlink">
    <title>home-anchor</title>
    <g id="Page-1" stroke="none" stroke-width="1" fill="none" fill-rule="evenodd">
        <g id="Artboard-Copy-7" transform="translate(-1445.000000, -1344.000000)">
            <g id="home-anchor" transform="translate(1445.633592, 1344.311795)">
                <polygon id="Rectangle" fill="#F66868" transform="translate(92.900320, 99.000000) rotate(27.000000) translate(-92.900320, -99.000000) " points="113.609275 61 133.90032 137 51.9003195 123.105038"></polygon>
                <path d="M140.90032,57 C161.88714,57 178.90032,38.3023851 178.90032,18.4274166 C178.90032,10.7157293 102.90032,18.4274166 102.90032,18.4274166 C102.90032,39.7304662 119.913499,57 140.90032,57 Z" id="Oval" fill="#21A795" transform="translate(140.900320, 36.000000) rotate(-25.000000) translate(-140.900320, -36.000000) "></path>
                <polygon id="Rectangle" fill="#F7C332" points="140.90032 83.998284 315.315566 47 324.90032 92.001716 150.485073 129"></polygon>
                <path d="M39,72.3374965 C53.9116882,72.3374965 66,60.1091001 66,45.0246087 C66,29.9401173 59.0733107,16.3374965 44.1616225,16.3374965 C29.2499343,16.3374965 12,29.9401173 12,45.0246087 C12,60.1091001 24.0883118,72.3374965 39,72.3374965 Z" id="Oval" fill="#206B98" transform="translate(39.000000, 44.337497) rotate(-58.000000) translate(-39.000000, -44.337497) "></path>
            </g>
        </g>
    </g>
</svg>