<svg width="3.75em" height="2.5625em" viewBox="0 0 60 41" fill="none" xmlns="http://www.w3.org/2000/svg">
<path d="M16.9317 15.0882C14.8496 12.2565 11.8332 9.9656 8.05162 10.7219C6.06336 11.1196 3.93017 12.428 2.59378 13.9376C1.20593 15.5054 1.02629 17.7557 1.00067 19.779C0.948896 23.8695 3.88375 30.0225 8.30239 31.0044C9.05278 31.1712 10.4483 29.7638 11.0756 29.4261C12.3321 28.7495 14.092 27.4522 14.6748 26.0924C15.968 23.0748 16.1351 20.5614 16.1351 17.3451C16.1351 15.6318 15.6218 15.7215 17.4627 15.6192C18.0396 15.5872 18.4438 15.0882 19.0558 15.0882C20.2684 15.0882 21.3969 14.902 22.6846 15.0292C25.1592 15.2736 27.8213 15.3537 30.3108 15.3537C32.0454 15.3537 33.7393 15.7635 35.4884 15.6045C36.3867 15.5228 37.3363 15.0924 38.2615 15.4127C38.8304 15.6096 38.1813 17.6874 38.173 18.0679C38.087 22.0273 39.1806 25.8632 42.4508 28.3788C46.5623 31.5415 55.1098 32.6111 56.8772 26.5054C58.0392 22.4914 56.0424 18.6101 53.6025 15.5602C51.7629 13.2606 47.9726 10.8399 44.9732 10.8399C43.5358 10.8399 40.3786 10.9048 39.7071 12.492C39.1192 13.8818 38.9696 14.8718 38.9696 16.4158" stroke="#222525" stroke-linecap="round"/>
<path d="M7.37287 19.8675C8.24295 23.7345 8.6589 17.928 7.63839 19.2037C7.15006 19.8141 7.90466 21.1945 8.5677 20.664C8.91219 20.3884 8.74972 19.1575 8.55295 18.8202C8.22132 18.2517 7.7491 18.7906 7.37287 19.0119C6.30382 19.6408 7.76233 22.1508 8.43494 20.133" stroke="#222525" stroke-linecap="round"/>
<path d="M46.9351 19.6019C48.1491 20.4744 48.3598 19.8346 47.5989 18.8201C47.094 18.1468 45.7028 18.5626 45.1945 19.0708C43.9317 20.3336 46.3786 20.978 46.6549 19.7346C47.0513 17.9507 44.2594 19.5609 46.1386 20.6049C47.1901 21.1891 47.1365 18.2357 46.0206 18.5545C44.6313 18.9515 45.4157 20.6998 46.5221 20.3837C47.7142 20.0431 46.7116 17.5157 45.0765 18.3333C43.3794 19.1818 45.2075 20.6783 46.2713 20.9147C47.8422 21.2638 47.7069 19.0584 46.6696 18.5398" stroke="#222525" stroke-linecap="round"/>
<path d="M26.7556 21.4607C25.0317 27.3425 25.3098 33.6166 23.835 39.5158" stroke="#222525" stroke-linecap="round"/>
<path d="M6.96484 10.3932C10.7365 6.62155 15.3513 3.89769 19.6978 1" stroke="#222525" stroke-linecap="round"/>
<path d="M53.3047 15.1942C54.7155 13.7498 55.8421 12.3011 56.8068 10.5324C57.2463 9.72668 57.5795 9.00715 58.1056 8.2595C58.4764 7.73261 58.8807 7.17332 59.1493 6.63599" stroke="#222525" stroke-linecap="round"/>
</svg>
