<?xml version="1.0" encoding="UTF-8"?>
<svg width=".916666667em" height=".875em" viewBox="0 0 22 21" version="1.1" xmlns="http://www.w3.org/2000/svg" xmlns:xlink="http://www.w3.org/1999/xlink">
    <!-- Generator: Sketch 53.2 (72643) - https://sketchapp.com -->
    <title>Fill 263</title>
    <desc>Created with Sketch.</desc>
    <g id="Primary" stroke="none" stroke-width="1" fill="none" fill-rule="evenodd">
        <g id="Desktop-Copy-4" transform="translate(-962.000000, -1120.000000)" fill="#7C3DBE">
            <g id="Fill-263" transform="translate(962.000000, 1120.000000)">
                <path d="M14.5273,11.5 C13.4223,11.5 12.5273,12.396 12.5273,13.5 L12.5273,20.5 L7.5273,20.5 C7.5273,20.5 7.5863,8.5 7.5273,7.5 L12.5273,7.5 L12.5273,8.985 C12.5273,8.985 14.0753,7.542 16.4663,7.542 C19.4273,7.542 21.5273,9.685 21.5273,13.846 L21.5273,20.5 L16.5273,20.5 L16.5273,13.5 C16.5273,12.396 15.6323,11.5 14.5273,11.5 L14.5273,11.5 Z M3.0173,5.5 L2.9883,5.5 C1.4773,5.5 0.5003,4.318 0.5003,3.019 C0.5003,1.69 1.5073,0.607 3.0473,0.607 C4.5883,0.607 5.5353,1.725 5.5653,3.054 C5.5653,4.354 4.5883,5.5 3.0173,5.5 L3.0173,5.5 Z M5.5273,20.5 L0.5273,20.5 L0.5273,7.5 L5.5273,7.5 L5.5273,20.5 Z"></path>
            </g>
        </g>
    </g>
</svg>
