<?xml version="1.0" encoding="UTF-8"?>
<svg width="1.291666667em" height="1.875em" viewBox="0 0 31 45" version="1.1" xmlns="http://www.w3.org/2000/svg" xmlns:xlink="http://www.w3.org/1999/xlink">
    <g id="Primary" stroke="none" stroke-width="1" fill="none" fill-rule="evenodd">
        <g id="Desktop-Copy-8" transform="translate(-265.000000, -323.000000)" fill="#FA1A55">
            <g id="Group-6" transform="translate(265.000000, 231.000000)">
                <g id="Group-1268" transform="translate(0.000000, 92.000000)">
                    <path d="M15.6303005,39.3750225 C12.8121726,39.3750225 10.4038482,37.4287804 9.90664579,34.7456661 C9.84837988,34.4344174 9.95714291,34.1156686 10.1940909,33.9000445 C10.4329812,33.6825454 10.7650969,33.5962957 11.0855594,33.6694204 C11.1923802,33.6919203 11.3089121,33.7050453 11.4332127,33.7050453 C12.7306003,33.7050453 14.5601499,32.4263004 15.5118264,30.8531817 C15.931341,30.1631845 16.5314799,28.8281898 15.8419999,27.6469446 C15.6730288,27.3563207 15.6769132,27.0000722 15.8497687,26.7150733 C16.0245665,26.4263245 16.345029,26.2500752 16.6887979,26.2500752 C17.764775,26.2500752 18.7378157,26.6513236 19.5010992,27.4125705 C21.0412614,28.9463144 21.5209841,31.7081783 21.4568916,33.77817 C21.3578395,36.9150324 18.7980238,39.3750225 15.6303005,39.3750225 M10.2465303,0.065805134 C9.84061109,-0.0898192421 9.37836819,0.0376802467 9.11617159,0.373303901 C8.85591719,0.705177571 8.85591719,1.17017571 9.11617159,1.50392437 C13.9464156,7.65014973 14.2144388,17.3438609 9.91053018,22.9332135 C8.90641431,21.5850939 8.26937368,20.1732245 7.9294892,18.562606 C7.8653967,18.2513572 7.64204404,17.9944833 7.33323471,17.8782337 C7.02636757,17.7619842 6.6806565,17.801359 6.41263331,17.9888583 C0.910389091,21.795093 -1.30759993,28.278817 0.76666651,34.5037921 C2.88754568,40.8806415 8.75686514,45 15.7176993,45 C23.4690077,45 28.7653791,40.6687674 30.2453332,33.1162976 C32.4943974,21.6732185 24.9916902,5.6626577 10.2465303,0.065805134" id="Fill-615"></path>
                </g>
            </g>
        </g>
    </g>
</svg>
