<?xml version="1.0" encoding="UTF-8"?>
<svg width="24px" height="24px" viewBox="0 0 24 24" version="1.1" xmlns="http://www.w3.org/2000/svg" xmlns:xlink="http://www.w3.org/1999/xlink">
    <!-- Generator: Sketch 54.1 (76490) - https://sketchapp.com -->
    <title>newer</title>
    <desc>Created with Sketch.</desc>
    <g id="Primary" stroke="none" stroke-width="1" fill="none" fill-rule="evenodd">
        <g id="Desktop-Copy-8" transform="translate(-787.000000, -3127.000000)" fill="#8539C2">
            <g id="Group-5" transform="translate(571.000000, 3127.000000)">
                <g id="Group" transform="translate(154.000000, 0.000000)">
                    <g id="Group-78" transform="translate(62.000000, 0.000000)">
                        <path d="M8.7568,18.4385 C8.6798,18.4825 8.5938,18.5035 8.5088,18.5035 C8.4218,18.5035 8.3358,18.4815 8.2578,18.4365 C8.1038,18.3465 8.0088,18.1825 8.0088,18.0035 L8.0088,6.0035 C8.0088,5.8255 8.1038,5.6615 8.2578,5.5715 C8.4108,5.4825 8.6028,5.4805 8.7568,5.5695 L19.2568,11.5695 C19.4118,11.6595 19.5088,11.8245 19.5088,12.0035 C19.5088,12.1835 19.4118,12.3485 19.2568,12.4385 L8.7568,18.4385 Z M0.0088,12.0035 C0.0088,18.6215 5.3928,24.0035 12.0088,24.0035 C18.6248,24.0035 24.0088,18.6215 24.0088,12.0035 C24.0088,5.3865 18.6248,0.0035 12.0088,0.0035 C5.3928,0.0035 0.0088,5.3865 0.0088,12.0035 Z" id="newer"></path>
                    </g>
                </g>
            </g>
        </g>
    </g>
</svg>