<?xml version="1.0" encoding="UTF-8"?>
<svg width="24px" height="24px" viewBox="0 0 24 24" version="1.1" xmlns="http://www.w3.org/2000/svg" xmlns:xlink="http://www.w3.org/1999/xlink">
    <!-- Generator: Sketch 54.1 (76490) - https://sketchapp.com -->
    <title>Older</title>
    <desc>Created with Sketch.</desc>
    <g id="Primary" stroke="none" stroke-width="1" fill="none" fill-rule="evenodd">
        <g id="Desktop-Copy-8" transform="translate(-571.000000, -3127.000000)" fill="#8539C2">
            <g id="Group-5" transform="translate(571.000000, 3127.000000)">
                <g id="Group-2">
                    <g id="Group-79">
                        <path d="M16.0088,18.0039 C16.0088,18.1829 15.9138,18.3469 15.7598,18.4369 C15.6818,18.4819 15.5958,18.5039 15.5088,18.5039 C15.4238,18.5039 15.3378,18.4819 15.2608,18.4389 L4.7608,12.4389 C4.6058,12.3489 4.5088,12.1839 4.5088,12.0039 C4.5088,11.8239 4.6058,11.6589 4.7608,11.5689 L15.2608,5.5689 C15.4148,5.4809 15.6058,5.4819 15.7598,5.5709 C15.9138,5.6609 16.0088,5.8249 16.0088,6.0039 L16.0088,18.0039 Z M12.0088,0.0039 C5.3928,0.0039 0.0088,5.3869 0.0088,12.0039 C0.0088,18.6209 5.3928,24.0039 12.0088,24.0039 C18.6248,24.0039 24.0088,18.6209 24.0088,12.0039 C24.0088,5.3869 18.6248,0.0039 12.0088,0.0039 L12.0088,0.0039 Z" id="Older"></path>
                    </g>
                </g>
            </g>
        </g>
    </g>
</svg>