<svg width="250px" height="217px" viewBox="0 0 250 217" version="1.1" class="hero__shapes">
  <polygon fill="#F66868" transform="translate(69.900320, 52.812837) rotate(27.000000) translate(-69.900320, -52.812837) " points="90.609275 14.812837 110.90032 90.812837 28.9003195 76.917875"></polygon>
  <path d="M140.90032,135.812837 C161.88714,135.812837 178.90032,117.115222 178.90032,97.2402536 C178.90032,89.5285662 102.90032,97.2402536 102.90032,97.2402536 C102.90032,118.543303 119.913499,135.812837 140.90032,135.812837 Z" id="Oval" fill="#21A795" transform="translate(140.900320, 114.812837) rotate(-25.000000) translate(-140.900320, -114.812837) "></path>
  <polygon fill="#F7C332" points="37.9003195 174.103929 199.04484 139.812837 207.90032 181.521744 46.7557987 215.812837"></polygon>
  <path d="M39,151.150333 C53.9116882,151.150333 66,138.921937 66,123.837446 C66,108.752954 59.0733107,95.1503335 44.1616225,95.1503335 C29.2499343,95.1503335 12,108.752954 12,123.837446 C12,138.921937 24.0883118,151.150333 39,151.150333 Z" id="Oval" fill="#206B98" transform="translate(39.000000, 123.150333) rotate(-58.000000) translate(-39.000000, -123.150333) "></path>
  <polygon fill="#4FA4D4" transform="translate(156.117301, 37.000000) rotate(27.000000) translate(-156.117301, -37.000000) " points="133.117301 17.5125083 176.657048 10 179.117301 64 133.117301 64"></polygon>
  <polygon fill="#F68061" transform="translate(216.379218, 109.672161) rotate(22.000000) translate(-216.379218, -109.672161) " points="197.962289 91.7159683 242.379218 87.6721612 242.122697 131.672161 190.379218 131.672161"></polygon>
</svg>
