<svg width="1.5em" height="1.5em" viewBox="0 0 24 25" fill="none" xmlns="http://www.w3.org/2000/svg">
<path d="M14.7944 6.80384C11.5224 8.72387 1.93859 12.2461 3.11662 17.5658C3.9701 21.4199 8.30915 23.664 12.0118 23.7539C14.6969 23.8191 19.4951 23.9678 20.907 21.0186C22.5384 17.6107 17.5094 13.6931 14.9084 12.7005C12.3246 11.7144 7.85978 10.3889 5.28339 12.2072C2.96503 13.8434 3.23592 17.3643 4.43949 19.494C5.51161 21.391 8.44248 24.4008 11.0082 23.9557C13.886 23.4565 13.5933 17.6798 13.4715 15.817C13.2627 12.6246 10.7476 5.59954 6.17291 8.5975C2.83215 10.7868 6.05395 15.392 9.02393 11.3777C9.40585 10.8614 10.5358 7.70412 10.4152 7.79035C8.49629 9.16223 8.57027 12.6892 8.72742 14.6511C8.79065 15.4405 9.44051 19.2409 10.8714 19.0456C12.886 18.7705 13.1536 14.0509 13.2662 12.7005C13.3949 11.1578 13.3084 8.06238 11.6012 7.25226C9.1283 6.0787 5.47201 7.89836 3.6412 9.49433C1.6664 11.2158 -0.1337 14.696 1.88498 17.0277C5.06791 20.7041 11.0352 19.9992 15.0681 18.5075C20.4275 16.525 23.7119 11.5693 22.8685 5.81733C22.2493 1.59465 17.2555 0.490597 13.654 1.19866C9.41414 2.03223 6.10391 3.55577 4.25702 7.56615C2.56003 11.251 3.78982 14.8492 6.40099 17.6779C11.8413 23.5715 18.4674 18.4666 19.2648 11.8037C19.5512 9.4101 19.2925 -0.797585 15.1593 4.20304C12.7223 7.1515 10.8174 10.3582 9.73098 14.0233C9.29713 15.4869 8.13772 19.5869 9.48009 20.9065C10.4989 21.908 13.4092 20.3569 14.3838 19.7182" stroke="#222525" stroke-linecap="round"/>
</svg>
