<?xml version="1.0" encoding="UTF-8"?>
<svg width="170px" height="162px" viewBox="0 0 170 162" version="1.1" xmlns="http://www.w3.org/2000/svg" xmlns:xlink="http://www.w3.org/1999/xlink">
    <g id="Page-1" stroke="none" stroke-width="1" fill="none" fill-rule="evenodd">
        <g id="Artboard-Copy-20" transform="translate(-166.000000, -103.000000)" stroke="#000000" stroke-width="3">
            <path d="M278.848356,180.391763 C276.629608,174.786327 274.767548,168.364585 269.234243,164.754993 C267.1629,163.403775 263.904794,163.183707 261.820624,164.515023 C245.41319,174.995682 216.895451,180.025359 214.979858,199.41134 C207.328625,276.842569 272.253485,213.0343 270.363495,206.304679 C247.045711,123.27787 195.111896,219.169738 185.955754,248.434937 C182.836221,258.405704 203.615753,260.469176 213.792597,262.798317 C244.965274,269.932706 270.141756,200.313861 260.463201,179.698946 C260.111683,178.950226 259.281474,177.99054 258.483142,178.204938 L249.035323,177.527602 C239.718293,180.029763 230.768824,183.859727 222.049287,187.989531 C215.854254,190.923663 210.049625,194.676139 204.456929,198.641113 C197.849033,203.325818 175.806855,226.116979 205.249726,217.440072 C221.075595,212.776138 230.988346,204.821285 237.553302,189.529985 C244.395858,173.59209 246.914354,155.634722 256.050609,140.893436 C260.421487,133.841055 253.072091,157.25115 252.430814,165.52522 C251.674496,175.283603 251.334784,185.109634 251.866188,194.882869 C252.130635,199.74641 253.211069,204.593956 254.805338,209.195933 C256.930827,215.331317 259.555739,221.355968 262.953744,226.887932 C265.329132,230.755073 268.530125,234.123073 271.949089,237.10602 C273.347765,238.326323 275.359521,239.880271 277.096469,239.227047 C278.978765,238.519161 279.756441,235.994448 280.151637,234.021241 C281.406548,227.755495 282.042291,221.325736 281.961535,214.935866 C281.607211,186.899713 274.368402,146.984695 249.77011,129.564519 C239.639458,122.390129 230.518243,146.125841 229.404896,149.040813 C219.039743,176.178922 214.768526,217.397649 240.3803,238.553582 C241.533329,239.506011 244.164837,241.902924 244.452569,240.434639 C247.926084,222.709483 247.216637,204.341944 250.562907,186.592285 C254.325,166.636977 262.052419,147.562278 265.7266,127.59057 C266.511062,123.326476 260.941335,134.889335 259.333949,138.915617 C257.463587,143.600618 256.302205,148.564012 255.373831,153.522838 C253.845597,161.685764 252.687859,169.93037 251.97834,178.204938 C250.422844,196.345471 253.031955,215.066428 248.582848,232.720757 C246.563258,240.734617 247.035728,216.114522 244.398427,208.282498 C241.188581,198.750179 236.813869,189.496313 231.214794,181.142638 C228.028433,176.388671 223.562114,172.265221 218.487502,169.624067 C211.788575,166.137515 204.230674,164.314116 196.760997,163.210669 C194.542428,162.882934 192.362812,164.34673 190.426356,165.478774 C189.864971,165.806958 189.267272,166.873195 189.749578,167.309515 L194.614644,177.961097 C200.350275,183.149856 207.345683,187.047805 214.581526,189.773826 C222.105644,192.60845 267.879194,207.55549 280.546102,199.314578 C294.611114,190.164079 299.225351,142.873197 282.019544,138.14539 C255.086246,130.744666 234.344398,180.502132 231.895439,199.844835 C230.48069,211.018996 234.888077,229.443797 247.90607,232.527233 C269.187652,237.567979 272.750505,188.412533 269.458546,174.876318 C268.033223,169.015525 264.828652,153.394464 253.846247,156.561171 C213.135579,168.299833 227.930297,221.507328 257.125719,236.192585 C264.442359,239.872844 279.390288,241.51292 281.791374,230.262997 C283.934956,220.219566 285.235154,209.788928 284.336059,199.558418 C283.697785,192.295721 280.501465,163.451652 268.611607,155.113608 C264.604223,152.303335 259.79456,150.25374 254.921357,149.81104 C211.827457,145.896227 191.090522,227.191049 247.6779,242.795637 C257.321245,245.454894 261.520588,237.013261 262.160947,228.238732 C263.432701,210.812499 266.032451,137.609589 226.972363,154.9704 C199.07269,167.370806 200.535736,211.191808 221.260357,228.238732 C229.269164,234.826333 254.548629,246.139533 255.656144,227.127902 C256.559832,211.615176 256.475458,196.054033 256.332922,180.515619 C256.232489,169.566918 254.298844,157.94588 250.508765,147.690013 C249.512287,144.993568 248.064661,142.241378 245.809993,140.459942 C242.913542,138.171427 239.291959,136.760104 235.685395,135.977917 C225.963539,133.869453 214.920833,153.541466 212.319154,158.631882 C204.718623,173.502997 202.822271,181.290548 207.512098,198.30438 C210.665502,209.744356 233.809627,225.703993 245.52768,221.538918 C247.671694,220.776848 249.186016,218.556986 250.110433,216.47632 C256.499022,202.096966 259.764029,186.322455 267.308326,172.515321 C273.663848,160.883815 282.438666,150.647681 291.409354,140.893436 C294.146234,137.917501 297.937504,135.479037 301.932284,134.867087 C310.081248,133.618769 318.44249,134.786096 326.655948,135.494106 C328.958768,135.692612 335.582159,137.47034 333.272902,137.568688 C269.356115,140.290791 255.993404,137.779739 192.182111,155.256816 C187.217637,156.616521 174.514138,161.060201 169.608667,165.668428 C168.552829,166.660289 167.311698,168.351135 167.910922,169.670512 C173.159194,181.226222 194.315441,176.624693 200.666972,175.936832 C239.616911,171.718613 271.929855,159.935108 310.304994,150.147773 C316.13188,148.661662 298.605905,153.162179 293.1071,155.597419 C285.198413,159.099917 277.490623,163.15078 270.251343,167.886218 C261.20634,173.802835 252.545617,180.355249 244.398427,187.459274 C238.731918,192.400244 233.560409,197.955276 228.952422,203.897235 C226.4489,207.125505 224.600392,210.889149 223.240416,214.742342 C222.135725,217.872241 221.393031,221.264306 221.654822,224.57338 C221.953556,228.349411 222.64757,232.410183 224.880152,235.468803 C233.757788,247.631096 245.514549,242.921486 249.715968,229.829503 C257.025353,207.052829 274.275378,121.108021 246.150315,105.462992 C245.437692,105.066584 244.122722,105.475551 243.829934,106.23709 L236.760505,118.769729 C233.757956,126.579321 231.230229,134.636512 229.745219,142.871256 C223.203949,179.144182 243.014131,211.910862 262.44326,240.628163 C263.07318,241.559219 264.776788,243.774559 265.103964,242.698874 C274.646558,211.324826 272.741164,165.29559 261.990786,134.290384 C258.972258,125.584638 244.272598,102.610287 233.310871,107.394365 C193.492733,124.772386 204.757318,186.662794 232.235761,209.389457 C235.963022,212.472172 261.220652,232.191325 273.758987,225.924181 C281.945951,221.83202 286.399859,207.191235 287.561389,199.028162 C291.919868,168.39737 298.787045,117.995631 252.655118,117.995631 C245.760405,117.995631 238.722513,118.176821 232.0656,119.97345 C224.908783,121.904999 217.55219,124.411813 211.754528,129.034262 C203.732271,135.430372 196.166405,143.097425 191.559475,152.2688 C188.449546,158.459979 194.957712,169.647905 200.384659,172.515321 C218.657194,182.169913 252.535803,198.533264 275.510875,189.963479 C301.351151,180.324963 278.851482,161.382782 262.160947,160.029128 C232.56854,157.629091 198.812446,159.396104 171.248403,171.358045 C169.156424,172.265899 167.910922,175.05202 167.910922,177.334078 C167.910922,197.579315 204.211768,201.871833 217.470401,204.377176 C259.244478,212.270778 305.945642,215.924118 323.883092,168.803523 C325.206833,165.326137 325.651273,161.259015 324.675889,157.66813 C322.060351,148.038997 295.645181,146.014676 295.427482,146.00248 C270.783439,144.621905 248.389731,151.584857 227.084515,163.021015 C221.008854,166.282292 201.880948,179.688002 210.567266,189.433223 C226.179298,206.948435 244.735317,214.355816 267.138165,218.307061 C270.326712,218.869433 289.763961,220.814122 291.637525,213.585066 C299.505744,183.225923 230.548185,172.547597 213.282113,173.045578 C206.232759,173.248892 226.400837,178.365647 233.252862,180.035679 C249.849179,184.080669 266.670484,187.170217 283.489119,190.157004 C288.941191,191.125226 294.510551,192.535309 300.010235,191.890982 C303.888558,191.436609 309.328502,190.654563 310.645316,186.975463 C313.966439,177.696447 288.029641,151.764409 281.168738,147.210072 C277.319727,144.65506 269.599084,145.976514 268.553598,141.47401 C267.607005,137.397406 273.866442,134.229656 277.889266,133.086663 C279.678294,132.578351 278.804692,136.783332 278.566043,138.629201 C277.192343,149.254309 275.538764,159.870671 273.078341,170.297531 C269.930971,183.635563 273.70878,203.11685 261.766482,209.822952 C253.162447,214.654479 256.642158,190.719972 253.165602,181.47937 C250.345127,173.982617 246.87604,166.70927 242.924985,159.742712 C242.412764,158.839556 240.782405,157.657785 240.097987,158.438357 C230.784951,169.05978 226.911388,183.935467 235.00475,196.326561 C236.549947,198.692288 238.362725,200.930328 240.492452,202.786405 C243.38258,205.30518 246.349798,208.002083 249.940271,209.343011 C270.304859,216.948543 271.485549,194.286795 269.346395,180.612381 C268.531655,175.404204 270.539634,165.194837 265.274125,165.331696 L261.031695,161.863739 C239.006988,162.436195 233.800836,200.233151 253.223611,208.665676 C256.199519,209.957686 259.427589,211.835345 262.613421,211.224068 C281.425064,207.614614 280.813641,177.18069 262.102937,177.624365 C246.190622,178.001683 241.95815,194.09112 257.071577,199.604864" id="Path-23"></path>
        </g>
    </g>
</svg>
