<svg width="1.1875em" height="1.25em" viewBox="0 0 19 20" fill="none" xmlns="http://www.w3.org/2000/svg">
<path d="M14.8859 2.49707C14.2797 3.01257 13.7115 3.56606 13.1249 4.10312C12.2718 4.88419 11.3576 5.58692 10.4664 6.32291C8.4878 7.95681 6.70992 9.78596 5.09469 11.7777C4.05947 13.0543 3.06753 14.3634 2.00305 15.6151C1.81006 15.842 1.57897 16.0349 1.39504 16.2689C1.34766 16.3293 1.45247 15.6749 1.46387 15.6093" stroke="#222525" stroke-linecap="round"/>
<path d="M4.40723 1C4.78535 1.91031 5.11051 2.66363 5.76663 3.3976C6.40896 4.11614 7.0579 4.83893 7.64227 5.60592C9.27968 7.75502 10.5617 10.2116 11.448 12.7586C11.7736 13.6941 12.084 14.6273 12.644 15.4544C12.9126 15.8513 13.2495 16.1755 13.576 16.5213C13.6819 16.6334 13.7178 16.7006 13.5445 16.6418C13.296 16.5574 13.1865 16.4222 13.0283 16.2288" stroke="#222525" stroke-linecap="round"/>
<path d="M9.62031 1.41309C9.45132 1.94384 9.28564 2.4591 9.23027 3.01627C9.18905 3.4311 9.21184 3.84858 9.17291 4.26382C9.06746 5.38863 8.87245 6.54254 8.5477 7.62506C8.22893 8.68761 7.70934 9.68035 7.4206 10.7511C7.13203 11.8212 7.20132 12.924 7.19403 14.0206C7.18595 15.2366 6.7638 16.3096 6.41395 17.4564C6.30737 17.8057 6.28549 18.1966 6.1587 18.5347C6.02857 18.8817 5.96103 18.1895 5.95508 18.1389" stroke="#222525" stroke-linecap="round"/>
<path d="M1 8.07243C3.39084 7.95368 5.69756 8.18452 8.07522 8.42806C9.43999 8.56784 10.8042 8.64539 12.1764 8.62881C13.4898 8.61294 14.7963 8.48734 16.1083 8.44526C16.634 8.42841 17.1599 8.43628 17.6857 8.43379C17.9174 8.43269 18.1848 8.45186 18.4113 8.38217C18.4811 8.36069 18.1748 8.21556 18.397 8.38217" stroke="#222525" stroke-linecap="round"/>
</svg>
