<?xml version="1.0" encoding="UTF-8"?>
<svg width="1em" height="1em" viewBox="0 0 24 24" version="1.1" xmlns="http://www.w3.org/2000/svg" xmlns:xlink="http://www.w3.org/1999/xlink">
    <!-- Generator: Sketch 53.2 (72643) - https://sketchapp.com -->
    <title>Fill 2404</title>
    <desc>Created with Sketch.</desc>
    <g id="Primary" stroke="none" stroke-width="1" fill="none" fill-rule="evenodd">
        <g id="Desktop-Copy-4" transform="translate(-106.000000, -916.000000)" fill="#0075FF">
            <g id="Group-1288" transform="translate(106.000000, 916.000000)">
                <path d="M17.3202508,10.88525 L14.5762508,13.15525 L15.9512508,16.82325 C16.0282508,17.03025 15.9622508,17.26225 15.7882508,17.39625 C15.6132508,17.53125 15.3732508,17.53225 15.1932508,17.40625 L12.0002508,15.11825 L8.80625078,17.40625 C8.62725078,17.53225 8.38625078,17.53125 8.21225078,17.39625 C8.03825078,17.26225 7.97125078,17.03025 8.04925078,16.82325 L9.42425078,13.15525 L6.67925078,10.88525 C6.51825078,10.75025 6.45825078,10.53025 6.53025078,10.33125 C6.60125078,10.13325 6.78925078,10.00325 7.00025078,10.00325 L10.1712508,10.00325 L11.5402508,6.80325 C11.6192508,6.62025 11.8002508,6.49925 12.0002508,6.49925 C12.1992508,6.49925 12.3812508,6.62025 12.4602508,6.80325 L13.8292508,10.00325 L17.0002508,10.00325 C17.2112508,10.00325 17.3982508,10.13325 17.4692508,10.33125 C17.5422508,10.53025 17.4812508,10.75025 17.3202508,10.88525 M23.8192508,11.60625 L21.9142508,10.01825 L23.0662508,7.82225 C23.2122508,7.54625 23.0702508,7.20525 22.7732508,7.11225 L20.4042508,6.37425 L20.6292508,3.90425 C20.6572508,3.59925 20.4042508,3.33725 20.0862508,3.36125 L17.6152508,3.58525 L16.8772508,1.21725 C16.7832508,0.91425 16.4382508,0.78025 16.1682508,0.92425 L13.9712508,2.07525 L12.3832508,0.17025 C12.1932508,-0.05675 11.8052508,-0.05675 11.6152508,0.17025 L10.0272508,2.07525 L7.83125078,0.92425 C7.55325078,0.77725 7.21325078,0.92125 7.12125078,1.21725 L6.38325078,3.58525 L3.91325078,3.36125 C3.59625078,3.33725 3.34225078,3.59625 3.36925078,3.90425 L3.59325078,6.37425 L1.22625078,7.11225 C0.927250785,7.20525 0.788250785,7.54625 0.931250785,7.82225 L2.08525078,10.01825 L0.179250785,11.60625 C-0.0607492155,11.80625 -0.0587492155,12.17725 0.179250785,12.37425 L2.08525078,13.96225 L0.931250785,16.15925 C0.787250785,16.43625 0.928250785,16.77725 1.22625078,16.86825 L3.59325078,17.60725 L3.36925078,20.07725 C3.34225078,20.38425 3.59425078,20.64725 3.91325078,20.62025 L6.38325078,20.39525 L7.12125078,22.76425 C7.21225078,23.05625 7.54925078,23.20425 7.83125078,23.05825 L10.0272508,21.90525 L11.6152508,23.81125 C11.8172508,24.05225 12.1852508,24.04925 12.3832508,23.81125 L13.9712508,21.90525 L16.1682508,23.05825 C16.4422508,23.20125 16.7842508,23.06425 16.8772508,22.76425 L17.6152508,20.39525 L20.0862508,20.62025 C20.4072508,20.64725 20.6572508,20.38125 20.6292508,20.07725 L20.4042508,17.60725 L22.7732508,16.86825 C23.0712508,16.77525 23.2112508,16.43425 23.0662508,16.15925 L21.9142508,13.96225 L23.8192508,12.37425 C24.0592508,12.17625 24.0602508,11.80725 23.8192508,11.60625" id="Fill-2404"></path>
            </g>
        </g>
    </g>
</svg>
