<?xml version="1.0" encoding="UTF-8"?>
<svg width="1.666666667em" height="1.791666667em" viewBox="0 0 40 43" version="1.1" xmlns="http://www.w3.org/2000/svg" xmlns:xlink="http://www.w3.org/1999/xlink">
  <g id="Desktop-Copy-4" transform="translate(-84.000000, -251.000000)" fill="#FFD230">
    <path d="M120.537063,259.329443 C120.537063,258.043776 119.513063,256.99611 118.251349,256.99611 C116.989634,256.99611 115.965634,258.043776 115.965634,259.329443 L115.965634,269.829443 C115.965634,270.473443 115.453634,270.99611 114.822777,270.99611 C114.19192,270.99611 113.67992,270.473443 113.67992,269.829443 L113.67992,254.662776 C113.67992,253.37711 112.65592,252.329443 111.394206,252.329443 C110.132492,252.329443 109.108492,253.37711 109.108492,254.662776 L109.108492,267.49611 C109.108492,268.14011 108.596492,268.662776 107.965634,268.662776 C107.334777,268.662776 106.822777,268.14011 106.822777,267.49611 L106.822777,252.329443 C106.822777,251.043776 105.798777,249.99611 104.537063,249.99611 C103.275349,249.99611 102.251349,251.043776 102.251349,252.329443 L102.251349,267.49611 C102.251349,268.14011 101.739349,268.662776 101.108492,268.662776 C100.477634,268.662776 99.9656345,268.14011 99.9656345,267.49611 L99.9656345,254.662776 C99.9656345,253.37711 98.9416345,252.329443 97.6799202,252.329443 C96.4182059,252.329443 95.3942059,253.37711 95.3942059,254.662776 L95.3942059,276.829443 C95.3942059,277.473443 94.8822059,277.99611 94.2513488,277.99611 C93.6204916,277.99611 93.1084916,277.473443 93.1084916,276.829443 L93.1084916,267.49611 L90.8227773,267.49611 C89.561063,267.49611 88.537063,268.543776 88.537063,269.829443 L88.537063,279.162776 C88.537063,283.388443 95.0604916,291.99611 102.628492,291.99611 L110.251349,291.99611 C115.924492,291.99611 120.537063,287.287443 120.537063,281.49611 L120.537063,259.329443 Z" id="Fill-1605" transform="translate(104.537063, 270.996110) scale(1, -1) rotate(-142.000000) translate(-104.537063, -270.996110) "></path>
  </g>
</svg>
