<?xml version="1.0" encoding="UTF-8"?>
<svg width="21px" height="22px" viewBox="0 0 21 22" version="1.1" xmlns="http://www.w3.org/2000/svg" xmlns:xlink="http://www.w3.org/1999/xlink">
    <!-- Generator: Sketch 53 (72520) - https://sketchapp.com -->
    <title>Fill 1605</title>
    <desc>Created with Sketch.</desc>
    <g id="Page-1" stroke="none" stroke-width="1" fill="none" fill-rule="evenodd">
        <g id="Desktop-Copy" transform="translate(-221.000000, -107.000000)" fill="#FFCE48">
            <path d="M240.333333,111.666667 C240.333333,111.023833 239.810667,110.5 239.166667,110.5 C238.522667,110.5 238,111.023833 238,111.666667 L238,116.916667 C238,117.238667 237.738667,117.5 237.416667,117.5 C237.094667,117.5 236.833333,117.238667 236.833333,116.916667 L236.833333,109.333333 C236.833333,108.6905 236.310667,108.166667 235.666667,108.166667 C235.022667,108.166667 234.5,108.6905 234.5,109.333333 L234.5,115.75 C234.5,116.072 234.238667,116.333333 233.916667,116.333333 C233.594667,116.333333 233.333333,116.072 233.333333,115.75 L233.333333,108.166667 C233.333333,107.523833 232.810667,107 232.166667,107 C231.522667,107 231,107.523833 231,108.166667 L231,115.75 C231,116.072 230.738667,116.333333 230.416667,116.333333 C230.094667,116.333333 229.833333,116.072 229.833333,115.75 L229.833333,109.333333 C229.833333,108.6905 229.310667,108.166667 228.666667,108.166667 C228.022667,108.166667 227.5,108.6905 227.5,109.333333 L227.5,120.416667 C227.5,120.738667 227.238667,121 226.916667,121 C226.594667,121 226.333333,120.738667 226.333333,120.416667 L226.333333,115.75 L225.166667,115.75 C224.522667,115.75 224,116.273833 224,116.916667 L224,121.583333 C224,123.696167 227.329667,128 231.1925,128 L235.083333,128 C237.979,128 240.333333,125.645667 240.333333,122.75 L240.333333,111.666667 Z" id="Fill-1605" transform="translate(232.166667, 117.500000) scale(1, -1) rotate(-142.000000) translate(-232.166667, -117.500000) "></path>
        </g>
    </g>
</svg>