<svg width="18px" height="19px" viewBox="0 0 18 19" version="1.1" xmlns="http://www.w3.org/2000/svg" xmlns:xlink="http://www.w3.org/1999/xlink">
  <g transform="translate(-222.000000, -107.000000)" fill="#FFCE48">
    <path d="M238,111 C238,110.449 237.552,110 237,110 C236.448,110 236,110.449 236,111 L236,115.5 C236,115.776 235.776,116 235.5,116 C235.224,116 235,115.776 235,115.5 L235,109 C235,108.449 234.552,108 234,108 C233.448,108 233,108.449 233,109 L233,114.5 C233,114.776 232.776,115 232.5,115 C232.224,115 232,114.776 232,114.5 L232,108 C232,107.449 231.552,107 231,107 C230.448,107 230,107.449 230,108 L230,114.5 C230,114.776 229.776,115 229.5,115 C229.224,115 229,114.776 229,114.5 L229,109 C229,108.449 228.552,108 228,108 C227.448,108 227,108.449 227,109 L227,118.5 C227,118.776 226.776,119 226.5,119 C226.224,119 226,118.776 226,118.5 L226,114.5 L225,114.5 C224.448,114.5 224,114.949 224,115.5 L224,119.5 C224,121.311 226.854,125 230.165,125 L233.5,125 C235.982,125 238,122.982 238,120.5 L238,111 Z" id="Fill-1605" transform="translate(231.000000, 116.000000) scale(1, -1) rotate(-142.000000) translate(-231.000000, -116.000000) "></path>
  </g>
</svg>
