<svg width="279px" height="179px" viewBox="0 0 279 179" version="1.1" class="hero__shapes">
  <polygon fill="#8EBFBE" transform="translate(179.500000, 69.000000) rotate(77.000000) translate(-179.500000, -69.000000) " points="154.5 48.0689904 201.825812 40 204.5 98 154.5 98"></polygon>
  <path d="M254,125.5 C267.254834,125.5 278,114.581789 278,101.113493 C278,87.6451971 271.842943,75.5 258.588109,75.5 C245.333275,75.5 230,87.6451971 230,101.113493 C230,114.581789 240.745166,125.5 254,125.5 Z" id="Oval" fill="#F68061"></path>
  <path d="M31.5,178 C48.6208272,178 62.5,164.243054 62.5,147.273001 C62.5,130.302948 54.5471346,115 37.4263073,115 C20.3054801,115 0.5,130.302948 0.5,147.273001 C0.5,164.243054 14.3791728,178 31.5,178 Z" id="Oval" fill="#F6B3B3"></path>
  <polygon fill="#F66868" transform="translate(109.000000, 75.500000) rotate(-103.000000) translate(-109.000000, -75.500000) " points="125.415635 45 141.5 106 76.5 94.8474647"></polygon>
  <path d="M63,117 C79.8446849,117 93.5,101.863836 93.5,85.7745753 C93.5,79.5317808 32.5,85.7745753 32.5,85.7745753 C32.5,103.019901 46.1553151,117 63,117 Z" id="Oval" fill="#21A795" transform="translate(63.000000, 100.000000) rotate(39.000000) translate(-63.000000, -100.000000) "></path>
  <polygon fill="#F7C332" points="72.5 129.779107 211.842615 100 219.5 136.220893 80.157385 166"></polygon>
  <path d="M168.5,39 C177.336556,39 184.5,31.7939807 184.5,22.9049054 C184.5,14.0158301 180.395295,6 171.558739,6 C162.722183,6 152.5,14.0158301 152.5,22.9049054 C152.5,31.7939807 159.663444,39 168.5,39 Z" id="Oval" fill="#47B654" transform="translate(168.500000, 22.500000) rotate(-58.000000) translate(-168.500000, -22.500000) "></path>
</svg>
