<svg width="278px" height="186px" viewBox="0 0 278 186" version="1.1" class="hero__shapes">
  <polygon fill="#8EBFBE" transform="translate(81.500000, 108.000000) rotate(77.000000) translate(-81.500000, -108.000000) " points="56.5 87.0689904 103.825812 79 106.5 137 56.5 137"></polygon>
  <path d="M24,184.5 C37.254834,184.5 48,173.581789 48,160.113493 C48,146.645197 41.8429429,134.5 28.5881089,134.5 C15.3332749,134.5 0,146.645197 0,160.113493 C0,173.581789 10.745166,184.5 24,184.5 Z" id="Oval" fill="#F68061"></path>
  <path d="M245.5,113 C262.620827,113 276.5,99.243054 276.5,82.2730012 C276.5,65.3029484 268.547135,50 251.426307,50 C234.30548,50 214.5,65.3029484 214.5,82.2730012 C214.5,99.243054 228.379173,113 245.5,113 Z" id="Oval" fill="#F6B3B3"></path>
  <polygon fill="#F66868" transform="translate(110.000000, 42.500000) rotate(27.000000) translate(-110.000000, -42.500000) " points="126.415635 12 142.5 73 77.5 61.8474647"></polygon>
  <path d="M170,107 C186.844685,107 200.5,91.8638356 200.5,75.7745753 C200.5,69.5317808 139.5,75.7745753 139.5,75.7745753 C139.5,93.0199012 153.155315,107 170,107 Z" id="Oval" fill="#21A795" transform="translate(170.000000, 90.000000) rotate(-25.000000) translate(-170.000000, -90.000000) "></path>
  <polygon fill="#F7C332" points="82.5 147.779107 221.842615 118 229.5 154.220893 90.157385 184"></polygon>
  <path d="M178.5,54 C187.336556,54 194.5,46.7939807 194.5,37.9049054 C194.5,29.0158301 190.395295,21 181.558739,21 C172.722183,21 162.5,29.0158301 162.5,37.9049054 C162.5,46.7939807 169.663444,54 178.5,54 Z" id="Oval" fill="#47B654" transform="translate(178.500000, 37.500000) rotate(-58.000000) translate(-178.500000, -37.500000) "></path>
</svg>
