<svg width="268px" height="164px" viewBox="0 0 268 164" version="1.1" class="hero__shapes">
  <polygon fill="#8EBFBE" transform="translate(164.500000, 82.000000) rotate(77.000000) translate(-164.500000, -82.000000) " points="139.5 61.0689904 186.825812 53 189.5 111 139.5 111"></polygon>
  <path d="M97,136.5 C110.254834,136.5 121,125.581789 121,112.113493 C121,98.6451971 114.842943,86.5 101.588109,86.5 C88.3332749,86.5 73,98.6451971 73,112.113493 C73,125.581789 83.745166,136.5 97,136.5 Z" id="Oval" fill="#F68061"></path>
  <path d="M235.5,100 C252.620827,100 266.5,86.243054 266.5,69.2730012 C266.5,52.3029484 258.547135,37 241.426307,37 C224.30548,37 204.5,52.3029484 204.5,69.2730012 C204.5,86.243054 218.379173,100 235.5,100 Z" id="Oval" fill="#F6B3B3"></path>
  <polygon fill="#F66868" transform="translate(40.000000, 99.500000) rotate(-70.000000) translate(-40.000000, -99.500000) " points="56.4156354 69 72.5 130 7.5 118.847465"></polygon>
  <path d="M187,151 C203.844685,151 217.5,135.863836 217.5,119.774575 C217.5,113.531781 156.5,119.774575 156.5,119.774575 C156.5,137.019901 170.155315,151 187,151 Z" id="Oval" fill="#21A795" transform="translate(187.000000, 134.000000) rotate(-25.000000) translate(-187.000000, -134.000000) "></path>
  <polygon fill="#F7C332" points="17.5 29.7791067 156.842615 -1.83186799e-15 164.5 36.2208933 25.157385 66"></polygon>
  <path d="M192.5,39 C201.336556,39 208.5,31.7939807 208.5,22.9049054 C208.5,14.0158301 204.395295,6 195.558739,6 C186.722183,6 176.5,14.0158301 176.5,22.9049054 C176.5,31.7939807 183.663444,39 192.5,39 Z" id="Oval" fill="#47B654" transform="translate(192.500000, 22.500000) rotate(-58.000000) translate(-192.500000, -22.500000) "></path>
</svg>
