<svg width="228px" height="202px" viewBox="0 0 228 202" version="1.1" class="hero__shapes">
  <polygon fill="#8EBFBE" transform="translate(85.500000, 51.000000) rotate(77.000000) translate(-85.500000, -51.000000) " points="60.5 30.0689904 107.825812 22 110.5 80 60.5 80"></polygon>
  <path d="M143,50.5 C156.254834,50.5 167,39.5817889 167,26.113493 C167,12.6451971 160.842943,0.5 147.588109,0.5 C134.333275,0.5 119,12.6451971 119,26.113493 C119,39.5817889 129.745166,50.5 143,50.5 Z" id="Oval" fill="#F68061"></path>
  <path d="M31.5,145 C48.6208272,145 62.5,131.243054 62.5,114.273001 C62.5,97.3029484 54.5471346,82 37.4263073,82 C20.3054801,82 0.5,97.3029484 0.5,114.273001 C0.5,131.243054 14.3791728,145 31.5,145 Z" id="Oval" fill="#F6B3B3"></path>
  <polygon fill="#F66868" transform="translate(163.000000, 84.500000) rotate(-79.000000) translate(-163.000000, -84.500000) " points="179.415635 54 195.5 115 130.5 103.847465"></polygon>
  <path d="M116,110 C132.844685,110 146.5,94.8638356 146.5,78.7745753 C146.5,72.5317808 85.5,78.7745753 85.5,78.7745753 C85.5,96.0199012 99.1553151,110 116,110 Z" id="Oval" fill="#21A795" transform="translate(116.000000, 93.000000) rotate(194.000000) translate(-116.000000, -93.000000) "></path>
  <polygon fill="#F7C332" transform="translate(135.000000, 141.000000) rotate(23.000000) translate(-135.000000, -141.000000) " points="61.5 137.779107 200.842615 108 208.5 144.220893 69.157385 174"></polygon>
  <path d="M204.5,121 C213.336556,121 220.5,113.793981 220.5,104.904905 C220.5,96.0158301 216.395295,88 207.558739,88 C198.722183,88 188.5,96.0158301 188.5,104.904905 C188.5,113.793981 195.663444,121 204.5,121 Z" id="Oval" fill="#47B654" transform="translate(204.500000, 104.500000) rotate(-58.000000) translate(-204.500000, -104.500000) "></path>
</svg>
