<?xml version="1.0" encoding="utf-8"?>
<!-- Generator: Adobe Illustrator 16.1.0, SVG Export Plug-In . SVG Version: 6.00 Build 0)  -->
<!DOCTYPE svg PUBLIC "-//W3C//DTD SVG 1.1//EN" "http://www.w3.org/Graphics/SVG/1.1/DTD/svg11.dtd">
<svg version="1.1" id="Layer_1" xmlns="http://www.w3.org/2000/svg" xmlns:xlink="http://www.w3.org/1999/xlink" x="0px" y="0px"
	 width="791.175px" height="791.187px" viewBox="0 0 791.175 791.187" enable-background="new 0 0 791.175 791.187"
	 xml:space="preserve">
<g>
	<path fill="#FFFFFF" d="M388.936,406.872c10.573-4.448,21.955-7.257,32.904-12.165c-5.069-9.521-9.925-20.499-14.347-29.318
		c-1.565-3.236-2.699-7.203-5.665-9.306c-70.45,20.393-148.506,33.175-239.619,32.907c-1.835,73.576,24.869,124.853,60.093,163.771
		C262.922,489.892,316.973,437.082,388.936,406.872z"/>
	<path fill="#FFFFFF" d="M436.838,434.735c-81.132,29.236-144.84,75.923-184.489,146.618c26.65,20.958,62.846,39.056,105.138,46.498
		c46.553,8.2,95.373-0.486,130.165-15.724c-10.464-60.01-27.35-117.03-46.499-167.361
		C439.914,441.53,440.075,437.054,436.838,434.735z"/>
	<path fill="#FFFFFF" d="M295.99,184.434c-65.219,32.528-110.963,84.584-129.465,163.802
		c81.077-0.945,153.037-10.977,216.691-29.321C355.651,272.526,327.978,226.35,295.99,184.434z"/>
	<path fill="#FFFFFF" d="M396.002,0C177.259,0,0,177.314,0,396.002c0,218.691,177.259,396.005,396.002,396.005
		c199.377,0,364.285-147.379,391.85-339.146c2.696-13.111,3.939-26.595,3.724-40.459c0.216-5.45,0.432-10.896,0.432-16.399
		C792.007,177.314,614.689,0,396.002,0z M598.455,582.053c-21.848,23.927-47.796,43.155-78.652,58.667
		c-30.692,15.454-65.703,27.321-107.241,29.318c-87.55,4.261-156.112-29.4-201.696-71.477
		c-46.985-43.368-82.478-101.47-88.684-185.243c-3.289-44.556,5.449-83.937,18.612-117.327
		c13.648-34.686,29.832-60.661,52.163-85.071c31.288-34.145,73.795-63.87,127.308-78.676c19.204-5.315,39.216-8.713,59.393-10.008
		c89.547-5.771,155.736,30.291,202.344,72.233c46.498,41.751,83.074,102.436,87.982,185.945
		C675.217,468.286,641.446,535.178,598.455,582.053z"/>
	<path fill="#FFFFFF" d="M481.936,423.296c18.07,52.517,34.685,106.437,45.042,166.661c12.947-7.254,24.438-17.289,35.062-27.914
		c32.367-32.366,56.266-74.363,65.761-128.712C587.502,421.57,531.023,415.528,481.936,423.296z"/>
	<path fill="#FFFFFF" d="M429.718,305.324c48.981-19.906,92.568-45.207,121.537-85.125c-38.463-32.366-93.917-61.63-164.476-57.938
		c-17.102,0.894-29.723,2.158-45.043,5.72c26.325,38.651,54.375,78.731,77.248,119.461
		C422.327,293.347,424.593,300.307,429.718,305.324z"/>
	<path fill="#FFFFFF" d="M446.87,341.033c5.504,10.734,11.06,22.708,15.752,33.634c1.674,3.966,2.373,8.658,5.72,11.463
		c54.375-6.096,114.793-1.565,162.315,7.875c-1.833-64.22-23.14-108.94-52.917-145.215
		C543.754,289.138,498.711,318.514,446.87,341.033z"/>
</g>
</svg>
