<?xml version="1.0" encoding="utf-8"?>
<!-- Generator: Adobe Illustrator 16.1.0, SVG Export Plug-In . SVG Version: 6.00 Build 0)  -->
<!DOCTYPE svg PUBLIC "-//W3C//DTD SVG 1.1//EN" "http://www.w3.org/Graphics/SVG/1.1/DTD/svg11.dtd">
<svg version="1.1" id="Layer_1" xmlns="http://www.w3.org/2000/svg" xmlns:xlink="http://www.w3.org/1999/xlink" x="0px" y="0px"
	 width="791.175px" height="791.188px" viewBox="0 0 791.175 791.188" enable-background="new 0 0 791.175 791.188"
	 xml:space="preserve">
<path fill="#FFFFFF" d="M395.149,1.19C177.091,1.19,0.316,177.936,0.316,395.967c0,218.1,176.774,394.846,394.833,394.846
	c218.072,0,394.819-176.746,394.819-394.846C789.968,177.936,613.221,1.19,395.149,1.19 M579.054,250.923L390.141,400.784
	L201.21,250.923H579.054z M176.325,270.908l133.135,105.621L176.325,509.65V270.908z M194.01,535.439l139.678-139.691l55.164,43.761
	l1.013,1.206l0.275-0.164l0.109,0.055l0.438-0.547l58.654-46.5l141.868,141.881H194.01z M612.181,512.88L473.598,374.285
	l138.583-109.892V512.88z"/>
</svg>
