<?xml version="1.0" encoding="utf-8"?>
<!-- Generator: Adobe Illustrator 16.1.0, SVG Export Plug-In . SVG Version: 6.00 Build 0)  -->
<!DOCTYPE svg PUBLIC "-//W3C//DTD SVG 1.1//EN" "http://www.w3.org/Graphics/SVG/1.1/DTD/svg11.dtd">
<svg version="1.1" id="Layer_1" xmlns="http://www.w3.org/2000/svg" xmlns:xlink="http://www.w3.org/1999/xlink" x="0px" y="0px"
	 width="791.175px" height="791.188px" viewBox="0 0 791.175 791.188" enable-background="new 0 0 791.175 791.188"
	 xml:space="preserve">
<g>
	<polygon fill="#FFFFFF" points="436.49,248.083 352.724,248.083 352.724,352.75 248.138,352.75 248.138,436.487 352.724,436.487 
		352.724,541.128 436.49,541.128 436.49,436.487 541.128,436.487 541.128,352.75 436.49,352.75 	"/>
	<path fill="#FFFFFF" d="M394.633,0C176.684,0,0,176.668,0,394.619c0,217.95,176.684,394.605,394.633,394.605
		c217.95,0,394.633-176.655,394.633-394.605C789.266,176.668,612.583,0,394.633,0z M394.633,641.245
		c-136.272,0-246.639-110.421-246.639-246.639c0-136.219,110.367-246.64,246.639-246.64c136.166,0,246.639,110.421,246.639,246.64
		C641.272,530.824,530.799,641.245,394.633,641.245z"/>
</g>
</svg>
