<?xml version="1.0" encoding="utf-8"?>
<!-- Generator: Adobe Illustrator 16.1.0, SVG Export Plug-In . SVG Version: 6.00 Build 0)  -->
<!DOCTYPE svg PUBLIC "-//W3C//DTD SVG 1.1//EN" "http://www.w3.org/Graphics/SVG/1.1/DTD/svg11.dtd">
<svg version="1.1" id="Layer_1" xmlns="http://www.w3.org/2000/svg" xmlns:xlink="http://www.w3.org/1999/xlink" x="0px" y="0px"
	 width="791.175px" height="791.187px" viewBox="0 0 791.175 791.187" enable-background="new 0 0 791.175 791.187"
	 xml:space="preserve">
<path fill="#FFFFFF" d="M395.59,0C177.128,0,0,177.142,0,395.601c0,218.462,177.128,395.585,395.59,395.585
	c199.166,0,363.901-147.247,391.488-338.812c2.641-13.069,3.879-26.539,3.666-40.415c0.268-5.446,0.431-10.888,0.431-16.358
	C791.175,177.142,614.047,0,395.59,0z M677.04,424.833c0.97,0.325,1.513,1.35,1.242,2.321c-0.272,0.752-0.972,1.291-1.724,1.291
	c-0.218,0-0.381,0-0.594-0.056c-48.016-14.709-107.346-16.701-127.121-17.4c-15.303,33.623-44.889,48.493-91.447,55.445l0,0
	c-5.71,0.861-11.693,1.618-17.893,2.267c18.484,11.64,23.768,26.244,23.768,65.636c0,39.388-0.543,44.722-0.433,53.776
	c0.215,14.876,22.038,22.04,21.231,26.78c-0.862,4.793-18.267,4.041-26.404,1.188c-23.118-8.083-20.8-27.269-20.8-27.269
	l-0.754-52.699c0,0,1.561-28.402-9.001-28.402v86.33c0,18.751,13.258,24.467,13.258,31.362c0,11.961-24.087-1.13-31.417-8.57
	c-11.26-11.314-9.971-35.294-9.753-54.207c0.272-18.324-0.163-58.416-0.163-58.416l-7.597,0.163c0,0,3.126,87.513-4.043,103.467
	c-9.265,20.475-37.233,27.532-37.233,18.157c0-6.253,6.845-4.262,10.67-18.32c3.287-11.965,2.152-101.145,2.152-101.145
	s-8.942,5.277-8.942,21.982c0,7.651-0.218,51.357-0.218,64.339c0,16.38-23.227,25.654-34.377,25.654
	c-5.662,0-12.72-0.272-12.72-3.289c0-7.542,21.231-11.966,21.231-27.694c0-13.689-0.271-48.772-0.271-48.772
	s-10.725,1.829-25.973,1.829c-38.528,0-50.76-24.568-56.529-38.31c-7.542-17.892-17.35-26.354-27.7-33.091
	c-6.409-4.092-7.865-8.94-0.481-10.397c34.111-6.356,42.84,38.69,65.581,45.911c16.272,5.118,37.127,2.911,47.532-3.824
	c1.341-13.792,11.312-25.705,19.558-31.953c-0.484-0.053-1.025-0.108-1.563-0.163c-56.958-5.765-90.855-25.865-108.478-57.874
	c-60.568,1.451-94.945,10.074-120.165,16.383c-1.776,0.426-3.612,0.916-5.338,1.343c-0.16,0-0.319,0.053-0.428,0.053
	c-0.861,0-1.563-0.536-1.776-1.396c-0.272-0.971,0.373-1.995,1.342-2.268c1.672-0.431,3.503-0.861,5.339-1.295
	c25.111-6.302,59.271-14.87,119.139-16.444c-1.667-3.313-3.177-6.712-4.522-10.268c-23.228-0.189-94.954,3.129-119.522,9.19
	c-0.163,0.077-0.326,0.077-0.434,0.077c-0.861,0-1.614-0.567-1.832-1.396c-0.217-1.003,0.38-1.996,1.351-2.267
	c24.355-5.982,94.353-9.32,119.139-9.268c-5.547-16.409-8.023-35.188-8.023-56.208c0-37.259,11.585-51.298,27.211-71.207
	c-11.963-42.493,4.257-71.511,4.257-71.511s25.057-5.189,72.423,28.72c25.705-10.963,94.142-11.935,126.582-2.423
	c19.883-13.174,56.26-31.793,70.917-26.564c3.984,6.398,12.555,25.03,5.227,65.983c4.958,8.999,30.876,28.13,30.931,82.231
	c-0.376,19.938-2.48,36.807-6.306,51.032c61.755-0.484,98.076,4.608,123.134,9.187c0.97,0.246,1.666,1.16,1.508,2.185
	c-0.213,0.862-0.97,1.507-1.836,1.507c-0.103,0-0.264,0-0.316-0.056c-25.059-4.604-61.384-9.695-123.565-9.103
	c-1.078,3.61-2.32,7.006-3.666,10.346C571.583,408.118,629.726,410.392,677.04,424.833z"/>
</svg>
