<?xml version="1.0" encoding="utf-8"?>
<!-- Generator: Adobe Illustrator 16.1.0, SVG Export Plug-In . SVG Version: 6.00 Build 0)  -->
<!DOCTYPE svg PUBLIC "-//W3C//DTD SVG 1.1//EN" "http://www.w3.org/Graphics/SVG/1.1/DTD/svg11.dtd">
<svg version="1.1" id="Layer_1" xmlns="http://www.w3.org/2000/svg" xmlns:xlink="http://www.w3.org/1999/xlink" x="0px" y="0px"
	 width="791.175px" height="791.188px" viewBox="0 0 791.175 791.188" enable-background="new 0 0 791.175 791.188"
	 xml:space="preserve">
<g>
	<path fill="#FFFFFF" d="M443.263,256.741c-22.797-19.841-46.294-21.454-48.499-21.561h-0.107h-0.538
		c-0.753,0.107-1.666,0.107-2.903,0.377c-2.526,0.323-6.074,1.021-10.539,2.312c-8.657,2.474-20.539,7.42-32.207,17.044
		c-23.12,18.926-46.993,56.403-47.8,132.86c0.807,73.824,23.281,111.299,45.542,130.925c21.399,18.657,43.39,21.076,47.799,21.507
		h0.216h0.106h0.108h0.698h0.216h0.106h0.592c0.538-0.215,1.344-0.215,2.15-0.322c2.581-0.322,6.237-1.021,10.54-2.259
		c3.118-0.914,6.721-2.258,10.538-3.924c-5.215-17.852-21.723-22.422-21.723-22.422c-7.366,0.593-17.206,1.344-23.927-2.42
		c-6.773-3.764-8.441-11.99-6.344-18.927c10.916-36.185,61.028-27.635,82.48-8.226c2.419,2.204,9.302,8.28,13.173,13.764
		c14.249-22.366,25.271-56.187,25.809-107.857C487.999,313.843,465.63,276.367,443.263,256.741z"/>
	<path fill="#FFFFFF" d="M394.711,0C176.736,0,0,176.734,0,394.709c0,218.03,176.736,394.709,394.711,394.709
		c198.725,0,363.147-146.893,390.623-338.039c2.691-13.063,3.925-26.506,3.712-40.324c0.213-5.433,0.376-10.862,0.376-16.346
		C789.421,176.734,612.739,0,394.711,0z M528.431,587.253c8.765,0.914,20.54,2.149,27.69,7.795
		c7.206,5.647,7.527,15.163,3.602,22.584c-20.161,38.175-77.424,17.904-98.77-8.389c-2.581-3.172-10.431-12.635-13.497-19.785
		c-16.022,4.085-32.367,6.396-48.66,6.396h-4.678c-3.44-0.107-6.774-0.375-10.215-0.592c-16.506-1.396-34.52-4.247-50.434-9.893
		c-34.412-11.883-67.962-32.422-92.267-60.166c-13.172-15.108-25.001-33.444-33.121-51.887
		c-13.334-30.056-17.34-62.854-17.34-94.845c0-49.038,11.022-86.729,28.202-115.386c17.097-28.82,40.246-48.285,63.983-61.618
		c47.424-26.346,97.214-27.906,108.881-27.906c1.183,0,2.042,0,2.419,0.108v-0.108h1.021v0.108c0.323-0.108,1.237-0.108,2.419-0.108
		c8.819,0,38.982,0.86,73.446,12.42c34.521,11.614,73.717,33.981,99.417,77.104c17.207,28.658,28.175,66.349,28.175,115.386
		c0.108,55.11-15.271,105.706-50.541,149.043c-11.237,13.765-24.896,25.378-39.735,35.218
		C512.999,580.047,528.431,587.253,528.431,587.253z"/>
</g>
</svg>
