<?xml version="1.0" encoding="utf-8"?>
<!-- Generator: Adobe Illustrator 16.1.0, SVG Export Plug-In . SVG Version: 6.00 Build 0)  -->
<!DOCTYPE svg PUBLIC "-//W3C//DTD SVG 1.1//EN" "http://www.w3.org/Graphics/SVG/1.1/DTD/svg11.dtd">
<svg version="1.1" id="Layer_1" xmlns="http://www.w3.org/2000/svg" xmlns:xlink="http://www.w3.org/1999/xlink" x="0px" y="0px"
	 width="791.175px" height="791.188px" viewBox="0 0 791.175 791.188" enable-background="new 0 0 791.175 791.188"
	 xml:space="preserve">
<path fill="#FFFFFF" d="M395.518-0.057C177.101-0.057,0,176.988,0,395.405c0,218.361,177.101,395.407,395.518,395.407
	c218.361,0,395.407-177.046,395.407-395.407C790.924,176.988,613.878-0.057,395.518-0.057 M618.756,365.65
	c1.479,10.413,2.303,21.097,2.303,31.947c0,127.455-107.677,230.746-240.557,230.746c-132.878,0-240.554-103.291-240.554-230.746
	s107.675-230.746,240.554-230.746c26.03,0,51.125,4.055,74.632,11.343l0.056,139.456c0,0-71.727-39.179-135.784,6.794
	c-64.11,45.973-52.056,94.249-52.056,94.249s3.014,76.167,93.48,76.167c101.098,0,129.757-92.003,129.757-92.003V192.44
	c19.508,9.645,37.646,21.7,55.07,35.289c43.016,26.522,87.675,43.727,138.742,42.413c0,0,9.811-2.083,9.811,17.315
	c0,10.576-3.782,22.685-14.356,33.974C679.854,321.431,659.799,351.459,618.756,365.65"/>
</svg>
