<?xml version="1.0" encoding="utf-8"?>
<!-- Generator: Adobe Illustrator 16.1.0, SVG Export Plug-In . SVG Version: 6.00 Build 0)  -->
<!DOCTYPE svg PUBLIC "-//W3C//DTD SVG 1.1//EN" "http://www.w3.org/Graphics/SVG/1.1/DTD/svg11.dtd">
<svg version="1.1" id="Layer_1" xmlns="http://www.w3.org/2000/svg" xmlns:xlink="http://www.w3.org/1999/xlink" x="0px" y="0px"
	 width="791.175px" height="791.188px" viewBox="0 0 791.175 791.188" enable-background="new 0 0 791.175 791.188"
	 xml:space="preserve">
<g>
	<path fill="#FFFFFF" d="M405.205,563.993c-6.539,4.43-10.779,5.348-18.046,0.379c-39.926-27.338-82.905-48.464-129.909-60.836
		c-19.855-5.24-40.007-8.212-61.024-8.591c0,18.154,0,35.605,0,53.596c75.125,3.781,139.067,35.821,199.794,76.233
		c60.753-40.682,124.886-72.235,199.683-76.396c0-17.99,0-35.442,0-54.945c-18.907,2.916-37.223,4.646-54.943,8.752
		C491.511,513.639,446.914,535.898,405.205,563.993z"/>
	<path fill="#FFFFFF" d="M395.911,553.025c64.348-40.466,64.348-40.412,137.041-66.347c2.729-0.974,5.512-4.107,6.619-6.914
		c10.211-25.719,12.696-52.353,8.482-79.637c-12.401-80.447-87.577-140.365-173.699-127.668
		c-96.196,14.156-154.086,111.189-122.588,202.873c2.593,7.565,6.32,11.617,14.371,13.941
		C313.087,502.618,355.715,525.146,395.911,553.025z M337.696,320.383c15.857-0.108,28.067,11.615,28.229,27.067
		c0.163,15.83-12.238,28.473-27.933,28.473c-15.371,0-27.634-12.21-27.77-27.716C310.115,332.593,322.055,320.49,337.696,320.383z
		 M305.252,375.923c9.023,0.378,16.263,8.05,16.101,17.072c-0.188,8.915-7.833,16.533-16.695,16.641
		c-9.129,0.055-17.072-8.051-16.91-17.235C287.964,383.216,296.123,375.545,305.252,375.923z"/>
	<path fill="#FFFFFF" d="M395.965,0C177.586,0,0.592,176.994,0.592,395.319c0,218.379,176.994,395.373,395.374,395.373
		c218.325,0,395.319-176.994,395.319-395.373C791.285,176.994,614.291,0,395.965,0z M619.073,427.574
		c-5.889,9.183-13.752,15.721-23.909,19.935c-2.43,0.975-4.86,3.675-5.889,6.214c-4.32,10.158-8.076,20.529-12.319,31.553
		c5.675,0,11.185,0.107,16.696,0c7.617-0.164,12.019,3.619,12.129,11.021c0.299,17.343,0.19,34.686,0.025,52.029
		c-0.052,8.212-5.806,11.398-12.884,11.724c-70.424,3.188-130.424,33.658-187.555,71.533c-7.403,4.971-13.131,4.808-20.397-0.108
		c-45.625-31.175-94.386-55.703-148.981-66.94c-11.588-2.432-23.555-3.295-35.388-4.161c-12.237-0.918-15.992-4.213-16.02-16.315
		c-0.027-14.911-0.081-29.769,0.027-44.681c0.054-10.806,3.377-14.048,14.101-14.048c5.403,0,10.807,0,16.101,0
		c-4.377-11.885-8.483-23.285-12.805-34.577l-3.944-4.646c-28.255-15.234-36.738-41.116-37.009-70.722
		c-0.108-15.344,4.242-29.931,13.399-42.682c7.455-10.373,17.342-17.235,29.985-19.072c5.079-0.756,6.43-3.512,8.293-7.24
		c31.958-64.076,83.013-103.625,153.896-113.673c79.313-11.185,143.66,17.504,192.879,80.393c1.514,1.945,2.891,3.944,5.89,8.051
		c0-10.752,0-19.396,0-28.042c-0.055-4.051-0.352-8.212,0.025-12.209c0.595-5.942-1.35-9.67-6.4-13.4
		c-12.752-9.4-17.316-28.743-11.725-44.896c5.401-15.56,21.068-26.744,37.98-27.069c16.315-0.323,32.796,11.023,38.414,26.475
		c6.428,17.612,1.16,35.604-13.184,47.435c-2.431,1.946-4.536,5.944-4.564,9.024c-0.351,26.527-0.351,53.055,0,79.636
		c0.028,3.566,1.811,7.888,4.24,10.482C633.686,353.987,637.792,398.29,619.073,427.574z"/>
	<path fill="#FFFFFF" d="M595.46,321.463c0.242-29.5,0.218-59.052,0.028-88.605c-0.028-5.079,1.188-7.996,6.104-10.698
		c13.131-7.185,18.315-22.691,13.266-36.468c-4.729-12.805-16.289-20.261-30.391-19.667c-13.291,0.594-24.637,10.048-27.881,23.178
		c-3.079,12.535,2.435,26.258,14.103,32.687c4.944,2.756,6.565,5.78,6.483,11.237c-0.324,20.045-0.135,40.089-0.135,60.133
		c0,9.292,0,18.585,0,29.552c-40.008-83.581-103.977-127.938-195.553-121.669c-78.717,5.402-132.69,49.759-164.945,122.373
		c-12.535-1.729-22.691,2.699-30.904,12.209c-21.719,25.069-17.396,76.827,10.319,94.928c12.048,7.832,17.668,16.909,21.071,29.39
		c0.81,2.808,2.161,5.511,3.322,8.211c5.484,12.75,10.022,15.346,24.501,14.101c-47.732-86.334-17.341-175.857,38.306-222.375
		c62.105-51.921,148.656-55.864,213.734-10.158c32.308,22.691,54.837,52.893,66.722,90.441
		c15.669,49.489,9.482,97.034-16.152,143.12c4.134-0.703,7.024-1.676,9.887-1.676c7.779-0.053,12.318-3.78,14.749-11.021
		c3.027-8.967,6.133-17.883,9.78-26.581c1.025-2.484,3.672-5.402,6.076-5.943c10.618-2.271,17.83-8.697,23.395-17.451
		c16.695-26.203,11.967-66.129-10.617-87.416C597.055,329.838,595.435,326.542,595.46,321.463z"/>
</g>
</svg>
