<?xml version="1.0" encoding="utf-8"?>
<!-- Generator: Adobe Illustrator 16.1.0, SVG Export Plug-In . SVG Version: 6.00 Build 0)  -->
<!DOCTYPE svg PUBLIC "-//W3C//DTD SVG 1.1//EN" "http://www.w3.org/Graphics/SVG/1.1/DTD/svg11.dtd">
<svg version="1.1" id="Layer_1" xmlns="http://www.w3.org/2000/svg" xmlns:xlink="http://www.w3.org/1999/xlink" x="0px" y="0px"
	 width="791.175px" height="791.188px" viewBox="0 0 791.175 791.188" enable-background="new 0 0 791.175 791.188"
	 xml:space="preserve">
<path fill="#FFFFFF" d="M394.582,0C176.678,0,0,176.678,0,394.581c0,217.904,176.678,394.581,394.582,394.581
	c198.713,0,363.029-146.899,390.496-337.981c2.631-13.008,3.868-26.445,3.651-40.312c0.271-5.375,0.433-10.804,0.433-16.287
	C789.162,176.678,612.539,0,394.582,0z M576.203,322.985c0.162,3.655,0.215,7.311,0.215,11.019
	c0,112.66-85.731,242.575-242.521,242.575c-48.16,0-92.934-14.083-130.666-38.324c6.665,0.807,13.436,1.183,20.317,1.183
	c39.935,0,76.702-13.599,105.887-36.496c-37.302-0.645-68.8-25.316-79.658-59.179c5.213,1.021,10.59,1.559,16.071,1.559
	c7.74,0,15.265-1.075,22.468-3.011c-39.023-7.847-68.424-42.301-68.424-83.582c0-0.429,0-0.752,0-1.074
	c11.502,6.342,24.671,10.212,38.647,10.642c-22.899-15.318-37.948-41.387-37.948-70.951c0-15.641,4.193-30.261,11.555-42.891
	c42.033,51.599,104.867,85.515,175.711,89.117c-1.452-6.235-2.204-12.792-2.204-19.458c0-47.084,38.163-85.248,85.247-85.248
	c24.511,0,46.655,10.374,62.188,26.929c19.458-3.817,37.68-10.911,54.181-20.694c-6.397,19.888-19.888,36.604-37.517,47.138
	c17.252-1.988,33.699-6.61,48.965-13.383C607.27,295.95,592.865,310.945,576.203,322.985z"/>
</svg>
