<svg xmlns="http://www.w3.org/2000/svg" viewBox="173 100.2 958.7 592.8" enable-background="new 173 100.2 958.7 592.8"><g fill="#fff"><path d="M928.4 545.7l2.3 7.3 3.7 9.7 5.3 9.4 3.7 6.3 4.8 5.5 4 3.7 1.6 2.9-1.1 1.3-.8 1.3 2.9 7.4 2.9 2.9 2.6 5.3 3.6 5.8 4.5 8.2 1.3 7.6.5 12 .6 1.8-.3 3.4-2.4 1.3.3 1.9-.6 1.9.3 2.4.5 1.9-2.8 3.2-3.1 1.5-3.7.4-1.5 1.6-2.4 1-1.3-.5-1.1-1-.3-2.9-.8-3.4-3.4-5.2-3.6-2.3-3.9-.3-.8 1.3-3.1-4.4-.6-3.6-2.6-4-1.8-1.1-1.6 2.1-1.8-.3-2.1-5-2.9-3.9-2.9-5.3-2.6-3.1-3.6-3.7 2.1-2.4 3.2-5.5-.2-1.6-4.5-1-1.6.6.3.6 2.6 1-1.5 4.5-.8.5-1.8-4-1.3-4.8-.3-2.8 1.5-4.7V589l-3.1-3.7-1.3-3.1-5.2-1.3-1.9-.6-1.6-2.6-3.4-1.6-1.1-3.4-2.7-1-2.4-3.7-4.2-1.5-2.9-1.5h-2.6l-4 .8-.2 1.9.8 1-.5 1.1-3.1-.2-3.7 3.6-3.6 1.9h-3.9l-3.2 1.3-.3-2.8-1.6-1.9-2.9-1.1-1.6-1.5-8.1-3.9-7.6-1.8-4.4.6-6 .5-6 2.1-3.5.6-.2-8.1-2.6-1.9-1.8-1.8.3-3.1 10.2-1.3 25.5-2.9 6.8-.6 5.4.3 2.6 3.9 1.5 1.5 8.1.5 10.8-.6 21.5-1.3 5.4-.7h4.6l.2 2.9 3.8.8.3-4.8-1.6-4.5 1-.7 5.1.5 5.3.4zm12.5 132.4l2.4-.6 1.3-.2 1.5-2.3 2.3-1.6 1.3.5 1.7.3.4 1-3.5 1.2-4.2 1.5-2.3 1.2-.9-1zm13.5-5l1.2 1 2.7-2.1 5.3-4.2 3.7-3.9 2.5-6.6 1-1.7.2-3.4-.7.5-1 2.8-1.5 4.6-3.2 5.3-4.4 4.2-3.4 1.9-2.4 1.6zm-20.2-160l-1.8 1-2.6-1.3-.6-2.1-1.3-3.6-2.3-2.1-2.6-.6-1.6-4.9-2.7-6-4.2-1.9-2.1-1.9-1.3-2.6-2.1-1.9-2.3-1.3-2.3-2.9-3.1-2.3-4.5-1.8-.5-1.5-2.4-2.9-.5-1.5-3.4-5.2-3.4.2-4-2.4-1.3-1.3-.3-1.8.8-1.9 2.3-1-.3-2.1 6.1-2.6 9.1-4.5 7.3-.8 16.5-.5 2.3 1.9 1.6 3.2 4.4-.5 12.6-1.5 2.9.8 12.6 7.6 10.1 8.1-5.4 5.5-2.6 6.1-.5 6.3-1.6.8-1.1 2.7-2.4.6-2.1 3.6-2.8 2.7-2.3 3.4-1.6.8-3.6 3.4-2.9.2 1 3.2-5 5.5-2.2 1.6zm-71.6-54.9l-4.8.8-8.4 1.1-8.6.9v2.2l.2 2.1.6 3.4 3.4 7.9 2.4 9.9 1.5 6.1 1.6 4.9 1.5 7 2.1 6.3 2.6 3.4.5 3.4 1.9.8.2 2.1-1.8 4.9-.5 3.2-.2 1.9 1.6 4.4.3 5.3-.8 2.4.6.8 1.5.8.6 3.4 2.6 3.9 1.5 1.5 7.9.2 10.8-.6 21.5-1.3 5.4-.7h4.6l.2 2.9 2.6.8.3-4.4-1.6-4.5 1.1-1.6 5.8.8 5 .3-.8-6.3 2.3-10 1.5-4.2-.5-2.6 3.3-6.2-.5-1.4-1.9.7-2.6-1.3-.6-2.1-1.3-3.6-2.3-2.1-2.6-.6-1.6-4.9-2.9-6.3-4.2-1.9-2.1-1.9-1.3-2.6-2.1-1.9-2.3-1.3-2.3-2.9-3.1-2.3-4.5-1.8-.5-1.5-2.4-2.9-.5-1.5-3.4-4.9-3.4.2-4.1-3-1.3-1.3-.3-1.8.8-1.9 2.3-1.2-1.1-1.2.1-.3-5.8 1-7 .8-6.7.3zm-64 108.8l-1.6-15.2-2.7-18.8.2-14.1.8-31-.2-16.6.2-6.4 7.8-.4 27.8-2.6 8.9-.7-.1 2.2.2 2.1.6 3.4 3.4 7.9 2.4 9.9 1.5 6.1 1.6 4.9 1.5 7 2.1 6.3 2.6 3.4.5 3.4 1.9.8.2 2.1-1.8 4.8-.5 3.2-.2 1.9 1.6 4.4.3 5.3-.8 2.4.6.8 1.5.8 1 2.5h-6.3l-6.8.6-25.5 2.9-10.4 1.4-.1 3.8 1.8 1.8 2.6 1.9.6 7.9-5.5 2.6-2.8-.3 2.8-1.9v-1l-3.1-6-2.3-.6-1.5 4.4-1.3 2.7-.6-.2h-2.9v.2zm206.5-168.3l1.7 4.7 3.6 6.5 2.4 2.4.6 2.3-2.4.2.8.6-.3 4.2-2.6 1.3-.6 2.1-1.3 2.9-3.7 1.6-2.4-.3-1.5-.2-1.6-1.3.3 1.3v1h1.9l.8 1.3-1.9 6.3h4.2l.6 1.6 2.3-2.3 1.3-.5-1.9 3.6-3.1 4.9h-1.3l-1.1-.5-2.7.6-5.2 2.4-6.5 5.3-3.4 4.7-1.9 6.5-.5 2.4-4.7.5-5.5 1.3-9.9-8.2-12.6-7.6-2.9-.8-12.6 1.5-4.3.8-1.6-3.2-3-2.1-16.5.5-7.3.8-9.1 4.5-6.1 2.6-1.6.3-5.8 1-7 .8-6.8.5.5-4.1 1.8-1.5 2.7-.6.6-3.7 4.2-2.7 3.9-1.5 4.2-3.6 4.4-2.1.6-3.1 3.9-3.9.6-.2s0 1.1.8 1.1 1.9.3 1.9.3l2.3-3.6 2.1-.6 2.3.3 1.6-3.6 2.9-2.6.5-2.1v-4l4.5.7 7.1-1.3 15.8-1.9 17.1-2.6 19.9-4 19.7-4.2 11.4-2.8 5.4-.9zm3.9 33l2.6-2.5 3.2-2.6 1.5-.6.2-2-.6-6.1-1.5-2.3-.6-1.9.7-.2 2.7 5.5.4 4.4-.2 3.4-3.4 1.5-2.8 2.4-1.1 1.2-1.1-.2zm-138.9-10.9l-51.9 5-15.8 1.8-4.6.5h-3.9v3.9l-8.4.5-7 .6-11.1.1-.3 5.8-2.1 6.3-1 3-1.3 4.4-.3 2.6-4 2.3 1.5 3.6-1 4.4-1 .8 7.3-.2 24.1-1.9 5.3-.2 8.1-.5 27.8-2.6 10.2-.8 8.4-1 8.4-1.1 4.8-.8-.1-4.5 1.8-1.5 2.7-.6.6-3.7 4.2-2.7 3.9-1.5 4.2-3.6 4.4-2.1.9-3.5 4.3-3.9.6-.2s0 1.1.8 1.1 1.9.3 1.9.3l2.3-3.6 2.1-.6 2.3.3 1.6-3.6 2.1-2.2.6-1 .2-3.9-1.5-.3-2.4 1.9-7.9.2-12 1.9-9.8.8zm177-140.8l-.5-4.2-.8-4.4-1.7-5.9 5.7-1.5 1.6 1.1 3.4 4.4 2.9 4.4-2.9 1.5-1.3-.2-1.1 1.8-2.4 1.9-2.9 1.1zm-.9.3l-.6-4.2-.8-4.4-1.6-6-4.2.9-21.8 4.8.6 3.3 1.5 7.3v8.1l-1.1 2.3 1.8 2.1 5-3.4 3.6-3.2 1.9-2.1.8.6 2.7-1.5 5.2-1.1 7-3.5zm26.8-6.2l2.2-.7.5-1.7 1 .1 1 2.3-1.3.5-3.9.1.5-.6zm-9.4.8l2.3-2.6h1.6l1.8 1.5-2.4 1-2.2 1-1.1-.9zm-34.8-22l17.5-4.2 2.3-.6 2.1-3.2 3.7-1.7 2.9 4.4-2.4 5.2-.3 1.5 1.9 2.6 1.1-.8h1.8l2.3 2.6 3.9 6 3.6.5 2.3-1 1.8-1.8-.8-2.7-2.1-1.6-1.5.8-1-1.3.5-.5 2.1-.2 1.8.8 1.9 2.4 1 2.9.3 2.4-4.2 1.5-3.9 1.9-3.9 4.5-1.9 1.5v-1l2.4-1.5.5-1.8-.8-3.1-2.9 1.5-.8 1.5.5 2.3-2.1 1-2.7-4.5-3.4-4.4-2.1-1.8-6.5 1.9-5.1 1-21.8 4.8-.4-4.9.6-10.6 5.2-.9 6.6-1.4M1096.2 177.5l1.9 2.1 2.3 3.7v1.9l-2.1 4.7-1.9.6-3.4 3.1-4.8 5.5h-1.3c-.6 0-1-2.1-1-2.1l-1.8.2-1 1.5-2.4 1.5-1 1.5 1.6 1.5-.5.6-.5 2.7-1.9-.2v-1.6l-.3-1.3-1.5.3-1.8-3.2-2.1 1.3 1.3 1.5.3 1.1-.8 1.3.3 3.1.2 1.6-1.6 2.6-2.9.5-.3 2.9-5.3 3.1-1.3.5-1.6-1.5-3.1 3.6 1 3.2-1.5 1.3-.2 4.4-1.1 6.3-2.5-1.2-.5-3.1-3.9-1.1-.3-2.8-7.3-23.4-4.2-13.6 1.4-.1 1.5.4v-2.6l.8-5.5 2.6-4.7 1.5-4-1.9-2.4v-6l.8-1 .8-2.8-.2-1.5-.2-4.9 1.8-4.8 2.9-8.9 2.1-4.2h1.3l1.3.2v1.1l1.3 2.3 2.7.6.8-.8v-1l4-2.9 1.8-1.8 1.5.2 6 2.4 1.9 1 9.1 29.9h6l.8 1.9.2 4.9 2.9 2.3h.8l.2-.5-.5-1.1 2.8-.3zm-20.9 30.2l1.5-1.5 1.4 1.1.6 2.4-1.7.9-1.8-2.9zm6.7-5.9l1.8 1.9s1.3.1 1.3-.2c0-.3.2-2 .2-2l.9-.8-.8-1.8-2 .7-1.4 2.2zm-28.2 40.8l.9-1.1 1.1-3.3-2.5-.9-.5-3.1-3.9-1.1-.3-2.8-7.3-23.4-4.6-14.5h-.9l-.6 1.6-.6-.5-1-1-1.5 1.9-.1 5 .3 5.7 1.9 2.8v4l-3.7 5.1-2.6 1.1v1.1l1.1 1.8v8.6l-.8 9.2-.2 4.9 1 1.3-.2 4.5-.5 1.8 1.5.9 16.4-4.7 2.3-.6 1.5-2.6 3.8-1.7zm-36.5 11.3l-.8-5.7-2.4-10-.6-.3-2.9-1.3.8-2.9-.8-2.1-2.7-4.6 1-3.9-.8-5.2-2.4-6.5-.8-4.9 26.2-6.7.3 5.8 1.9 2.7v4l-3.7 4-2.6 1.1v1.1l1.1 1.8v8.6l-.8 9.2-.2 4.9 1 1.3-.2 4.5-.5 1.8.7 1.6-7 1.4-3.8.3zm-15.7 35.7l-1.1-1-2.6-.2-2.3-1.9-1.6-6.1-3.5.1-2.4-2.7-19.4 4.4-43 8.7-7.5 1.2-.7-6.5 1.4-1.1 1.3-1.1 1-1.6 1.8-1.1 1.9-1.8.5-1.6 2.1-2.7 1.1-1-.2-1-1.3-3.1-1.8-.2-1.9-6.1 2.9-1.8 4.4-1.5 4-1.3 3.2-.5 6.3-.2 1.9 1.3 1.6.2 2.1-1.3 2.6-1.1 5.2-.5 2.1-1.8 1.8-3.2 1.6-1.9h2.1l1.9-1.1.2-2.3-1.5-2.1-.3-1.5 1.1-2.1V239h-1.8l-1.8-.8-.8-1.1-.2-2.6 5.8-5.5.6-.8 1.5-2.9 2.9-4.5 2.7-3.7 2.1-2.4 2.4-1.8 3.1-1.2 5.5-1.3 3.2.2 4.5-1.5 7.6-2.1.5 5 2.4 6.5.8 5.2-1 3.9 2.6 4.5.8 2.1-.8 2.9 2.9 1.3.6.3 3.1 11-.5 5.1-.5 10.8.8 5.5.8 3.6 1.5 7.3v8.1l-1.1 2.3 1.8 2 .8 1.7-1.9 1.8.3 1.3 1.3-.3 1.5-1.3 2.3-2.6 1.1-.6 1.6.6 2.3.2 7.9-3.9 2.9-2.7 1.3-1.5 4.2 1.6-3.4 3.6-3.9 2.9-7.1 5.3-2.6 1-5.8 1.9-4 1.1-1.2-.5-.2-3.7.5-2.7-.2-2.1-2.8-1.7-4.5-1-3.9-1.1-3.5-2.1zm-.4.9l-2.1 2.4v3.1l-1.9 3.1-.2 1.6 1.3 1.3-.2 2.4-2.3 1.1.8 2.7.2 1.1 2.7.3 1 2.6 3.6 2.4 2.4 1.6v.8l-3.2 3.1-1.6 2.3-1.5 2.7-2.3 1.3-1.2.7-.2 1.2-.6 2.6 1.1 2.2 3.2 2.9 4.8 2.3 4 .6.2 1.5-.8 1 .3 2.7h.8l2.1-2.4.8-4.9 2.7-4 3.1-6.5 1.1-5.5-.6-1.1-.2-9.4-1.6-3.4-1.1.8-2.8.3-.5-.5 1.1-1 2.1-1.9.1-1.1-.4-3.4.5-2.7-.2-2.1-2.6-1.1-4.5-1-3.9-1.1-3.5-1.6zm-6 36.2l1.1-.6 2.3-.6 1.5-2.7 1.6-2.3 3.2-3.1v-.8l-2.4-1.6-3.6-2.4-1-2.6-2.7-.3-.2-1.1-.8-2.7 2.3-1.1.2-2.4-1.3-1.3.2-1.6 1.9-3.1v-3.1l2.3-2.4.2-1.1-2.6-.2-2.3-1.9-2.4-5.3-3-.9-2.3-2.1-18.6 4-43 8.7-8.9 1.5-.5-7.1-5.5 5.6-1.3.5-4.2 3 2.9 19.1 2.5 9.7 3.6 19.3 3.3-.6 11.9-1.5 37.9-7.7 14.9-2.8 8.3-1.6.3-.2 2.1-1.6 2.1-1zm.2 3.9l.6-2.1v-1.2l-1.3-.1-2.1 1.6-1.5 1.5 1.5 4.2 2.3 5.7 2.1 9.7 1.6 6.3 5-.2 6.1-1.2-2.3-7.4-1 .5-3.6-2.4-1.8-4.7-1.9-3.6-2.3-1-2.1-3.6.7-2zm14.6 24.9l-6.1 1.3-5.9.2-1.8-7.1-2.1-9.7-2.3-5.7-1.3-4.4-7.5 1.6-14.9 2.8-37.5 7.5 1.1 5 1 5.7.3-.3 2.1-2.4 2.3-2.6 2.4-.6 1.5-1.5 1.8-2.6 1.3.6 2.9-.3 2.6-2.1 2-1.5 1.8-.5 1.6 1.1 2.9 1.5 1.9 1.8 1.2 1.5 4.1 1.7v2.9l5.5 1.3 1.1.5 1.4-2 2.9 2-1.3 2.5-.8 4-1.8 2.6v2.1l.6 1.8 5.1 1.4 4.3-.1 3.1 1 2.1.3 1-2.1-1.5-2.1v-1.8l-2.4-2.1-2.1-5.5 1.3-5.3-.2-2.1-1.3-1.3s1.5-1.6 1.5-2.3c0-.6.5-2.1.5-2.1l1.9-1.3 1.9-1.6.5 1-1.5 1.6-1.3 3.7.3 1.1 1.8.3.5 5.5-2.1 1 .3 3.6.5-.2 1.1-1.9 1.6 1.8-1.6 1.3-.3 3.4 2.6 3.4 3.9.5 1.6-.8 3.2 4.2 1.4.5 6.7-2.8 2-4 .6-4.9zm-16.7 9l1.1 2.5.2 1.8 1.1 1.9s.9-.9.9-1.2-.7-3.1-.7-3.1l-.7-2.3-1.9.4zm-63.7-22.3l1.1 4.9 1.1 6.9 3.6-2.7 2.3-3.1 2.5-.6 1.5-1.5 1.8-2.6 1.2.6 2.9-.3 2.6-2.1 2-1.5 1.8-.5 1.3 1 2.2 1.1 1.9 1.8 1.4 1.3-.1 4.7-5.7-3.1-4.5-1.8-.2 5.3-.5 2.1-1.6 2.7-.6 1.6-3.1 2.4-.5 2.3-3.4.3-.3 3.1-1.1 5.5h-2.6l-1.3-.8-1.6-2.7-1.8.2-.3 4.4-2.1 6.6-5 10.8.8 1.3-.2 2.7-2.1 1.9-1.5-.3-3.2 2.4-2.6-1-1.8 4.7s-3.7.8-4.4 1c-.6.2-2.4-1.3-2.4-1.3l-2.4 2.3-2.6.6-2.9-.8-1.3-1.3-2.2-3-3.1-2-2.6-2.7-2.9-3.7-.6-2.3-2.6-1.5-.8-1.6-.2-5.3 2.2-.1 1.9-.8.2-2.7 1.6-1.5.2-5 1-3.9 1.3-.6 1.3 1.1.5 1.8 1.8-1 .5-1.6-1.1-1.8v-2.4l1-1.3 2.3-3.4 1.3-1.5 2.1.5 2.3-1.6 3.1-3.4 2.3-3.9.3-5.7.5-5v-4.7l-1.1-3.1 1-1.5 1.3-1.3 3.5 19.8 4.6-.8 10.8-1zM894.8 398l-2.3 2.7-4.2 3.6-4.3 5.9-1.8 1.8v2.1l-3.9 2.1-5.7 3.4-3.5.4-51.9 4.9-15.8 1.8-4.6.5h-3.9l-.2 4.2-8.2.1-7 .6-10.4.2 1.9-.2 2.2-1.8 2.1-1.1.2-3.2.9-1.8-1.6-2.5.8-1.9 2.3-1.8 2.1-.6 2.7 1.3 3.6 1.3 1.1-.3.2-2.3-1.3-2.4.3-2.3 1.9-1.5 2.6-.6 1.6-.6-.8-1.8-.6-1.9 1.1-.8 1-3.3 3-1.7 5.8-1 3.6-.5 1.5 1.9 1.8.8 1.8-3.2 2.9-1.5 1.9 1.6.8 1.1 2.1-.5-.2-3.4 2.9-1.6 1.1-.8 1.1 1.6h4.7l.8-2.1-.3-2.3 2.9-3.6 4.7-3.9.5-4.5 2.8-.3 3.9-1.8 2.7-1.9-.3-1.9-1.5-1.5.6-2.2 4.1-.2 2.4-.8 2.9 1.6 1.6 4.4 5.8.3 1.8 1.8 2.1.2 2.4-1.5 3.1.5 1.3 1.5 2.7-2.6 1.8-1.3h1.6l.6 2.7 1.8 1 2.4 2.2.2 5.5.8 1.6 2.6 1.5.6 2.3 2.9 3.7 2.6 2.7 3.7 1.9zm9.6-102.8l-6.1 4.1-3.9 2.3-3.4 3.7-4 3.9-3.2.8-2.9.5-5.5 2.6-2.1.2-3.4-3.1-5.2.6-2.6-1.5-2.4-1.4-4.9.7-10.2 1.6-7.8 1.2 1.3 14.6 1.8 13.7 2.6 23.4.6 4.8 4.1-.1 2.4-.8 3.4 1.5 2.1 4.4h5.1l1.9 2.1 1.8-.1 2.5-1.3 2.5.4 2 1.5 1.7-2.1 2.3-1.3 2.1-.7.6 2.7 1.8 1 3.5 2.3 2.2-.1 1.1-1.1-.1-1.4 1.6-1.5.2-5 1-3.9 1.5-1.4 1.5.9.8 1.2 1.2-.2-.4-2.4-.6-.6v-2.4l1-1.3 2.3-3.4 1.3-1.5 2.1.5 2.3-1.6 3.1-3.4 2.3-3.9.2-5.4.5-5v-4.7l-1.1-3.1 1-1.5.9-1-1.4-9.8-3-19.2zM754.6 182.3l1.8-2.1 2.2-.8 5.4-3.9 2.3-.6.5.5-5.1 5.1-3.3 1.9-2.1.9-1.7-1zm86.2 32.1l.6 2.5 3.2.2 1.3-1.2s-.1-1.5-.4-1.6c-.3-.2-1.6-1.9-1.6-1.9l-2.2.2-1.6.2-.3 1.1 1 .5zm30.1 63l-3.2-8.2-2.3-9.1-2.4-3.2-2.6-1.8-1.6 1.1-3.9 1.8-1.9 5-2.7 3.7-1.1.6-1.5-.6s-2.6-1.5-2.4-2.1c.2-.6.5-5 .5-5l3.4-1.3.8-3.4.6-2.6 2.4-1.6-.3-10-1.6-2.3-1.3-.8-.8-2.1.8-.8 1.6.3.2-1.6-2.4-2.3-1.3-2.6h-2.6l-4.5-1.5-5.5-3.4h-2.7l-.6.6-1-.5-3.1-2.3-2.9 1.8-2.9 2.3.3 3.6 1 .3 2.1.5.5.8-2.6.8-2.6.3-1.5 1.8-.3 2.1.3 1.6.3 5.5-3.6 2.1-.6-.2v-4.2l1.3-2.4.6-2.4-.8-.8-1.9.8-1 4.2-2.7 1.1-1.8 1.9-.2 1 .6.8-.6 2.6-2.3.5v1.1l.8 2.4-1.1 6.1-1.6 4 .6 4.7.5 1.1-.8 2.4-.3.8-.3 2.7 3.6 6 2.9 6.5 1.5 4.9-.8 4.7-1 6-2.4 5.2-.3 2.8-3.3 3.1 4.4-.2 21.4-2.3 7.3-1 .1 1.7 6.9-1.2 10.3-1.5 3.9-.5.1-.6.2-1.5 2.1-3.7 2-1.7-.2-5.1 1.6-1.6 1.1-.3.2-3.6 1.5-3 1 .6.2.6.8.2 1.9-1-.5-9.2zm-130.4-66l.7-.6 2.8-.8 3.6-2.3v-1l.6-.6 6-1 2.4-1.9 4.4-2.1.2-1.3 1.9-2.9 1.8-.8 1.3-1.8 2.3-2.3 4.4-2.4 4.7-.5 1.1 1.1-.3 1-3.7 1-1.5 3.1-2.3.8-.5 2.4-2.4 3.2-.3 2.6.8.5 1-1.1 3.6-2.9 1.3 1.3h2.3l3.2 1 1.5 1.1 1.5 3.1 2.8 2.8 3.9-.2 1.5-1 1.6 1.3 1.6.5 1.3-.8h1.1l1.6-1 4-3.6 3.4-1.1 6.6-.3 4.5-1.9 2.6-1.3 1.5.2v5.7l.5.3 2.9.8 1.9-.5 6.1-1.6 1.1-1.1 1.5.5v7l3.2 3.1 1.3.6 1.3 1-1.3.3-.8-.3-3.7-.5-2.1.6-2.3-.2-3.5 1.4h-1.8l-5.8-1.3-5.2.2-1.9 2.6-7 .6-2.4.8-1.1 3.1-1.3 1.1-.5-.2-1.5-1.6-4.5 2.4h-.6l-1.1-1.6-.8.2-1.9 4.4-1 4-3.2 7-1.2-1-1.4-1-1.9-10.3-3.5-1.4-2.1-2.3-12.1-2.7-2.9-1-8.2-2.2-7.9-1.1-3.7-5.3zM527.3 244l-10.5-.8-32.1-3.3-16.2-2.1-28.4-4.1-19.9-3-1.4 11.2-3.8 24.3-5.3 30.4-1.5 10.5-1.7 11.9 6.5.9 25.9 2.5 20.6 2.3 36.8 4.1 23.8 2.9 4.5-44.2 1.4-25.4 1.3-18.1zm2.4-21.5l.6-11.2 2.3-24.8c.5-5 1.1-8.5 1.4-15.4l.9-14.6-30.7-2.8-29.3-3.6-29.3-4-32.3-5.3-18.4-3.4-32.7-6.9-4.5 21.3 3.4 7.5-1.4 4.6 1.8 4.6 3.2 1.4 4.6 10.8 2.7 3.2.5 1.1 3.4 1.1.5 2.1-7.1 17.6v2.5l2.5 3.2h.9l4.8-3 .7-1.1 1.6.7-.2 5.3 2.7 12.6 3 2.5.9.7 1.8 2.3-.5 3.4.7 3.4 1.1.9 2.3-2.3h2.7l3.2 1.6 2.5-.9h4.1l3.7 1.6 2.7-.5.5-3 3-.7 1.4 1.4.5 3.2 1.8 1.4 1.5-11.6 20.7 3 28.2 4 16.6 1.9 31.4 3.5 11 1.5 1.1-15.4 1.5-5.4zM314 276.8l4.4-17.5 4.3-17.7 1.4-4.2 2.5-5.9-1.3-2.3-2.5.1-.8-1 .5-1.1.3-3.1 4.5-5.5 1.8-.5 1.1-1.1.6-3.2.9-.7 3.9-5.8 3.9-4.3.2-3.8-3.4-2.6-1.3-4.6.4-9.7 3.7-16.5 4.5-20.8 3.8-13.5.8-3.8 13 2.5-4.2 21.5 2.9 7.7-1.1 4.6 2 4.6 3.2 1.7 4.5 9.8 2.7 3.8.6 1.1 3.4 1.1.5 2.5-6.9 16.8.3 3.3 2.7 2.9 1.9.5 4.8-3.6.4-.5.2.8.3 4.1 2.6 12.9 3.5 2.7.4.8 2.2 2.4-.8 2.8.7 3.8 1.9.9 2.1-1.6 2.6-.5 3.4 1.6 2.5-.6 3.8-.2 4 1.6 2.7-.3.9-2.3 2.5-1.6.7 1.7.6 2.2 2.3 2.5-3.8 24-5.1 29-4.2-.3-8.2-1.5-9.8-1.8-12.2-2.4-12.5-2.5-8.5-1.8-9.3-1.7-9.2-1.8c-22.7-4.1-14.2-2.6-21.2-4.1zm-47.4-170.2l4.4 1.5 9.7 2.7 8.6 1.9 20 5.7 23 5.7 15.2 3.4-1 3.9-4.1 13.8-4.5 20.8-3.2 16.1-.4 9.4-13.2-3.9-15.6-3.4-13.7.6-1.6-1.5-5.3 1.9-4-.2-2.7-1.8-1.6.5-4.2-.2-1.9-1.4-4.8-1.7-1.4-.2-5-1.3-1.8 1.5-5.7-.3-4.8-3.8.2-.8.1-7.9-2.1-3.9-4.1-.7-.4-2.4-2.5-.6-2.9-.5-1.8 1-2.3-2.9.3-2.9 2.7-.3 1.6-4-2.6-1.1.2-3.7 4.4-.6-2.8-2.7-1.5-7.1.6-2.9v-7.9l-1.8-3.2 2.3-9.4 2.1.5 2.4 2.9 2.8 2.6 3.2 1.9 4.5 2.1 3.1.6 2.9 1.5 3.4 1 2.3-.2v-2.4l1.3-1.1 2.1-1.3.3 1.1.3 1.8-2.3.5-.3 2.1 1.8 1.5 1.1 2.4.6 1.9 1.5-.2.2-1.3-1-1.3-.5-3.2.8-1.8-.6-1.5v-2.3l1.8-3.6-1.1-2.6-2.4-4.9.3-.8 1.4-1.1zm-9.5 6l2-.2.5 1.4 1.5-1.6h2.3l.8 1.5-1.5 1.7.6.8-.7 2-1.4.4s-.9.1-.9-.2c0-.3 1.5-2.6 1.5-2.6l-1.7-.6-.3 1.5-.7.6-1.5-2.3-.5-2.4zm273 321l22.7 1.1 31.1 1.1-2.3 23.5-.3 18.2.1 2.1 4.3 3.8 1.7.8 1.8.3.7-1.3.9.9 1.7.5 1.6-.7 1.1.4-.3 3.4 4.3 1 2.7.8 4 .5 2.2 1.8 3.2-1.6 2.8.4 2 2.8 1.1.3-.2 2 3.1 1.2 2.8-1.8 1.5.4 2.4.2.4 1.9 4.6 2 2.7-.2 2-4.1h.3l1.1 1.9 4.4 1 3.3 1.2 3.3.8 2.2-.8.8-2.5h3.7l1.9.8 3.1-1.6h.7l.4 1.1h4.3l2.4-1.3 1.7.3 1.4 1.9 2.9 1.7 3.5 1.1 2.7 1.4 2.4 1.6 3.3-.9 1.9 1 .5 10.1.3 9.7.7 9.5.5 4 2.7 4.6 1.1 4.1 3.9 6.3.5 2.9.5 1-.7 7.5-2.7 4.4 1 2.9-.4 2.5-.8 7.3-1.4 2.7.6 4.4-5.7 1.6-9.9 4.5-1 1.9-2.6 1.9-2.1 1.5-1.3.8-5.7 5.3-2.7 2.1-5.3 3.2-5.7 2.4-6.3 3.4-1.8 1.5-5.8 3.6-3.4.6-3.9 5.5-4 .3-1 1.9 2.3 1.9-1.5 5.5-1.3 4.5-1.1 3.9-.8 4.5.8 2.4 1.8 7 1 6.1 1.8 2.8-1 1.5-3.1 1.9-5.7-3.9-5.5-1.1-1.3.5-3.2-.6-4.2-3.1-5.2-1.1-7.6-3.4-2.1-3.9-1.3-6.5-3.2-1.9-.6-2.3.6-.6.3-3.4-1.3-.6-.6-1 1.3-4.4-1.6-2.3-3-1.3-3.4-4.4-3.6-6.6-4.2-2.6.2-1.9-5.3-12.3-.8-4.2-1.8-1.9-.2-1.5-6-5.3-2.6-3.1v-1.1l-2.6-2.1-6.8-1.1-7.4-.6-3.1-2.3-4.5 1.8-3.6 1.5-2.3 3.2-1 3.7-4.4 6.1-2.4 2.4-2.6-1-1.8-1.1-1.9-.6-3.9-2.3v-.7l-1.8-1.9-5.2-2.1-7.4-7.8-2.3-4.7v-8.1l-3.2-6.5-.5-2.8-1.6-1-1.1-2.1-5-2.1-1.3-1.6-7.1-7.9-1.3-3.2-4.7-2.3-1.5-4.4-2.6-2.9-1.9-.5-.6-4.7 8 .7 29 2.7 29 1.6 2.3-23.8 3.9-55.6 1.6-18.7h1.4m99.1 234.2l-.6-7.1-2.7-7.2-.6-7 1.5-8.2 3.3-6.9 3.5-5.4 3.2-3.6.6.2-4.8 6.6-4.4 6.5-2 6.6-.3 5.2.9 6.1 2.6 7.2.5 5.2.2 1.5-.9.3zM309.7 487l3.8-.5 1.5-2 .7-1.9-3.2-.1-1.1-1.8.8-1.7v-6.1l2.2-1.3 2.7-2.6.4-4.9 1.6-3.5 1.9-2.1 3.3-1.7 1.3-.7.8-1.5-.9-.9-1-1.5-.9-5.4-2.9-5.2.1-2.8-2.2-3.2-15-23.2-19.4-28.7-22.4-33-12.7-19.5 1.8-7.2 6.8-25.9 8.1-31.4-12.4-3.3-13.5-3.4-12.6-4.1-7.5-2.1-11.4-3-7-2.4-1.6 4.7-.2 7.4-5.2 11.8-3.1 2.6-.3 1.1-1.8.8-1.5 4.2-.8 3.2 2.8 4.2 1.6 4.2 1.1 3.6-.3 6.5-1.8 3.1-.6 5.8-1 3.7 1.8 3.9 2.7 4.5 2.3 4.9 1.3 4-.3 3.2-.3.5v2.1l5.7 6.3-.5 2.4-.6 2.3-.6 1.9.2 8.2 2.1 3.7 1.9 2.6 2.7.5 1 2.7-1.1 3.6-2.1 1.6h-1.1l-.8 3.9.5 2.9 3.2 4.4 1.6 5.3 1.5 4.7 1.3 3.1 3.4 5.8 1.5 2.6.5 2.9 1.6 1v2.4l-.8 1.9-1.8 7.1-.5 1.9 2.4 2.8 4.2.5 4.5 1.8 3.9 2.1h2.9l2.9 3.1 2.6 4.9 1.1 2.3 3.9 2.1 4.8.8 1.5 2.1.6 3.2-1.5.6.3 1 3.2.8 2.7.2 2.9 4.7 3.9 4.2.8 2.3 2.6 4.2.3 3.2v9.4l.5 1.8 10 1.5 19.7 2.8 14 .5zm-87.9-49.8l1.3 1.5-.2 1.3-3.2-.1-.6-1.2-.6-1.5h3.3zm1.9 0l1.2-.6 3.6 2.1 3.1 1.2-.9.6-4.5-.2-1.6-1.6-.9-1.5zm20.7 19.9l1.8 2.3.8 1 1.5.6.6-1.5-1-1.8-2.7-2-1.1.2v1.2h.1zm-1.4 8.6l1.8 3.2 1.2 1.9-1.5.2-1.3-1.2s-.7-1.5-.7-1.9v-2.2h.5zm67.7 22l-2.6 2.2-.3 1.5.5 1 18.9 10.7 12.1 7.6 14.7 8.6 16.8 10 12.3 2.4 25.1 2.7 2.5-12.5 3.8-27.2 7-52.9 4.3-31-24.6-3.7-27.2-4.6-33.4-6.3-2.9 18.1-.5.5-1.7 2.6-2.5-.1-1.3-2.7-2.7-.3-1-1.3h-.9l-.9.6-1.9 1-.1 7-.2 1.7-.6 12.6-1.5 2.2-.6 3.3 2.7 4.9 1.3 5.8.8 1 1 .6-.1 2.3-1.6 1.4-3.4 1.6-2 2-1.5 3.7-.6 4.9-2.9 2.7-2 .7-.1 5.8-.5 1.7.5.8 3.7.6-.6 2.7-1.5 2.2-3.8.9zm3-209.9l21 4.5 9.7 1.9 9.3 1.8 6.6 1.6-.6 5.9-3.5 17.3-4.1 20-1.9 9.7-2.2 13.3-3.2 16.4-3.5 15.7-2 10.2-2.5 16.8-.5 1.1-1.1 2.5-1.9-.1-1.1-2.7-2.7-.5-1.4-1-2 .3-.9.7-1.3 1.4-.4 7-.6 1.7-.4 12.1-1.3 1.7-1.9-2.3-14.5-22.8-19.4-29-22.7-33.8-12.4-18.6 1.6-6.6 7-26 7.9-31.3 33.6 8.1 13.7 3M426 409.5l-24.6-3.5-26.6-4.9-33.8-6 1.6-9.2 3.2-15.2 3.3-16.6 2.2-13.6 1.9-8.9 3.8-20.5 3.5-17.5 1.1-5.6 12.7 2.3 12 2.1 10.3 1.8 8.3 1.4 3.7.5-1.5 10.6-2.3 13.2 7.8.9 16.4 1.8 8.2.9-2.1 22-3.2 22.6-3.8 27.8-1.7 11.1-.4 2.5zM551.6 357l1.4-21.3-32.1-3.1-24.5-2.7-37.3-4.1-20.7-2.5-2.6 22.2-3.2 22.4-3.8 28-1.5 11.1-.3 2.8 33.9 3.8 37.7 4.3 32 3.2 16.6.8M455.7 531.3l-.6-6.1 8.6.5 29.5 3.1 28.4 1.4 2-22.3 3.7-55.9 1.1-19.4 2 .4v-11.1l-32.2-2.4-36.9-4.4-34.5-4.1-4.2 30.8-7 53.2-3.8 26.9-2 13.3 15.5 2 1.3-10 16.6 2.6 12.5 1.5zM313.3 276.9l4.3-17.9 4.7-17.9 1-4.2 2.4-5.6-.6-1.2h-2.5l-1.3-1.7.5-1.5.5-3.2 4.5-5.5 1.8-1.1 1.1-1.1 1.5-3.6 4-5.7 3.6-3.9.2-3.5-3.3-2.5-1.2-4.5-13.2-3.7-15.1-3.5-15.4.1-.5-1.4-5.5 2.1-4.5-.6-2.4-1.6-1.3.7-4.7-.2-1.7-1.4-5.3-2.1-.8.1-4.3-1.5-1.9 1.8-6.2-.3-5.9-4.1.7-.8.2-7.8-2.3-3.9-4.1-.6-.7-2.5-2.4-.5-5.8 2.1-2.3 6.5-3.2 10-3.2 6.5-5 14.1-6.5 13.6-8.1 12.6-1.9 2.9-.8 8.6-1.3 6 2.7 3.5 6.7 2.2 11.6 3.3 7.9 2.5 12.4 3.6 13.3 3.6 13.2 3.6M644.3 227.9l-.4-7.5-2-7.3-1.8-13.6-.5-9.8-2-3.1-1.6-5.3V171l.7-3.9-2.1-5.5-28.4-.6-18.6-.6-26.5-1.3-24.9-1.9-1.3 14.2-1.4 15.1-2.3 24.9-.5 11 56.8 3.8 56.8 1.7zm1.5 75.5l-1-1.1-1.5-3.6 1.8-3.7 1.1-5.6-2.6-2.1-.3-2.7.6-3 2.2-.8.3-5.7-.1-30.1-.6-3-4.1-3.6-1-2v-1.9l1.9-1.3 1.5-1.9.2-2.7-57.4-1.6-56.2-3.9-.8 5.3-1.6 15.9-1.3 17.9-1.6 24.6 16 1 19.6 1.1 18 1.3 23.8 1.3 10.7-.8 2.9 2.3 4.3 3 1 .8 3.5-.9 4-.3 2.7-.1 3.1 1.2 4.5 1.4 3.1 1.8.6 1.9.9 1.9.7-.5 1.1.2zm11.4 43.8l1.4 2.7.1 2.1 2.4 3.7 2.7 3.2h-5l-43.5-.9-40.8-.9-21.2-1 1.1-21.3L521 332l4.3-44 15.5 1 20.1 1.1 17.8 1.1 23.8 1.1 10.7-.5 2.1 2.3 4.8 3 1.1.9 4.3-1.4 3.9-.5 2.7-.2 1.8 1.4 5 1.6 3 1.6.5 1.6.9 2.1h2.6l1 5.2 2.7 8 1.2 4.6 2.1 3.8.5 4.9 1.4 4.3.5 6.5"/><path d="M739.6 301.8l.2 1.9 2.3 1.1 1.1 1.3.3 1.3 3.9 3.2.7 2.2-.8 2.9-1.5 3.5-.8 2.8-2.2 1.6-1.7.6-5.5 1.5-.7 2.3-.8 2.3.6 1.4 1.7 1.7v3.7l-2.2 1.6-.5 1.5v2.5l-1.5.5-1.7 1.4-.5 1.5.5 1.7-1.4 1.2-2.3-2.7-1.5-2.6-8.3.8-10.2.6-25 .7-13 .2-9.4.2-1.3.1-1.7-4.5-.2-6.6-1.6-4.1-.7-5.3-2.3-3.7-.9-4.8-2.7-7.5-1.1-5.4-1.4-2.2-1.6-2.7 1.8-4.3 1.4-5.7-2.7-2.1-.5-2.7.9-2.5h13.3l49.6-.7 19.9-.7 1.8 2.7 1.8 2.6.5.8-1.8 2.8.5 4.2 2.5 3.9 3 1.8 2.4.2 1.3 2zm58 265.4l-.3 1.3h-5.2l-1.5-.8-2.1-.3-6.8 1.9-1.8-.8-2.6 4.2-1.1.8-1.1-2.5-1.1-3.9-3.4-3.2 1.1-7.5-.7-.9-1.8.2-8.2.7-24.2.7-.5-1.6.7-8 3.4-6.2 5.3-9.1-.9-2.1h1.1l.7-3.2-2.3-1.8.2-1.8-2.1-4.6-.3-5.3 1.4-2.7-.4-4.3-1.4-3 1.4-1.4-1.4-2.1.5-1.8.9-6.2 3-2.7-.7-2.1 3.7-5.3 2.7-.9v-2.5l-.7-1.4 2.7-5.3 2.7-1.1.1-3.4 8.7-.1 24.1-1.9 4.6-.2v6.4l.2 16.7-.8 31-.2 14.1 2.7 18.8 1.7 15.2zm-6.2-166.1l.1-2.9.5-4.5 2.3-2.9 1.8-3.9 2.6-4.2-.5-5.8-1.8-2.7-.3-3.2.8-5.5-.5-7-1.3-16-1.3-15.4-1-11.7 3.1.9 1.5 1 1.1-.3 2.1-1.9 2.8-1.6 5.1-.2 22-2.3 5.6-.5 1.5 16 4.2 36.8.6 5.8-.4 2.3 1.2 1.8.1 1.4-2.5 1.6-3.5 1.5-3.2.5-.6 4.9-4.6 3.3-2.8 4 .3 2.4-.6 1.5h-3.3l-1.6-1.6-2.5 1.3-2.7 1.5.2 3.1-1.2.3-.5-1-2.2-1.5-3.2 1.3-1.6 3-1.4-.8-1.5-1.6-4.5.5-5.6 1-2.8 1.3zm-.6.7v-3.6l.3-4.9 2.4-3.1 1.8-3.8 2.6-3.9-.4-5.3-2-3.5-.1-3.3.7-5.3-.8-7.2-1.1-15.8-1.3-15-.9-11.6-.3-.9-.8-2.6-1.3-3.7-1.6-1.8-1.5-2.6-.2-5.5-9.9 1.3-27.2 1.7-8.7-.4.2 2.4 2.3.7.9 1.1.5 1.8 3.9 3.4.7 2.3-.7 3.4-1.8 3.7-.7 2.5-2.3 1.8-1.8.7-5.3 1.4-.7 1.8-.7 2.1.7 1.4 1.8 1.6-.2 4.1-1.8 1.6-.7 1.6v2.7l-1.8.5-1.6 1.1-.2 1.4.2 2.1-1.7 1.3-1 2.8.5 3.7 2.3 7.3 7.3 7.5 5.5 3.7-.2 4.3.9 1.4 6.4.5 2.7 1.4-.7 3.7-2.3 5.9-.7 3.2 2.3 3.9 6.4 5.3 4.6.7 2.1 5 2.1 3.2-.9 3 1.6 4.1 1.8 2.1 1.9-.8.7-2.2 2-1.4 3.2-1.1 3.1 1.2 2.9 1.1.8-.2-.1-1.2-1.1-2.8.4-2.4 2.3-1.6 2.4-1 1.2-.4-.6-1.3-.8-2.2 1.2-1.3.9-2.8zM644.9 228.7l-.5-8.5-1.8-7.3-1.8-13.5-.5-9.8-1.8-3.4-1.6-5v-10.3l.7-3.9-1.8-5.5h30.1l.3-8.2.6-.2 2.3.5 1.9.8.8 5.5 1.5 6.1 1.6 1.6h4.9l.3 1.5 6.3.3v2.1h4.8l.3-1.3 1.1-1.1 2.3-.6 1.3 1h2.9l3.9 2.6 5.3 2.4 2.4.5.5-1 1.5-.5.5 2.9 2.6 1.3.5-.5 1.3.2v2.1l2.6 1h3.1l1.6-.8 3.2-3.2 2.6-.5.8 1.8.5 1.3h1l1-.8 8.9-.3 1.8 3.1h.6l.7-1.1 4.4-.4-.6 2.3-3.9 1.8-9.2 4.1-4.8 2-3.1 2.6-2.4 3.6-2.3 3.9-1.8.8-4.5 5-1.3.2-3.8 2.9-2.8 3.2-.2 3 .2 7.8-1.6 1.6-5.3 4.1-1.8 5.7 2.5 3.6.5 2.5-1.2 3-.2 3.7.5 7.1 3.4 4.1h3l2.5 2.3 3.2 1.4 3.7 5 7.1 5 1.8 2.1.2 5.5-20.6.7-60.2.5-.3-35.7-.5-3-4.1-3.4-1.1-1.8v-1.6l2.1-1.6 1.4-1.4v-3.5zm141 68.7l.4-3-1.6-4.5-.6-6.1-1.1-2.4 1-3.1.8-2.9 1.5-2.6-.6-3.4-.6-3.6.5-1.8 1.9-2.4.2-2.7-.8-1.3.6-2.6.5-3.2 2.7-5.7 2.9-6.8.2-2.3-.3-1-.8.5-4.2 6.3-2.8 4-1.9 1.8-.8 2.3-1.5.8-1.1 1.9-1.5-.3-.2-1.8 1.3-2.4 2.1-4.7 1.8-1.6 1.1-2.3-1.6-.9-1.4-1.4-1.6-10.3-3.7-1.1-1.4-2.3-12.6-2.7-2.5-1.1-8.2-2.3-8.2-1.1-4.2-5.4-.5 1.3-1.1-.2-.6-1.1-2.7-.8-1.1.2-1.8 1-1-.6.6-1.9 1.9-3.1 1.1-1.1-1.9-1.5-2.1.8-2.9 1.9-7.4 3.2-2.9.6-3.2-.6-1-.9-2.1 2.8-.2 2.7v8.5l-1.1 1.6-5.3 3.9-2.3 5.9.5.2 2.5 2.1.7 3.2-1.8 3.2v3.9l.5 6.6 3 3h3.4l1.8 3.2 3.4.5 3.9 5.7 7.1 4.1 2.1 2.7.9 7.4.7 3.3 2.3 1.6.2 1.4-2.1 3.4.2 3.2 2.5 3.9 2.5 1.1 3 .5 1.3 1.4h9.2l26.1-1.5 10-1.2zm-57.1 52.3l-2.5-3.1-1.1-2.3-7.8.7-9.8.5-25.4.9-13.5.2-7.9.1-2.3.1 1.3 2.5-.2 2.3 2.5 3.9 3.1 4.1 3.1 2.7 2.3.2 1.4.9v3l-1.8 1.6-.5 2.3 2.1 3.4 2.5 3 2.5 1.8 1.4 11.7-.7 35.3.2 4.7.5 5.4 23.4-.1 23.2-.7 20.8-.8 11.7-.2 2.2 3.4-.7 3.3-3.1 2.4-.6 1.8 5.4.5 3.9-.7 1.7-5.5.7-5.9 2.3-2 1.7-1.5 2.1-1 .1-2.9.6-1.7-1-1.7-2.7.1-2.2-2.6-1.4-4.2.8-2.5-1.9-3.4-1.8-4.6-4.8-.8-7-5.6-1.7-4.1.8-3.2 2.1-6.1.5-2.9-2-1-6.9-.8-1-1.7-.1-4.2-5.5-3.4-7-7.8-2.3-7.3-.5-4.2.8-2.3zm35.2 95.5l-3.8.9-6.2-.5.7-3 3.2-2.7.5-2.3-1.8-3-11 .5-20.8.9-23.3.7-23.3.5 1.6 6.9v8.2l1.4 11 .2 37.8 2.3 1.9 3-1.4 2.7 1.1.4 10.3 22.9-.1 18.9-.8 10.1-.2 1.1-2.1-.3-3.5-1.8-3 1.6-1.5-1.6-2.5.7-2.5 1.4-5.6 2.5-2.1-.7-2.3 3.7-5.4 2.7-1.4-.1-1.5-.3-1.8 2.9-5.6 2.4-1.3.4-3.4 1.8-1.2.9-4.2-1.3-4 4-2.4.5-2 1.2-4.3.6-3.1zm-215.7-22.4l-10.7-.5-6.4-.5.3.2-.7 10.4 22 1.4 32.1 1.3-2.3 24.4-.5 17.8.2 1.6 4.3 3.7 2.1 1.1.7-.2.7-2.1 1.4 1.8h2.1V482l2.7 1.4-.5 3.9 4.1.2 2.5 1.1 4.1.7 2.5 1.8 2.3-2.1 3.4.7 2.5 3.4h.9v2.3l2.3.7 2.3-2.3 1.8.7h2.5l.9 2.5 4.8 1.8 1.4-.7 1.8-4.1h1.1l1.1 2.1 4.1.7 3.7 1.4 3 .9 1.8-.9.7-2.5h4.3l2.1.9 2.7-2.1h1.1l.7 1.6h4.1l1.6-2.1 1.8.5 2.1 2.5 3.2 1.8 3.2.9 1.9 1.1-.4-37.2-1.4-11-.2-8.9-1.4-6.5-.8-7.2-.1-3.8-12.1.3-46.4-.5-45-2.1-24.1-1.1zm128.1 2.5l-12.6.2-46.1-.5-44.6-2.1-24.6-1.3 4.1-64.7 21.8.8 40.5 1.4 44.1.5h5.1l3.2 3.2 2.8.2.9 1.1v2l-1.8 1.6-.5 2.6 2.2 3.6 2.5 3.1 2.5 2 1.1 11.2-.6 35.1zm98.8 147.9l-1-2.6-1.1-3.1-3.3-3.5.9-6.8-.1-1.1-1.3.3-8.2.9-25 .5-.7-2.4.9-8.5 3.3-5.9 5-8.7-.6-2.4 1.3-.7.5-2-2.3-2.1-.1-1.9-1.8-4.3-.6-5.9-9.7.1-19.2.9h-22.2v9.6l.7 9.4.7 3.9 2.5 4.1.9 5 4.3 5.5.2 3.2.7.7-.7 8.5-3 5 1.6 2.1-.7 2.5-.7 7.3-1.4 3.2.1 3.6 4.7-1.5 8.1-.3 10.3 3.6 6.5 1.1 3.7-1.5 3.2 1.1 3.2 1 .8-2.1-3.2-1.1-2.6.5-2.7-1.6s.2-1.3.8-1.5c.6-.2 3.1-1 3.1-1l1.8 1.5 1.8-1 3.2.6 1.5 2.4.3 2.3 4.5.3 1.8 1.8-.8 1.6-1.3.8 1.6 1.6 8.4 3.6 3.6-1.3 1-2.4 2.6-.6 1.8-1.5 1.3 1 .8 2.9-2.3.8.6.6 3.4-1.3 2.3-3.4.8-.5-2.1-.3.8-1.6-.2-1.5 2.1-.5 1.1-1.3.6.8s-.2 3.1.6 3.1 4.2.6 4.2.6l4 1.9 1 1.5h2.9l1.1 1 2.3-3.1v-1.5h-1.3l-3.4-2.7-5.8-.8-3.2-2.3 1.1-2.8 2.3.3.2-.6-1.8-1v-.3h3.2l1.8-3.1-1.3-1.9-.3-2.8-1.5.2-1.9 2.1-.6 2.6-3.1-.6-1-1.8 1.8-1.9 2-1.8-.1-.8zm226.7-203.7l-.1-1.9 6.5-2.5-.8 3.2-2.9 3.8-.4 4.6.5 3.4-1.8 5-2.2 1.9-1.5-4.6.4-5.5 1.6-4.2.7-3.2zm2.3 28.3L946 410.3l-37.4 5.3-6.7-.4-2.6 1.9-7.3.2-8.4 1-8.9 1 8.5-4.9v-2.1l1.5-2.1 10.6-11.5 3.9 4.5 3.8 1 2.5-1.1 2.2-1.3 2.5 1.3 3.9-1.4 1.9-4.6 2.6.5 2.9-2.1 1.8.5 2.8-3.7.3-2.1-1-1.3 1-1.9 5.3-12.3.6-5.7 1.2-.5 2.2 2.4 3.9-.3 1.9-7.6 2.8-.6 1-2.7 2.6-2.3 1.3-2.3 1.5-3.4.1-5.1 9.8 3.8c.7.3.7-4.8.7-4.8l4 1.4-.5 2.6 8.2 2.9 1.3 1.8-.9 3.7-1.3 1.3-.5 1.7.5 2.4 2 1.3 3.9 1.4 3 1 4.9.9 2.2 2.1 3.2.4.9 1.2-.4 4.7 1.4 1.1-.5 1.9 1.2.8-.2 1.4-2.7-.1.1 1.6 2.3 1.5.1 1.4 1.8 1.8.5 2.5-2.6 1.4 1.6 1.5 5.8-1.7 3.6 6.3zm-29.4-43.7l-1.1-1.6-1-.8 1.1-1.6 2.2 1.5-1.2 2.5z"/></g></svg>