<svg xmlns="http://www.w3.org/2000/svg" version="1" width="959" height="593"><path d="M805.216 266.062l.202-.658 4.31-.062 3.073.97 2.102.323.97-2.1-1.455-2.103v-1.778l-2.425-2.102-2.1-5.496 1.292-5.335-.162-2.1-1.293-1.294s1.454-1.617 1.454-2.263c0-.647.485-2.102.485-2.102l1.94-1.292 1.94-1.617.484.97-1.455 1.618-1.294 3.718.323 1.132 1.777.323.485 5.497-2.1.97.322 3.557.485-.162 1.13-1.94 1.617 1.78-1.616 1.292-.323 3.395 2.587 3.394 3.88.485 1.616-.81 3.237 4.183 1.358.537.698.31.144 1.946-.767 3.097-1.587 4.183-.446 5.45 1.47 4.64 2.164-1.916 1.83-4.978-.462-3.39.418-4.586 2.92-3.78.77-3.217-.497-.557 2.006-4.024.227-4.865-.226-.714-2.264-7.354-.97.485-3.556-2.424-1.78-4.688-1.94-3.557-2.262-.97-2.1-3.555.498-2.102.51.504 1.092 2.244 3.233 2.91 4.85 2.265 4.042.646.16 1.456-.807.97.323 2.748h.81l2.1-2.425.81-4.85 2.747-4.042 3.07-6.466 1.133-5.497-.647-1.13-.162-9.378-1.617-3.395-1.13.81-2.75.322-.484-.485 1.132-.97 2.102-1.94.063-1.095.54-.085 1.175.533 4.04-1.132 5.82-1.94 2.588-.97 7.113-5.334 3.88-2.91 3.393-3.556-4.203-1.617-1.293 1.455-2.91 2.748-7.92 3.88-2.265-.16-1.616-.648-1.132.647-2.263 2.586-1.454 1.294-1.293.324-.324-1.294 1.94-1.778-.797-1.678 1.014.23 4.956-3.402 3.556-3.233 1.94-2.1.807.645 2.748-1.455 5.174-1.13 7.043-3.493.877-.227 2.91-.97 2.425-1.94 1.13-1.778 1.295.162 2.91-1.536.52-.373 2.066-1-.485-2.263.81-1.455 2.91-1.456.808 3.07-.485 1.78-2.425 1.455v.97l1.94-1.456 3.88-4.527 3.88-1.94 4.203-1.455-.323-2.425-.97-2.91-1.94-2.424-1.778-.81-2.103.163-.484.485.97 1.294 1.454-.808 2.102 1.617.807 2.748-1.778 1.78-2.264.97-3.557-.486-3.88-5.98-2.264-2.588h-1.778l-1.132.808-1.94-2.586.324-1.455 2.425-5.173-2.89-4.413-.566-.492.868-1.077 1.09-3.29.373-1.12 1.125-6.26.16-4.364 1.456-1.293-.97-3.233 3.073-3.556 1.616 1.456 1.293-.485 5.334-3.07.324-2.91 2.91-.486 1.617-2.586-.16-1.617-.325-3.07.81-1.294-.325-1.13-1.293-1.456 2.102-1.293 1.778 3.233 1.455-.324.322 1.294v1.616l1.94.162.485-2.748.485-.647-1.617-1.455.97-1.455 2.425-1.455.97-1.455 1.778-.16s.324 2.1.97 2.1h1.294l4.85-5.496 3.394-3.072 1.94-.646 2.102-4.69v-1.94l-2.263-3.718-1.94-2.1-2.748.16.485 1.132-.162.485h-.808l-2.91-2.264-.162-4.85-.808-1.94h-5.982l-9.053-29.907-1.94-.97-5.98-2.426-1.456-.162-1.777 1.78-4.042 2.908v.97l-.807.81-2.748-.648-1.294-2.263v-1.133l-1.292-.16h-1.293l-2.102 4.202-2.91 8.89-1.778 4.85.162 4.85.16 1.455-.807 2.748-.808.97v5.98l1.94 2.426-1.455 4.04-2.587 4.69-.808 5.495v2.587l-1.514-.41-1.42.118-.857.46-.896-.007-.647 1.617-.647-.485-.97-.97-1.454 1.94-.05 5.032-.92.302-26.247 6.747-.623.396-7.565 2.072-4.527 1.454-3.233-.162-5.496 1.293-3.082 1.247-2.415 1.826-2.102 2.425-2.75 3.718-2.908 4.526-1.455 2.91-.647.808-5.82 5.497.162 2.586.808 1.132 1.778.808h1.78v1.455l-1.133 2.102.323 1.455 1.455 2.1-.16 2.265-1.94 1.13h-2.102l-1.616 1.94-1.78 3.234-2.1 1.78-5.173.484-2.588 1.13-2.102 1.295-1.616-.162-1.94-1.292-6.305.16-3.234.486-4.042 1.294-4.364 1.454-2.91 1.78 1.94 6.142 1.778.162 1.293 3.07.163.97-1.132.97-2.1 2.75-.485 1.616-1.94 1.778-1.78 1.132-.968 1.616-1.294 1.132-1.428 1.125-1.006.52-5.488 5.63-1.293.485-4.204 3.01-1.02-.112-6.094 4.053-3.88 2.264-3.394 3.718-4.042 3.88-3.233.81-2.91.484-5.496 2.586-2.102.162-3.395-3.072-5.173.647-2.587-1.456-2.38-1.35-1.153-.326.14-.587.16-1.454 2.102-3.718 2-1.738-.223-5.052 1.597-1.597 1.09-.342.223-3.557 1.536-3.03 1.05.607.162.646.808.162 1.94-.97-.323-9.538-3.233-8.245-2.263-9.053-2.425-3.234-2.588-1.778-1.616 1.13-3.88 1.78-1.94 5.01-2.748 3.72-1.132.646-1.455-.647s-2.586-1.455-2.424-2.1c.162-.648.485-5.013.485-5.013l3.396-1.293.808-3.394.647-2.586 2.426-1.617-.324-10.023-1.616-2.263-1.293-.81-.81-2.1.81-.808 1.616.322.16-1.617-2.424-2.263-1.293-2.587h-2.587l-4.526-1.455-5.497-3.394h-2.748l-.647.646-.97-.485-3.07-2.263-2.91 1.778-2.91 2.264.322 3.556.97.323 2.102.485.485.81-2.587.807-2.586.323-1.455 1.78-.325 2.1.324 1.617.322 5.496-3.556 2.102-.647-.162v-4.203l1.292-2.425.647-2.425-.81-.808-1.94.808-.97 4.203-2.748 1.132-1.778 1.94-.162.97.647.808-.648 2.587-2.263.485v1.13l.808 2.426-1.132 6.144-1.617 4.042.646 4.688.485 1.132-.807 2.425-.324.81-.324 2.747 3.556 5.98 2.91 6.468 1.455 4.85-.808 4.688-.97 5.98-2.426 5.174-.323 2.75-3.258 3.084-1.025.795-2.83 1.617-2.1 1.94-1.132.323-1.455-.97-3.07-.89-.86.195-.274-.92-.808-2.588-1.293-3.718-1.617-1.778-1.455-2.587-.233-5.49-.3-1.08.372-2.97-1.617-4.525-.647-6.143-1.13-2.425.97-3.072.807-2.91 1.455-2.586-.647-3.396-.646-3.557.485-1.778 1.94-2.426.16-2.748-.807-1.293.647-2.587.485-3.233 2.748-5.658 2.91-6.79.16-2.263-.322-.97-.808.485-4.203 6.305-2.75 4.04-1.94 1.78-.807 2.263-1.455.808-1.13 1.94-1.456-.324-.162-1.78 1.293-2.424 2.102-4.688 1.778-1.616 1.1-2.292.57-.892 3.18-7 .97-4.043 1.94-4.364.808-.16 1.132 1.616h.646l4.528-2.425 1.455 1.617.485.162 1.293-1.133 1.133-3.07 2.425-.81 6.95-.646 1.94-2.586 5.174-.16 5.82 1.292h1.778l3.233-1.455 2.264.163 2.1-.647 3.72.485.808.324 1.293-.323-1.293-.97-1.294-.646-3.232-3.07v-6.953l-1.455-.484-1.13 1.132-6.145 1.617-1.94.485-2.91-.81-.484-.322v-5.658l-1.455-.162-2.588 1.293-4.526 1.94-6.628.325-3.395 1.13-4.042 3.558-1.615.97h-1.132l-1.293.808-1.617-.484-1.617-1.293-1.454.97-3.88.16-2.75-2.747-1.453-3.07-1.456-1.133-3.234-.97h-2.263l-1.293-1.293-3.557 2.91-.97 1.13-.808-.484.322-2.586 2.425-3.233.485-2.425 2.263-.81 1.455-3.07 3.72-.97.322-.97-1.132-1.132-4.688.485-4.365 2.425-2.263 2.263-1.293 1.78-1.777.807-1.94 2.91-.162 1.293-4.364 2.102-2.425 1.94-5.98.97-.647.646v.97l-3.556 2.264-2.75.81-.715.58-1.017.42-.53 1.262-1.13-.162-.648-1.13-2.748-.81-1.133.162-1.778.97-.97-.647.645-1.94 1.94-3.072 1.132-1.132-1.94-1.455-2.102.81-2.91 1.94-7.436 3.233-2.91.646-2.91-.486-.982-.878-.435-.552 3.84-2.934 1.295-.162 4.526-5.01 1.778-.81 2.264-3.88 2.425-3.556 3.072-2.587 4.775-2.007 9.246-4.06 3.938-1.838.613-2.28-4.44.37-.713 1.086h-.647l-1.778-3.072-8.89.323-.97.81h-.97l-.486-1.295-.81-1.778-2.586.485-3.233 3.232-1.616.81h-3.07l-2.588-.97v-2.103l-1.293-.163-.485.485-2.587-1.293-.484-2.91-1.455.484-.484.97-2.425-.485-5.333-2.426-3.88-2.586h-2.91l-1.294-.97-2.263.646-1.13 1.132-.325 1.293h-4.85v-2.102l-6.304-.324-.323-1.455h-4.85l-1.616-1.617-1.454-6.143-.808-5.497-1.94-.808-2.263-.485-.647.162-.323 8.244-30.133-.035-1.097-.046-28.423-.564-18.59-.647-26.513-1.293-24.948-1.884-1.284-.482-30.674-2.807-29.26-3.557-29.26-4.04-32.333-5.336-18.428-3.395-32.724-6.934-1.123-.16-12.996-2.528-.722-.402-15.16-3.395-22.956-5.657-20.046-5.658-8.568-1.94-9.7-2.748-4.365-1.455-1.13.808-.325.808 2.425 4.85 1.132 2.587-1.778 3.556v2.265l.646 1.454-.808 1.778.485 3.233.97 1.294-.162 1.294-1.455.16-.646-1.94-1.132-2.424-1.778-1.455.323-2.102 2.263-.485-.323-1.778-.323-1.132-2.102 1.293-1.293 1.132v2.425l-2.263.16-3.396-.97-2.91-1.453-3.072-.647-4.526-2.102-3.233-1.94-2.75-2.585-2.424-2.91-2.102-.485-2.263 9.376 1.778 3.233v7.92l-.647 2.91 1.455 7.114 2.75 2.748-4.366.647-.16 3.717 2.585 1.13-1.617 4.043-2.748.323-.324 2.91 2.264 2.91-2.1 2.587-2.264 6.466-3.234 10.023-3.233 6.465-5.01 14.065-6.468 13.58-8.083 12.61-1.94 2.91-.808 8.567-1.293 5.98 2.71 3.53-.482.96-1.58 4.726-.162 7.436-5.173 11.8-3.072 2.587-.322 1.132-1.778.807-1.455 4.203-.81 3.233 2.75 4.203 1.616 4.204 1.133 3.556-.324 6.467-1.78 3.07-.645 5.82-.97 3.72 1.778 3.88 2.748 4.525 2.264 4.85 1.294 4.042-.324 3.233-.323.485v2.102l5.66 6.304-.486 2.425-.647 2.262-.646 1.94.162 8.245 2.102 3.718 1.94 2.587 2.748.485.97 2.748-1.13 3.557-2.103 1.616h-1.133l-.808 3.88.484 2.91 3.233 4.365 1.617 5.335 1.455 4.688 1.292 3.07 3.395 5.82 1.455 2.588.485 2.91 1.616.97v2.424l-.808 1.94-1.778 7.113-.485 1.94 2.425 2.75 4.203.484 4.526 1.78 3.88 2.1h2.91l2.91 3.072 2.587 4.85 1.13 2.263 3.88 2.1 4.85.81 1.456 2.1.646 3.234-1.455.646.324.97 3.233.81 2.748.16 2.91 4.688 3.88 4.204.808 2.263 2.587 4.203.323 3.233v9.377l.485 1.78 10.023 1.454 19.724 2.75 13.907.974 1.007.746-2.627 2.16-.323 1.454.485.97 18.914 10.67 12.124 7.597 14.712 8.57 16.812 10.022 12.286 2.425 25.128 2.705 1.605.802 15.46 1.99 1.294-10.023 16.65 2.587 12.457 1.618h.962l1.94.484 2.586 2.91 1.455 4.364 4.69 2.263 1.292 3.233 7.112 7.92 1.293 1.618 5.012 2.102 1.13 2.1 1.618.97.485 2.75 3.233 6.466v8.083l2.263 4.687 7.437 7.76 5.173 2.1 1.778 1.94v.648l3.88 2.263 1.94.647 1.778 1.13 2.587.97 2.424-2.424 4.364-6.142.97-3.718 2.264-3.233 3.556-1.455 4.527-1.778 3.07 2.263 7.438.647 6.79 1.13 2.586 2.103v1.13l2.585 3.073 5.982 5.335.162 1.455 1.777 1.94.808 4.203 5.335 12.286-.162 1.94 4.203 2.585 3.558 6.63 3.395 4.363 3.233 1.294 1.617 2.263-1.294 4.365.646.97 1.293.646-.324 3.395-.647.648.646 2.263 3.233 1.94 1.292 6.467 2.102 3.88 7.598 3.395 5.173 1.132 4.203 3.07 3.234.648 1.293-.485 5.496 1.132 5.66 3.878 3.07-1.94.97-1.454-1.777-2.75-.97-6.142-1.78-6.95-.807-2.426.808-4.527 1.132-3.88 1.293-4.527 1.454-5.496-2.263-1.94.97-1.94 4.043-.324 3.88-5.496 3.394-.647 5.82-3.556 1.778-1.455 6.305-3.396 5.658-2.425 5.335-3.234 2.748-2.102 5.66-5.334 1.293-.81 2.1-1.454 2.588-1.94.97-1.94 9.862-4.526 5.665-1.585.64-.128 4.688-1.52 8.083-.324 10.346 3.557 6.467 1.132 3.72-1.455 3.232 1.13 3.233.97.81-2.1-3.235-1.132-2.586.485-2.748-1.617s.16-1.293.808-1.455c.647-.16 3.07-.97 3.07-.97l1.78 1.455 1.778-.97 3.233.647 1.455 2.425.323 2.263 4.527.324 1.778 1.778-.808 1.616-1.293.81 1.616 1.615 8.407 3.558 3.556-1.293.97-2.425 2.587-.647 1.778-1.455 1.294.97.808 2.91-2.263.808.646.647 3.395-1.293 2.264-3.395.808-.485-2.1-.324.807-1.616-.163-1.455 2.102-.485 1.13-1.293.647.808s-.16 3.07.647 3.07c.808 0 4.203.648 4.203.648l4.042 1.94.968 1.455h2.91l1.132.97 2.263-3.072v-1.455h-1.293l-3.395-2.747-5.82-.808-3.233-2.263 1.132-2.75 2.263.325.162-.647-1.78-.97v-.485h3.234l1.778-3.07-1.293-1.94-.325-2.75-1.455.162-1.94 2.102-.646 2.585-3.072-.646-.97-1.78 1.778-1.94 2.02-1.778.758-.515 1.102-.778 2.587-4.204 1.778.808 6.79-1.94 2.1.323 1.456.81h5.175l.254-1.257 1.038-.2h2.748l.647.162 1.293-2.748 1.455-4.365 2.264.646 3.072 5.98v.97l-2.748 1.94 2.748.325 5.542-2.572.678.114 3.48-.613 5.98-2.102 5.982-.485 4.365-.647 7.598 1.778 8.084 3.88 1.617 1.455 2.91 1.13 1.617 1.94.324 2.75 3.234-1.295h3.88l3.556-1.94 3.718-3.556 3.072.16.485-1.13-.808-.97.16-1.94 4.043-.81h2.586l2.91 1.456 4.203 1.455 2.424 3.72 2.748.97 1.132 3.394 3.395 1.616 1.616 2.587 1.94.647 5.173 1.293 1.292 3.07 3.07 3.72v9.538l-1.453 4.688.322 2.748 1.293 4.85 1.778 4.042.81-.485 1.454-4.526-2.587-.97-.323-.646 1.616-.646 4.527.97.162 1.616-3.234 5.497-2.1 2.426 3.555 3.718 2.587 3.07 2.91 5.336 2.91 3.88 2.1 5.01 1.78.325 1.616-2.102 1.778 1.132 2.587 4.04.648 3.558 3.07 4.365.81-1.294 3.88.324 3.556 2.263 3.395 5.174.807 3.395.323 2.91 1.132.97 1.293.484 2.425-.97 1.455-1.617 3.88-.162 3.07-1.454 2.75-3.233-.485-1.94-.324-2.425.647-1.94-.323-1.94 2.425-1.293.323-3.396-.647-1.778-.484-11.963-1.293-7.598-4.527-8.244-3.556-5.82-2.587-5.334-2.91-2.91-2.91-7.436.81-1.293 1.13-1.294-1.616-2.91-4.042-3.718-4.85-5.496-3.718-6.306-5.334-9.376-3.73-9.743-2.266-7.318-.02-.89-.774-6.298 2.263-10.024 1.455-4.204-.484-2.586 3.335-6.244-.51-1.352.57-.972 2.103-1.293 5.01-5.497-.97-3.233 2.91-.162 3.557-3.395 1.617-.808 2.263-3.395 2.75-2.748 2.1-3.557 2.425-.646 1.132-2.748 1.616-.81.485-6.303 2.587-6.144 5.42-5.46.28-.802 5.454-1.337 4.688-.484.485-2.425 1.94-6.465 3.394-4.688 6.467-5.335 5.173-2.425 2.748-.646 1.132.486h1.293l3.072-4.85 1.94-3.557-1.294.484-2.263 2.263-.647-1.616h-4.203l1.94-6.304-.808-1.293h-1.94v-.97l-.323-1.293 1.616 1.293 1.455.16 2.425.325 3.718-1.617 1.293-2.91.648-2.1 2.587-1.294.323-4.203-.808-.646 2.425-.162-.647-2.263-2.425-2.425-3.556-6.467-1.71-4.698-.92-.925-3.608-6.012-5.802 1.686-1.573-1.493 2.553-1.382-.49-2.524-1.775-1.784-.12-1.412-2.282-1.543-.088-1.614 2.694.094.222-1.384-1.23-.79.48-1.93-1.375-1.103.44-4.69-.87-1.2-3.19-.402-2.152-2.088-4.855-.942-2.95-.968zm-37.273 311.85l2.425-.647 1.293-.242 1.456-2.344 2.344-1.618 1.293.485 1.698.323.405 1.05-3.476 1.214-4.204 1.455-2.344 1.21-.89-.888zm13.498-5.012l1.214 1.05 2.748-2.1 5.335-4.204 3.718-3.88 2.506-6.628.97-1.697.162-3.394-.727.485-.97 2.83-1.455 4.607-3.233 5.254-4.365 4.205-3.395 1.94-2.506 1.535zm54.562-241.44l2.587-2.506 3.15-2.587 1.537-.646.16-2.02-.645-6.143-1.455-2.344-.647-1.86.728-.242 2.748 5.498.404 4.445-.162 3.395-3.395 1.536-2.83 2.425-1.13 1.21-1.05-.16zm63.975-157.61l2.172-.685.456-1.714 1.03.115 1.028 2.286-1.258.458-3.886.115.457-.572zm-9.373.8l2.286-2.628h1.6l1.83 1.486-2.4 1.03-2.173 1.028-1.143-.915zm11.68-67.172l1.535-1.536 1.373 1.05.566 2.426-1.7.89-1.777-2.83zm6.708-5.9l1.778 1.86s1.293.08 1.293-.244c0-.323.243-2.02.243-2.02l.89-.81-.81-1.777-2.02.727-1.374 2.264zm-88.67 162.71l1.13 2.507.162 1.778 1.132 1.86s.89-.89.89-1.213c0-.323-.73-3.07-.73-3.07l-.726-2.346-1.86.485zM581.618 82.06l1.828-2.057 2.172-.8 5.373-3.885 2.286-.572.456.457-5.144 5.144-3.315 1.944-2.057.914-1.6-1.143zm86.174 32.13l.646 2.505 3.234.162 1.293-1.213s-.08-1.455-.404-1.616c-.324-.162-1.617-1.86-1.617-1.86l-2.182.243-1.617.16-.323 1.132.97.485zM84.117 12.34l2.02-.16.485 1.373 1.536-1.616h2.344l.808 1.535-1.535 1.698.646.808-.726 2.02-1.374.405s-.89.08-.89-.242c0-.323 1.456-2.586 1.456-2.586l-1.698-.566-.323 1.455-.728.647-1.535-2.264-.485-2.505zM457.23 567.324l-.566-7.113-2.748-7.194-.566-7.032 1.536-8.245 3.314-6.872 3.476-5.415 3.152-3.557.647.243-4.77 6.627-4.364 6.547-2.02 6.628-.323 5.173.89 6.144 2.586 7.192.485 5.174.16 1.455-.888.243zM48.794 337.037l1.293 1.536-.162 1.293-3.233-.08-.566-1.213-.646-1.455 3.314-.08zm1.94 0l1.212-.647 3.557 2.102 3.07 1.212-.888.647-4.527-.242-1.616-1.616-.808-1.455zm20.692 19.803l1.778 2.344.81.97 1.535.566.564-1.455-.97-1.778-2.667-2.02-1.05.16v1.213zm-1.455 8.65l1.78 3.152 1.212 1.94-1.455.242-1.293-1.212s-.728-1.455-.728-1.86v-2.182l.485-.08z" fill="#d3d3d3"/></svg>