<svg version="1.1" xmlns="http://www.w3.org/2000/svg" xmlns:xlink="http://www.w3.org/1999/xlink" x="0px" y="0px" width="564.3px"
	 height="135.1px" viewBox="0 0 564.3 135.1" style="overflow:visible;enable-background:new 0 0 564.3 135.1;"
	 xml:space="preserve">
<defs>
</defs>
<g>
	<path d="M444.3,0c1.9,1.4,3.8,2.7,5.6,4.3c5.6,4.9,10.2,10.5,12.2,17.9c2.1,7.7,1,15.2-1.9,22.5c-1.8,4.5-4,8.8-6.2,13.4
		c1.8,1.5,3.8,3.2,5.8,4.9c7.9,6.9,17.3,10.4,27.5,12.1c6.3,1,12.7,1.5,19,2.3c0.7,0.1,1.1,0,1.4-0.8c2.3-6.2,4.7-12.3,6.1-18.8
		c0-0.1,0-0.3,0.1-0.5c-1.1-0.3-2.2-0.5-3.4-0.8c-3.7-0.9-7-2.4-9.8-5.1c-4.4-4.2-6-9.4-4.8-15.4c0.8-4.1,2.3-7.8,4.9-11.1
		c2.1-2.7,5-4.2,8.4-4.4c3.8-0.2,6.7,1.4,7.9,4.9c1,2.9,1.6,6,1.9,9.1c0.7,6.3,0,12.6-1,18.8c0,0.2,0,0.4,0,0.9
		c2.5-0.1,5-0.1,7.4-0.4c11-1.2,21.3-5.1,31.3-9.5c2.4-1,4.7-2.1,7.2-3.2c0,1.2,0.1,2.2,0,3.1c0,0.3-0.4,0.7-0.7,0.8
		c-11,5.2-22.2,9.9-34.3,11.8c-3.3,0.5-6.8,0.5-10.2,0.7c-0.5,0-1,0-1.2,0c-2.2,6.8-4.3,13.4-6.5,20.1c17.7,0.5,35.3-1.3,52.8-4.7
		c0,0.9,0,1.7,0,2.7c-3,0.6-6,1.2-9,1.8c-14.7,2.6-29.4,3.8-44.3,3.5c-0.9,0-1.2,0.4-1.4,1.1c-1.5,3.9-3.4,7.6-6.2,10.8
		c-4.7,5.2-10.5,8.3-17.6,8.7c-9.2,0.5-18-1-25.8-6.4c-7.4-5.1-13.2-11.5-17-19.6c-0.2-0.3-0.3-0.6-0.5-1c-2.5,2.7-4.9,5.5-7.3,8.1
		c-5.6,6.1-11.7,11.7-18.6,16.3c-15,10.3-30.8,11-47.1,3.6c-2.1-0.9-4-2.1-6-3.2c-0.9-0.6-1.6-0.6-2.6-0.2
		c-10.7,4.8-21.8,6.5-33.5,5.4c-6.7-0.7-13.3-2-19.7-4.3c-0.3-0.1-0.6-0.2-0.9-0.3c-0.2,0.2-0.3,0.5-0.4,0.7
		c-2.3,5.5-6.2,9.6-11.4,12.3c-8.7,4.5-17.8,7.6-27.8,7.8c-2.3,0-4.6-0.5-6.9-0.7c-0.6,0-1.4,0.2-1.9,0.6c-4.8,3.9-10,6.7-16.1,7.8
		c-5.8,1.1-11.5,0.1-17-1.9c-3.7-1.4-7.2-3.4-10.8-5.1c-0.1-0.2-0.1-0.4-0.2-0.6c-0.3,0.5-0.6,1-1,1.4c-7,7.5-15.8,11.3-25.9,12.5
		c-9.6,1.1-19,0.6-28.4-1.3c-10.5-2.1-16.3-8.9-18.7-19c-1.2-5.2-1-10.5-0.1-15.7c1.1-6.1,2.7-12.1,3.4-18.3
		c1.4-11.9-1.7-22.3-11.5-30.1c-0.9-0.7-1.4-0.6-2.2,0.1c-10.1,9.3-22.3,12.8-35.8,12.4c-7.3-0.2-13.9-2.3-19.8-7.3
		c-2.2,3.1-4.3,6-6.4,9.1c2.4,0.2,4.6,0.3,6.7,0.6c5.7,0.9,10.4,3.6,14.4,7.6c5.3,5.4,9.2,11.6,10.5,19.2
		c1.8,10.5-0.1,20.1-6.8,28.5c-4.3,5.4-10.1,8-16.7,8.9c-3.8,0.6-7.7,1-11.5,0.2c-6.8-1.5-10.7-5.9-12.3-12.5
		c-1.5-6.1-1.1-12.2,0.3-18.2c2.3-10.1,5.1-20.1,9.8-29.4c0.3-0.6,0.7-1.3,1.2-2.3c-1.7,0.3-3.2,0.5-4.7,0.8
		C48,70.3,38.8,75.3,30.5,82.4c-3.6,3.1-7.2,6.2-10.8,9.3c-6,5.2-10.5,11.5-15,17.9c-1.6,2.2-3.1,4.4-4.7,6.6c0-1,0-2,0-3
		c0.4-0.5,0.7-0.9,1.1-1.4c4.3-5.7,8.2-11.9,13.2-17.1c5.6-5.9,11.9-11.2,18.2-16.3c9-7.3,19.4-12,31-13.4c0.5-0.1,1.2-0.3,1.5-0.7
		c2.4-3.5,4.7-7.1,7.1-10.7c-1.3-1.2-2.7-2.5-4.2-3.9c-0.5,0.6-1,1.1-1.5,1.6C60.6,57.4,54,62.5,46.6,66.5
		C39.4,70.5,31.7,72,23.5,71c-4.8-0.6-8.3-3.7-9-8c-0.6-3.5,0.8-6.6,2.8-9.4c2.6-3.8,6.2-6.5,10.1-8.7c8.4-4.6,17.6-5.9,27.1-6.1
		c4.5-0.1,8.3,1.6,11.6,4.6c0.6,0.5,1.1,1,1.8,1.5c4.4-4.5,8.8-8.8,12.9-13.4c4.7-5.3,8.5-11.3,10.9-18c1.5-4.5,2.2-9,0.4-13.5
		c1.2,0,2.4,0,3.5,0c0.2,2.3,0.6,4.6,0.6,6.9c0,4.9-1.8,9.4-4,13.7c-3.9,7.6-9.2,14.1-15.4,19.9c-2.3,2.1-4.6,4.3-7,6.5
		c1.8,1.6,3.2,2.9,4.4,4.1c2-1.6,3.7-3.2,5.6-4.6c5.9-4.2,12.7-6.1,19.8-6.8c8.9-0.9,17.5,0.2,25.9,3.6c1.6,0.6,3.2,2,4.6,1.7
		c1.5-0.3,2.7-2,3.9-3.3c0.4-0.4,0.7-1.2,0.7-1.9c-0.1-1.5-0.3-3.1-0.5-4.6c-0.6-6.1-0.5-12.1,0.3-18.2c0.7-6,2.1-11.8,4.9-17.1
		c1.3,0,2.5,0,3.8,0c-0.9,2-2.1,3.8-2.8,5.9c-3.1,8.7-3.6,17.8-3.1,26.9c0.1,1.6,0.3,3.2,0.5,5c0.5-0.5,0.7-0.8,0.9-1.1
		c5.6-7.6,9.2-16.1,11.2-25.2c0.9-4.1,1.1-8-1.7-11.5c1.4,0,2.7,0,4.1,0c1.4,3.1,1.9,6.3,1.3,9.7c-2.2,11.9-6.5,22.8-14.6,31.9
		c-0.3,0.3-0.6,0.9-0.5,1.3c1.1,6.5,3,12.8,7,18.2c4.5,6,9.5,11.5,15.4,16.1c6.3,4.9,12.7,9.5,19,14.4c5.8,4.5,11.4,9.2,17.4,13.6
		c4,3,8.4,5.4,12.5,8.1c1.3,0.8,2.5,1.8,3.7,2.7c7.9-7.3,19.9-33.9,18.8-41.5c-0.5,0.2-0.9,0.4-1.4,0.6c-6.5,2.8-13.1,5.2-20.3,5.6
		c-12.7,0.7-22.6-5.3-27.8-17.7c-1.9-4.5-1.2-9.2-0.3-13.9c2.9-14.1,15.5-25.5,29.8-26.6c6.1-0.5,11.4,1.5,15.1,6.6
		c7.2,10,10.3,21.1,9.4,33.4c-0.1,2-0.3,4.1-0.4,6.3c1.1-0.5,2.1-1,3-1.4c8.4-3.9,16.6-8.1,23.9-14c0.8-0.6,1-1.2,0.8-2.2
		c-0.3-2.3-0.6-4.6-0.7-6.9c-0.3-7.2,0.3-14.3,1.9-21.3c1.9-8.4,4.7-16.5,10.6-23c2.3,0,4.5,0,6.8,0c0.9,1.8,2.1,3.4,2.6,5.3
		c0.8,3.3,1.4,6.7,1.7,10c0.9,10-2.1,19-7.9,27.1c-2.9,4.1-6.7,7.5-10.5,10.8c-0.6,0.5-1,0.9-0.8,1.8c2,8.7,5.6,16.6,11.8,23.2
		c6.7,7.3,14.9,12.5,23.8,16.8c0.1,0.1,0.2,0,0.4,0c0.1-0.3,0.2-0.5,0.3-0.8c2-8.8,2.5-17.7,3.2-26.7c0.7-8.5,1.1-17,2.4-25.4
		c2.6-15.9,10.6-28.6,22.2-39.3c1.1-1,2.3-1.9,3.5-2.8c2.3,0,4.5,0,6.8,0c-3.2,2.2-6.7,4.1-9.5,6.7c-12.9,12.1-19.6,27-20.8,44.6
		c-0.6,8.8-1.1,17.7-2,26.4c-0.6,6-1.7,12-2.6,18c-0.1,0.9,0.3,1.1,0.9,1.3c13.2,4.5,26.5,6,40.1,2.5c3.3-0.8,6.4-2,10-3.2
		c-0.7-0.5-1.1-0.8-1.4-1.1c-3.7-2.7-7-5.9-9.8-9.6c-5.9-7.8-9-16.6-10.1-26.3c-0.9-8.1-0.2-15.9,3.1-23.4
		c3.1-7.3,7.8-13.2,15.5-16.1c7.4-2.8,15.1-3.3,22.9-2.2c6.9,1,13.4,3.3,19.7,6c3.9,1.7,7.8,3.5,11.8,5.3c0.2-0.4,0.5-0.8,0.6-1.2
		c1.5-4.2,3.1-8.4,4.4-12.7c1.5-5.1,2.1-10.6,5.2-15.2c1.5,0,2.9,0,4.4,0c-2.4,2.2-3.6,5-4.4,8.1c-1.9,7.6-3.4,15.4-7,22.3
		c7.3,4.1,14.5,8.1,21.6,12.1c-1.5-14-0.7-28.3-1-42.5C437.6,0,441,0,444.3,0z M408.9,32.2c-0.4-0.2-0.6-0.4-0.8-0.5
		c-5.4-2.4-10.7-4.9-16.2-7.1c-8.9-3.5-18-5.2-27.7-3.7c-9.9,1.5-16.7,6.7-20.7,15.8c-3.6,8.4-4.1,17.1-2.5,26
		c2.4,13.1,8.7,23.7,19.8,31.2c0.9,0.6,1.6,0.6,2.6,0.1c11.9-5.8,20.5-15,26.6-26.5c3.9-7.3,7.4-14.7,11.2-22
		C403.7,41,406.3,36.7,408.9,32.2z M365.8,97c1,0.6,2,1.2,3.1,1.7c16.4,8.3,32.2,7.4,47.2-3.6c8.9-6.5,16.5-14.4,23.6-22.8
		c0.9-1.1,1.1-2,0.6-3.4c-2.3-6.6-3.3-13.4-4.4-20.3c-0.1-0.6-0.5-1.4-1.1-1.7c-4.7-3-9.4-6-14.2-8.8c-2.8-1.6-5.7-3-8.6-4.4
		c-0.3,0.5-0.5,0.8-0.7,1.1c-6,10.3-11.5,20.7-16.7,31.4c-4.5,9.4-10.5,17.7-18.8,24.1C372.7,92.7,369.2,94.7,365.8,97z
		 M262.1,116.7c1.3,0.1,2.4,0.3,3.5,0.3c10.6,0,20.3-3.3,29.4-8.6c1.9-1.1,3.6-2.8,5-4.5c1.3-1.6,2.2-3.5,3.1-5
		c-5.3-3.3-10.5-6.2-15.3-9.6c-10.8-7.5-18.3-17.4-21.7-30.3c-0.2-0.9-0.5-1.7-0.7-2.6c-2.7,1.9-5.1,3.9-7.8,5.4
		c-6.6,3.6-13.3,7-20,10.4c-0.8,0.4-1.2,0.9-1.3,1.8c-0.7,4.1-1.2,8.3-2.4,12.2c-3.3,11-9,20.8-15.7,30.1c-0.4,0.6-0.9,1.2-1.4,1.8
		c4.5,4.2,15.8,7.8,22.3,7.1c6.1-0.6,11.3-3.2,16.1-6.9c-1.3-1-2.5-1.8-3.4-2.8c-4.9-5-7.4-11.1-7.5-18.1c0-4.2,1.1-8.2,4.5-11.1
		c2.9-2.5,6.2-4.3,10.1-3.9c4.8,0.4,7.9,3.4,9.2,7.9c2.3,7.5,1.3,14.7-2.6,21.5C264.6,113.3,263.4,114.9,262.1,116.7z M211.7,118.6
		c-3.3-2.2-6.4-4.3-9.6-6.4c-3.2-2.1-6.5-4-9.5-6.3c-9.5-7.3-18.9-14.7-28.4-22c-5.7-4.3-11.1-8.9-15.8-14.3c-0.7-0.8-1.4-1.5-2-2.3
		c-0.2,0.6-0.1,1,0,1.5c0.8,4.3,1,8.6,0.2,13c-1,5.5-2.2,10.9-3.2,16.4c-0.9,5.3-1.3,10.6,0.1,15.9c2,7.7,6.3,13.5,14.4,15.4
		c10.9,2.6,21.9,3.1,33,1.1C199,129,205.9,125.2,211.7,118.6z M97.4,97.9c0.3-8.6-3.5-16.7-10.2-23.5C82.5,69.5,76.8,67,70,66.6
		c-2.8-0.1-4.2,0.8-5.5,3.3c-4.7,9.6-7.7,19.8-10,30.2c-1.2,5.4-1.5,10.9,0,16.4c1.6,6.1,5.4,9.7,11.8,10.6
		c3.4,0.5,6.8-0.1,10.1-0.6c5.4-0.9,10.1-3.1,13.7-7.4C94.9,113.3,97.5,106.6,97.4,97.9z M234.3,58.9c0.2-9.6-2.8-18.2-7.8-26.2
		c-3.7-6-9.3-8.4-16-6.9c-12.4,2.8-21.2,10.1-24.5,22.9c-0.9,3.6-1.6,7.3-0.8,11c1.3,5.4,4.4,9.6,8.6,13c6.1,5,13.2,5.6,20.6,4.5
		c6.4-1,12.3-3.5,18.1-6.2c0.5-0.2,1-1,1-1.5C233.8,65.9,234,62.4,234.3,58.9z M506.3,80.8c-0.5-0.1-0.8-0.1-1.1-0.1
		c-6.8-0.8-13.6-1.4-20.4-2.5c-10.1-1.7-19.3-5.6-27.1-12.4c-1.9-1.6-3.8-3.2-5.7-4.8c-2.2,3.2-4.3,6.3-6.6,9.3
		c-0.6,0.9-0.7,1.5-0.3,2.4c3,6.7,7.4,12.3,13,17c8.4,7.1,18.3,9.6,28.9,8.2C497.1,96.6,502.8,89.9,506.3,80.8z M451.2,55.6
		c3.8-6.2,6.7-12.6,8.1-19.7c1.5-7.4,0.3-14.4-3.9-20.7c-4.1-6.3-9.7-11.1-16.5-14.5c-0.4-0.2-0.9-0.4-1.4-0.6c0,4.2,0,8.2,0,12.2
		c0,10.2-0.1,20.5,1,30.7c0.2,1.7,0.5,3,2.1,3.9c0.9,0.5,1.6,1.3,2.5,1.9C445.8,51.2,448.5,53.4,451.2,55.6z M65.5,47.5
		c-2.9-3.1-6.2-5.4-10.4-5.3c-4.4,0.1-8.8,0.5-13.1,1.2c-6.4,0.9-12.4,3.2-17.5,7.3c-2.7,2.2-5.2,4.6-6.3,8
		c-0.4,1.2-0.7,2.6-0.6,3.8c0.4,3.2,2.8,4.6,5.6,5.3c3.9,1,7.8,0.3,11.7-0.4c5.7-1,10.6-3.8,15.4-6.9C56,56.8,60.9,52.4,65.5,47.5z
		 M127.6,47.4c-0.5-0.3-0.9-0.5-1.3-0.7c-12.5-5.6-25.2-6.4-38.1-1.8c-4.5,1.6-8.4,4.1-11.6,7.7c2,2.1,6.2,4.4,9.7,5.3
		c6.6,1.7,13.2,1.4,19.8,0.3C114.4,56.9,121.4,53.1,127.6,47.4z M267.5,50.3c3.4-2.9,6.4-5.7,9-9c6.7-8.9,9.5-18.9,7.5-29.9
		c-0.5-2.7-1.2-5.5-2.2-8.1c-0.8-2.1-2.2-2.2-3.8-0.6c-0.5,0.5-1.1,1.1-1.5,1.8c-1.9,3.6-4,7-5.4,10.7c-2.5,6.3-3.5,12.9-4.1,19.6
		C266.5,39.9,266.6,45,267.5,50.3z M265.8,97.6c0-2.7-0.4-5.4-1.6-7.9c-1.3-2.6-4-4.2-6.5-3.9c-5,0.6-8.9,4.3-9.6,9.3
		c-0.8,6.9,1.6,12.7,6.2,17.7c0.8,0.9,2,1.5,3.1,2.2c0.6,0.4,1,0.3,1.5-0.2C263.3,109.9,265.8,104.3,265.8,97.6z M514.7,53.5
		c0.1-0.1,0.1-0.2,0.2-0.4c0.9-5.8,1.6-11.6,1.1-17.4c-0.3-2.9-0.8-5.8-1.6-8.6c-0.8-2.7-2.7-3.6-5.5-3.2c-2.1,0.3-3.9,1.4-5.1,3
		c-2.6,3.4-4.2,7.2-4.5,11.5C498.6,46.1,504.6,52.6,514.7,53.5z M449.4,58.7c-3.2-2.7-6.4-5.3-9.5-7.9c-0.1,0.1-0.3,0.2-0.4,0.3
		c1.2,5.4,2.3,10.8,3.5,16.2c0.2,0,0.4,0,0.5,0.1C445.5,64.5,447.4,61.6,449.4,58.7z M135.7,45.1c-0.9,0.8-1.7,1.5-2.6,2.3
		c1.3,1.1,2.4,2,3.8,3.2C136.5,48.6,136.2,46.9,135.7,45.1z"/>
	<path d="M11.4,0c-0.1,4.8-0.2,9.5,0.8,14.2c0.3,1.2,0.6,2.5,1,3.6c1.4,3.9,3.6,5.4,7.8,5.5c9.4,0.3,17.5-2.7,24.4-9.1
		c4.4-4.1,8.9-8.2,13.3-12.2c0.8-0.7,1.7-1.4,2.5-2.1c1.8,0,3.6,0,5.5,0C60.6,4.1,55.4,9.4,50,14.4c-2.3,2.1-4.7,4-7.2,5.9
		c-7.1,5.4-15.4,6.6-24,5.8c-3.4-0.3-5.9-2.1-7.4-5.3C10,17.8,9.2,14.5,9,11.1C8.8,7.4,8.8,3.7,8.7,0C9.6,0,10.5,0,11.4,0z"/>
</g>
</svg>
