<?xml version="1.0" encoding="UTF-8" standalone="no"?>
<svg width="25px" height="26px" viewBox="0 0 25 26" version="1.1" xmlns="http://www.w3.org/2000/svg" xmlns:xlink="http://www.w3.org/1999/xlink">
    <defs></defs>
    <g id="Page-1" stroke="none" stroke-width="1" fill="none" fill-rule="evenodd">
        <g id="homepage-5" transform="translate(-827.000000, -2539.000000)" fill="#B0B0B0">
            <path d="M843.095633,2553.00283 C844.472879,2556.93315 845.030717,2560.12897 845.13668,2560.78033 C847.49081,2559.12809 849.163791,2556.51185 849.629813,2553.47679 C849.421357,2553.4075 846.485901,2552.44016 843.095633,2553.00283 L843.095633,2553.00283 Z M841.533419,2549.14179 C841.778441,2549.66011 842.012519,2550.18923 842.230316,2550.72168 C842.307987,2550.91016 842.382988,2551.09587 842.456655,2551.28435 C846.078065,2550.81038 849.643158,2551.61418 849.759797,2551.63913 C849.734975,2549.05587 848.84617,2546.68603 847.375239,2544.83174 C847.35362,2544.865 845.671831,2547.38728 841.533419,2549.14179 L841.533419,2549.14179 Z M841.061525,2553.52946 C834.907423,2555.75793 832.875984,2560.23707 832.83488,2560.32853 C834.613557,2561.76984 836.846244,2562.63739 839.277778,2562.63739 C840.730025,2562.63739 842.113144,2562.32973 843.370815,2561.77538 C843.215742,2560.8219 842.605589,2557.4875 841.130921,2553.50728 C841.107967,2553.51532 841.085013,2553.52114 841.061525,2553.52946 L841.061525,2553.52946 Z M839.277778,2564.5 C832.496975,2564.5 827,2558.79022 827,2551.75 C827,2544.70701 832.496975,2539 839.277778,2539 C846.058848,2539 851.555556,2544.70701 851.555556,2551.75 C851.555556,2558.79022 846.058848,2564.5 839.277778,2564.5 L839.277778,2564.5 Z M846.202711,2543.57614 C844.35624,2541.88815 841.932714,2540.85984 839.277778,2540.85984 C838.425807,2540.85984 837.599726,2540.96793 836.807275,2541.1675 C836.96662,2541.38647 838.934534,2544.10277 840.726822,2547.52033 C844.680534,2545.97924 846.174953,2543.62049 846.202711,2543.57614 L846.202711,2543.57614 Z M836.765905,2541.17859 C836.756563,2541.17859 836.747221,2541.18136 836.738413,2541.18413 C836.754694,2541.18136 836.764303,2541.17859 836.764303,2541.17859 L836.765905,2541.17859 L836.765905,2541.17859 Z M832.833279,2560.3313 L832.83488,2560.32853 C832.75721,2560.26478 832.673668,2560.20658 832.597599,2560.14005 C832.736925,2560.25647 832.833279,2560.3313 832.833279,2560.3313 L832.833279,2560.3313 Z M840.003234,2551.83315 C840.140425,2551.78603 840.27815,2551.74446 840.416675,2551.70288 C840.153504,2551.08478 839.86631,2550.46391 839.566039,2549.85136 C834.166752,2551.53103 828.984996,2551.40908 828.801097,2551.40353 C828.797894,2551.51717 828.792556,2551.63359 828.792556,2551.75 C828.792556,2554.54946 829.811344,2557.09946 831.482723,2559.02859 C831.479521,2559.02582 831.47525,2559.02027 831.47525,2559.02027 C831.47525,2559.02027 834.345581,2553.73179 840.003234,2551.83315 L840.003234,2551.83315 Z M838.697519,2548.17446 C836.884412,2544.82897 834.946391,2542.10158 834.804129,2541.89924 C831.879883,2543.335 829.697641,2546.13168 829.016758,2549.50489 C829.292208,2549.50766 833.662029,2549.5631 838.697519,2548.17446 L838.697519,2548.17446 Z" id="dribbble"></path>
        </g>
    </g>
</svg>