<?xml version="1.0" encoding="UTF-8" standalone="no"?>
<svg width="28px" height="19px" viewBox="0 0 28 19" version="1.1" xmlns="http://www.w3.org/2000/svg" xmlns:xlink="http://www.w3.org/1999/xlink">
    <defs></defs>
    <g id="Page-1" stroke="none" stroke-width="1" fill="none" fill-rule="evenodd">
        <g id="homepage-5" transform="translate(-941.000000, -2543.000000)" fill="#B0B0B0">
            <path d="M968.40956,2548.18944 C967.563418,2548.62543 957.169882,2553.99236 956.651762,2554.25902 C956.133336,2554.52628 955.770224,2554.56124 955.268886,2554.56124 C954.767853,2554.56124 954.404741,2554.52628 953.886316,2554.25902 C953.368195,2553.99236 942.975269,2548.62543 942.128517,2548.18944 C941.532892,2547.88301 941.537774,2548.24247 941.537774,2548.52028 L941.537774,2559.57202 C941.537774,2560.20356 942.389714,2561.0168 943.050943,2561.0168 L967.487135,2561.0168 C968.148059,2561.0168 968.999998,2560.20356 968.999998,2559.57202 L968.999998,2548.52028 C968.999998,2548.24247 969.005795,2547.88301 968.40956,2548.18944 L968.40956,2548.18944 Z M942.444028,2545.17634 C943.188864,2545.57196 953.502455,2551.04224 953.886316,2551.24592 C954.270482,2551.44961 954.767853,2551.54814 955.268886,2551.54814 C955.770224,2551.54814 956.267596,2551.44961 956.651762,2551.24592 C957.035623,2551.04224 967.348908,2545.57196 968.09405,2545.17634 C968.839191,2544.78133 969.544665,2543.54083 968.175216,2543.54083 L942.362556,2543.54083 C940.994327,2543.54083 941.698886,2544.78133 942.444028,2545.17634 L942.444028,2545.17634 Z" id="email"></path>
        </g>
    </g>
</svg>