<?xml version="1.0" encoding="UTF-8" standalone="no"?>
<svg width="24px" height="21px" viewBox="0 0 24 21" version="1.1" xmlns="http://www.w3.org/2000/svg" xmlns:xlink="http://www.w3.org/1999/xlink">
    <defs></defs>
    <g id="Page-1" stroke="none" stroke-width="1" fill="none" fill-rule="evenodd">
        <g id="homepage-5" transform="translate(-767.000000, -2541.000000)" fill="#B0B0B0">
            <path d="M774.56792,2552.92378 C773.665894,2552.92378 772.934317,2553.97896 772.934317,2555.28026 C772.934317,2556.58156 773.665894,2557.63674 774.56792,2557.63674 C775.470952,2557.63674 776.202528,2556.58156 776.202528,2555.28026 C776.202528,2553.97896 775.470952,2552.92378 774.56792,2552.92378 L774.56792,2552.92378 Z M778.599635,2560.2629 L778.528992,2560.2629 C773.787823,2560.2629 770.09575,2559.67378 770.09575,2554.87442 C770.09575,2553.72498 770.48517,2552.65933 771.410074,2551.77172 C772.953926,2550.29762 775.565227,2551.07787 778.528992,2551.07787 L778.564188,2551.07787 L778.599635,2551.07787 C781.5634,2551.07787 784.175203,2550.29762 785.718302,2551.77172 C786.643457,2552.65933 787.032877,2553.72498 787.032877,2554.87442 C787.032877,2559.67378 783.341055,2560.2629 778.599635,2560.2629 L778.599635,2560.2629 Z M788.25016,2546.79432 C788.436197,2546.31517 788.445498,2543.59998 787.453219,2541 C787.453219,2541 785.176282,2541.25921 781.731336,2543.72042 C781.009061,2543.51358 779.786499,2543.40884 778.564188,2543.40884 C777.342128,2543.40884 776.120069,2543.51358 775.397291,2543.72042 C771.952345,2541.25921 769.675911,2541 769.675911,2541 C768.683632,2543.59998 768.692431,2546.31517 768.878467,2546.79432 C767.712219,2548.11133 767,2549.6954 767,2551.86075 C767,2561.26833 774.493757,2561.42019 776.385548,2561.42019 C776.813684,2561.42019 777.664676,2561.42019 778.564188,2561.42281 C779.4637,2561.42019 780.315195,2561.42019 780.742828,2561.42019 C782.63487,2561.42019 790.128878,2561.26833 790.128878,2551.86075 C790.128878,2549.6954 789.416157,2548.11133 788.25016,2546.79432 L788.25016,2546.79432 Z M782.560707,2552.92378 C781.658178,2552.92378 780.926099,2553.97896 780.926099,2555.28026 C780.926099,2556.58156 781.658178,2557.63674 782.560707,2557.63674 C783.462733,2557.63674 784.19431,2556.58156 784.19431,2555.28026 C784.19431,2553.97896 783.462733,2552.92378 782.560707,2552.92378 L782.560707,2552.92378 Z" id="github"></path>
        </g>
    </g>
</svg>