<?xml version="1.0" encoding="UTF-8" standalone="no"?>
<svg width="15px" height="24px" viewBox="0 0 15 24" version="1.1" xmlns="http://www.w3.org/2000/svg" xmlns:xlink="http://www.w3.org/1999/xlink">
    <defs></defs>
    <g id="Page-1" stroke="none" stroke-width="1" fill="none" fill-rule="evenodd">
        <g id="homepage-5" transform="translate(-888.000000, -2540.000000)" fill="#B0B0B0">
            <path d="M903,2562.69043 C901.959375,2563.17304 901.017054,2563.51217 900.174911,2563.70783 C899.330893,2563.90087 898.418036,2564 897.438214,2564 C896.325536,2564 895.341429,2563.85913 894.485625,2563.58261 C893.630625,2563.30609 892.901786,2562.90957 892.296696,2562.39826 C891.692411,2561.88435 891.273214,2561.33913 891.040446,2560.76261 C890.807143,2560.18348 890.691161,2559.34609 890.691161,2558.25043 L890.691161,2549.83217 L888,2549.83217 L888,2546.43565 C888.955714,2546.13043 889.776161,2545.69217 890.457589,2545.11826 C891.139821,2544.54696 891.687054,2543.86087 892.099821,2543.05739 C892.512589,2542.25652 892.79625,2541.23652 892.952143,2540 L896.414464,2540 L896.414464,2546.06522 L902.193214,2546.06522 L902.193214,2549.83217 L896.414464,2549.83217 L896.414464,2555.98609 C896.414464,2557.37887 896.489196,2558.2713 896.64,2558.66783 C896.788393,2559.06174 897.067232,2559.37739 897.472768,2559.61217 C898.013036,2559.93043 898.628304,2560.08957 899.321518,2560.08957 C900.554732,2560.08957 901.780446,2559.69565 903,2558.90522 L903,2562.69043" id="tumblr"></path>
        </g>
    </g>
</svg>