<?xml version="1.0" encoding="UTF-8" standalone="no"?>
<svg width="22px" height="19px" viewBox="0 0 22 19" version="1.1" xmlns="http://www.w3.org/2000/svg" xmlns:xlink="http://www.w3.org/1999/xlink">
    <defs></defs>
    <g id="Page-1" stroke="none" stroke-width="1" fill="none" fill-rule="evenodd">
        <g id="homepage-5" transform="translate(-709.000000, -2543.000000)" fill="#B0B0B0">
            <path d="M730.816534,2545.19654 C730.008665,2545.56883 729.14122,2545.82199 728.233261,2545.93368 C729.160284,2545.35538 729.875212,2544.43706 730.211228,2543.34251 C729.341399,2543.87861 728.37863,2544.27076 727.3539,2544.47925 C726.534116,2543.56837 725.364018,2543 724.069998,2543 C721.586816,2543 719.573103,2545.09726 719.573103,2547.68594 C719.573103,2548.05327 719.611232,2548.41068 719.689874,2548.75319 C715.950802,2548.55711 712.63592,2546.69316 710.417261,2543.85876 C710.0312,2544.54874 709.809572,2545.35538 709.809572,2546.21414 C709.809572,2547.83734 710.603142,2549.27192 711.808987,2550.1133 C711.072611,2550.08848 710.379131,2549.87752 709.771442,2549.52756 L709.771442,2549.58464 C709.771442,2551.85564 711.322836,2553.74938 713.379445,2554.17876 C713.002916,2554.28548 712.60494,2554.34257 712.195048,2554.34257 C711.90431,2554.34257 711.623105,2554.31526 711.34905,2554.25818 C711.920992,2556.11965 713.582008,2557.4748 715.550442,2557.51203 C714.010964,2558.77039 712.071127,2559.51746 709.964473,2559.51746 C709.602243,2559.51746 709.242396,2559.49512 708.892081,2559.45293 C710.881964,2560.78077 713.245992,2561.55763 715.786368,2561.55763 C724.060466,2561.55763 728.585959,2554.41951 728.585959,2548.22701 C728.585959,2548.02597 728.581193,2547.82245 728.571661,2547.62141 C729.451022,2546.96121 730.213611,2546.1372 730.816534,2545.19654" id="twitter"></path>
        </g>
    </g>
</svg>